<?xml version="1.0" encoding="UTF-8"?>
<!DOCTYPE svg PUBLIC "-//W3C//DTD SVG 1.1//EN" "http://www.w3.org/Graphics/SVG/1.1/DTD/svg11.dtd">
<!-- Creator: CorelDRAW -->
<svg xmlns="http://www.w3.org/2000/svg" xml:space="preserve" width="1.73198in" height="1.73201in" version="1.1" style="shape-rendering:geometricPrecision; text-rendering:geometricPrecision; image-rendering:optimizeQuality; fill-rule:evenodd; clip-rule:evenodd"
viewBox="0 0 1731.98 1732.01"
 xmlns:xlink="http://www.w3.org/1999/xlink"
 xmlns:xodm="http://www.corel.com/coreldraw/odm/2003">
 <defs>
  <style type="text/css">
   <![CDATA[
    .fil1 {fill:#363637}
    .fil2 {fill:#DC5C66}
    .fil0 {fill:#DE5D61}

    
    @media (prefers-color-scheme: dark) {
       .fil1 {fill: white}
    }
   ]]>
  </style>
 </defs>
 <g id="Layer_x0020_1">
  <metadata id="CorelCorpID_0Corel-Layer"/>
 </g>
 <g id="Layer_x0020_1_0">
  <metadata id="CorelCorpID_1Corel-Layer"/>
  <path class="fil0" d="M312.87 1048.7l2 0 0 -66 2 0 0 -10 2 0 0 -4 2 0 0 -4 2 0 0 -6 2 0 0 -12 2 0 0 -24 2 0 0 -18 2 0 0 -4 2 0 0 -2 2 0 0 -2 2 0 0 -4 2 0 0 -8 2 0 0 -12 2 0 0 -14 2 0 0 -2 2 0 0 -2 2 0 0 -2 2 0 0 -4 2 0 0 -6 2 0 0 -12 2 0 0 -4 2 0 0 -4 4 0 0 -4 2 0 0 -2 2 0 0 -4 2 0 0 -10 2 0 0 -6 2 0 0 -2 2 0 0 -2 2 0 0 -2 2 0 0 -2 2 0 0 -6 2 0 0 -8 2 0 0 -4 2 0 0 -2 2 0 0 -2 2 0 0 -2 2 0 0 -4 2 0 0 -2 2 0 0 -4 2 0 0 -8 6 0 0 -2 2 0 0 -2 2 0 0 -4 2 0 0 -6 2 0 0 -2 2 0 0 -2 2 0 0 -2 2 0 0 -2 2 0 0 -2 2 0 0 -4 2 0 0 -4 2 0 0 -4 2 0 0 -2 2 0 0 -2 2 0 0 -2 4 0 0 -2 2 0 0 -4 2 0 0 -6 4 0 0 -2 4 0 0 -2 2 0 0 -2 2 0 0 -4 2 0 0 -4 2 0 0 -2 4 0 0 -2 4 0 0 -4 2 0 0 -6 2 0 0 -2 6 0 0 -2 2 0 0 -2 2 0 0 -2 2 0 0 -4 2 0 0 -2 2 0 0 -2 6 0 0 -2 2 0 0 -2 2 0 0 -2 2 0 0 -6 6 0 0 -2 4 0 0 -2 2 0 0 -2 2 0 0 -2 2 0 0 -2 2 0 0 -2 2 0 0 -2 4 0 0 -2 4 0 0 -2 4 0 0 -2 4 0 0 -2 2 0 0 -4 2 0 0 -2 2 0 0 -2 8 0 0 -2 4 0 0 -2 2 0 0 -2 2 0 0 -2 2 0 0 -2 2 0 0 -2 4 0 0 -2 6 0 0 -2 4 0 0 -2 2 0 0 -2 2 0 0 -2 2 0 0 -4 6 0 0 -2 8 0 0 -2 6 0 0 -2 2 0 0 -2 2 0 0 -2 2 0 0 -2 2 0 0 -2 6 0 0 -2 8 0 0 -2 6 0 0 -2 4 0 0 -2 2 0 0 -2 2 0 0 -4 8 0 0 -2 12 0 0 -2 6 0 0 -2 6 0 0 -2 2 0 0 -2 2 0 0 -2 2 0 0 -2 12 0 0 -2 16 0 0 -2 8 0 0 -2 4 0 0 -2 4 0 0 -2 2 0 0 -2 2 0 0 -2 14 0 0 -2 30 0 0 -2 12 0 0 -2 8 0 0 -2 4 0 0 -2 8 0 0 -2 14 0 0 -2 46 0 0 -2 16 0 0 2 44 0 0 2 16 0 0 2 6 0 0 2 6 0 0 2 6 0 0 2 12 0 0 2 26 0 0 2 18 0 0 2 4 0 0 2 2 0 0 2 2 0 0 2 4 0 0 2 10 0 0 2 14 0 0 2 10 0 0 2 4 0 0 2 2 0 0 2 2 0 0 2 4 0 0 2 8 0 0 2 12 0 0 2 6 0 0 2 2 0 0 2 2 0 0 2 2 0 0 2 4 0 0 2 4 0 0 2 8 0 0 2 8 0 0 2 2 0 0 2 2 0 0 2 2 0 0 2 2 0 0 2 6 0 0 2 6 0 0 2 8 0 0 2 2 0 0 4 2 0 0 2 2 0 0 2 4 0 0 2 6 0 0 2 4 0 0 4 2 0 0 2 2 0 0 2 4 0 0 2 4 0 0 2 6 0 0 2 6 0 0 4 2 0 0 2 2 0 0 2 2 0 0 2 4 0 0 2 6 0 0 2 2 0 0 4 2 0 0 2 2 0 0 2 2 0 0 2 4 0 0 2 2 0 0 2 4 0 0 4 2 0 0 2 2 0 0 2 4 0 0 2 2 0 0 2 4 0 0 2 2 0 0 2 2 0 0 2 2 0 0 2 2 0 0 2 2 0 0 2 2 0 0 2 2 0 0 2 2 0 0 2 2 0 0 2 2 0 0 2 2 0 0 2 2 0 0 4 2 0 0 2 2 0 0 2 2 0 0 2 2 0 0 2 2 0 0 2 2 0 0 2 2 0 0 4 2 0 0 2 2 0 0 4 2 0 0 2 4 0 0 2 2 0 0 2 2 0 0 4 2 0 0 4 2 0 0 2 4 0 0 2 4 0 0 4 2 0 0 6 2 0 0 2 2 0 0 2 2 0 0 2 4 0 0 2 2 0 0 8 2 0 0 4 2 0 0 2 2 0 0 4 2 0 0 2 4 0 0 4 2 0 0 2 2 0 0 6 2 0 0 4 2 0 0 2 4 0 0 2 2 0 0 2 2 0 0 10 2 0 0 8 2 0 0 4 2 0 0 2 4 0 0 2 2 0 0 4 2 0 0 8 2 0 0 8 2 0 0 4 2 0 0 2 4 0 0 2 2 0 0 6 2 0 0 10 2 0 0 10 2 0 0 6 2 0 0 2 2 0 0 2 2 0 0 2 2 0 0 4 2 0 0 18 2 0 0 10 2 0 0 8 2 0 0 2 2 0 0 4 2 0 0 2 2 0 0 10 2 0 0 34 2 0 0 18 2 0 0 16 2 0 0 14 2 0 0 10 2 0 0 8 2 0 0 70 -2 0 0 10 -2 0 0 10 -2 0 0 16 -2 0 0 12 -2 0 0 16 -2 0 0 32 -2 0 0 10 -2 0 0 2 -2 0 0 4 -2 0 0 2 -2 0 0 6 -2 0 0 10 -2 0 0 14 -2 0 0 8 -2 0 0 2 -4 0 0 4 -2 0 0 6 -2 0 0 8 -2 0 0 12 -2 0 0 6 -2 0 0 2 -2 0 0 2 -2 0 0 2 -2 0 0 4 -2 0 0 6 -2 0 0 8 -2 0 0 4 -2 0 0 2 -2 0 0 2 -2 0 0 2 -2 0 0 4 -2 0 0 6 -2 0 0 8 -2 0 0 4 -2 0 0 2 -2 0 0 2 -2 0 0 2 -2 0 0 4 -2 0 0 6 -2 0 0 4 -2 0 0 2 -4 0 0 2 -2 0 0 2 -2 0 0 4 -2 0 0 4 -2 0 0 6 -2 0 0 4 -2 0 0 2 -4 0 0 2 -2 0 0 4 -2 0 0 4 -2 0 0 4 -2 0 0 2 -4 0 0 2 -2 0 0 2 -2 0 0 2 -2 0 0 6 -2 0 0 2 -2 0 0 2 -4 0 0 2 -2 0 0 2 -2 0 0 4 -2 0 0 2 -2 0 0 4 -2 0 0 2 -4 0 0 2 -2 0 0 4 -2 0 0 2 -2 0 0 2 -2 0 0 4 -2 0 0 2 -2 0 0 2 -2 0 0 2 -2 0 0 2 -2 0 0 2 -4 0 0 4 -4 0 0 2 -2 0 0 4 -4 0 0 2 -2 0 0 2 -4 0 0 2 -4 0 0 2 -2 0 0 2 -2 0 0 4 -2 0 0 2 -2 0 0 2 -6 0 0 2 -2 0 0 2 -2 0 0 4 -2 0 0 2 -2 0 0 2 -4 0 0 2 -4 0 0 2 -4 0 0 2 -2 0 0 4 -2 0 0 2 -4 0 0 2 -6 0 0 2 -4 0 0 2 -4 0 0 2 -2 0 0 4 -2 0 0 2 -2 0 0 2 -6 0 0 2 -4 0 0 2 -4 0 0 4 -2 0 0 4 -6 0 0 2 -6 0 0 2 -6 0 0 2 -4 0 0 2 -2 0 0 2 -2 0 0 4 -6 0 0 2 -10 0 0 2 -6 0 0 2 -4 0 0 2 -2 0 0 2 -2 0 0 2 -2 0 0 2 -8 0 0 2 -10 0 0 2 -8 0 0 2 -6 0 0 2 -2 0 0 2 -2 0 0 2 -2 0 0 2 -8 0 0 2 -14 0 0 2 -8 0 0 2 -4 0 0 2 -2 0 0 2 -2 0 0 2 -2 0 0 2 -12 0 0 2 -22 0 0 2 -14 0 0 2 -6 0 0 2 -6 0 0 2 -4 0 0 2 -2 0 0 2 -16 0 0 2 -152 0 0 -2 -16 0 0 -2 -4 0 0 -2 -2 0 0 -2 -4 0 0 -2 -8 0 0 -2 -12 0 0 -2 -24 0 0 -2 -10 0 0 -2 -2 0 0 -2 -2 0 0 -2 -2 0 0 -2 -6 0 0 -2 -6 0 0 -2 -14 0 0 -2 -8 0 0 -2 -2 0 0 -2 -2 0 0 -2 -4 0 0 -2 -4 0 0 -2 -6 0 0 -2 -12 0 0 -2 -8 0 0 -2 -2 0 0 -2 -2 0 0 -4 -4 0 0 -2 -6 0 0 -2 -10 0 0 -2 -6 0 0 -2 -2 0 0 -4 -4 0 0 -2 -2 0 0 -2 -6 0 0 -2 -6 0 0 -2 -6 0 0 -4 -2 0 0 -2 -2 0 0 -2 -2 0 0 -2 -4 0 0 -2 -6 0 0 -2 -2 0 0 -2 -2 0 0 -4 -2 0 0 -2 -4 0 0 -2 -4 0 0 -2 -6 0 0 -2 -6 0 0 -4 -2 0 0 -4 -4 0 0 -2 -4 0 0 -2 -6 0 0 -4 -2 0 0 -4 -2 0 0 -2 -2 0 0 -2 -6 0 0 -2 -2 0 0 -2 -2 0 0 -4 -2 0 0 -2 -2 0 0 -2 -2 0 0 -2 -4 0 0 -2 -4 0 0 -4 -2 0 0 -2 -2 0 0 -2 -2 0 0 -2 -4 0 0 -2 -2 0 0 -2 -2 0 0 -4 -2 0 0 -2 -2 0 0 -2 -2 0 0 -2 -4 0 0 -4 -2 0 0 -2 -2 0 0 -6 -2 0 0 -2 -4 0 0 -2 -4 0 0 -2 -2 0 0 -6 -2 0 0 -4 -4 0 0 -2 -4 0 0 -2 -2 0 0 -2 -2 0 0 -6 -2 0 0 -4 -2 0 0 -2 -6 0 0 -2 -2 0 0 -8 -2 0 0 -4 -2 0 0 -4 -2 0 0 -4 -2 0 0 -2 -4 0 0 -2 -2 0 0 -2 -2 0 0 -8 -2 0 0 -4 -2 0 0 -2 -4 0 0 -2 -2 0 0 -2 -2 0 0 -8 -2 0 0 -6 -2 0 0 -4 -2 0 0 -4 -2 0 0 -2 -4 0 0 -4 -2 0 0 -8 -2 0 0 -8 -2 0 0 -6 -2 0 0 -2 -2 0 0 -2 -2 0 0 -2 -2 0 0 -4 -2 0 0 -6 -2 0 0 -12 -2 0 0 -6 -2 0 0 -4 -2 0 0 -2 -2 0 0 -2 -2 0 0 -2 -2 0 0 -14 -2 0 0 -12 -2 0 0 -8 -2 0 0 -4 -2 0 0 -2 -2 0 0 -2 -2 0 0 -4 -2 0 0 -20 -2 0 0 -22 -2 0 0 -10 -2 0 0 -6 -2 0 0 -4 -2 0 0 -2 -2 0 0 -10 -2 0 0 -72 -2 0 0 -22zm467.98 -1046.05l-20 0 0 2 -12 0 0 2 -6 0 0 2 -6 0 0 2 -2 0 0 2 -12 0 0 2 -34 0 0 2 -12 0 0 2 -6 0 0 2 -4 0 0 2 -2 0 0 2 -4 0 0 2 -10 0 0 2 -20 0 0 2 -8 0 0 2 -6 0 0 2 -2 0 0 2 -4 0 0 4 -8 0 0 2 -16 0 0 2 -8 0 0 2 -4 0 0 2 -4 0 0 4 -2 0 0 2 -8 0 0 2 -14 0 0 2 -6 0 0 2 -2 0 0 2 -4 0 0 2 -2 0 0 4 -6 0 0 2 -12 0 0 2 -6 0 0 2 -4 0 0 2 -2 0 0 2 -2 0 0 4 -8 0 0 2 -8 0 0 2 -6 0 0 2 -4 0 0 2 -2 0 0 4 -2 0 0 2 -6 0 0 2 -8 0 0 2 -6 0 0 2 -2 0 0 2 -2 0 0 2 -2 0 0 4 -6 0 0 2 -6 0 0 2 -4 0 0 2 -4 0 0 2 -2 0 0 2 -2 0 0 2 -2 0 0 2 -4 0 0 2 -8 0 0 2 -2 0 0 2 -2 0 0 2 -2 0 0 4 -4 0 0 2 -6 0 0 2 -4 0 0 2 -4 0 0 2 -4 0 0 4 -2 0 0 2 -2 0 0 2 -4 0 0 2 -6 0 0 2 -2 0 0 2 -2 0 0 2 -2 0 0 4 -4 0 0 2 -4 0 0 2 -4 0 0 2 -4 0 0 2 -2 0 0 2 -2 0 0 2 -2 0 0 2 -2 0 0 2 -2 0 0 2 -6 0 0 2 -2 0 0 2 -2 0 0 2 -2 0 0 4 -2 0 0 2 -4 0 0 2 -6 0 0 2 -2 0 0 4 -2 0 0 4 -2 0 0 2 -6 0 0 2 -2 0 0 2 -2 0 0 2 -2 0 0 4 -2 0 0 2 -4 0 0 2 -4 0 0 2 -2 0 0 2 -2 0 0 4 -2 0 0 2 -2 0 0 2 -4 0 0 2 -2 0 0 2 -2 0 0 2 -2 0 0 2 -2 0 0 2 -2 0 0 2 -2 0 0 2 -2 0 0 2 -4 0 0 4 -2 0 0 2 -2 0 0 2 -2 0 0 2 -2 0 0 2 -2 0 0 2 -2 0 0 2 -2 0 0 2 -2 0 0 4 -2 0 0 2 -2 0 0 2 -4 0 0 2 -2 0 0 2 -2 0 0 2 -2 0 0 6 -2 0 0 2 -4 0 0 2 -4 0 0 4 -2 0 0 4 -2 0 0 4 -4 0 0 2 -4 0 0 2 -2 0 0 2 -2 0 0 8 -2 0 0 2 -4 0 0 2 -4 0 0 2 -2 0 0 4 -2 0 0 6 -2 0 0 2 -2 0 0 2 -4 0 0 2 -2 0 0 4 -2 0 0 4 -2 0 0 4 -2 0 0 4 -2 0 0 2 -2 0 0 2 -4 0 0 2 -2 0 0 4 -2 0 0 6 -2 0 0 4 -4 0 0 2 -4 0 0 4 -2 0 0 6 -2 0 0 4 -2 0 0 4 -2 0 0 2 -2 0 0 2 -2 0 0 2 -2 0 0 2 -2 0 0 4 -2 0 0 8 -2 0 0 2 -2 0 0 2 -4 0 0 4 -2 0 0 2 -2 0 0 6 -2 0 0 8 -2 0 0 4 -4 0 0 2 -2 0 0 2 -2 0 0 2 -2 0 0 8 -2 0 0 6 -2 0 0 6 -4 0 0 2 -2 0 0 2 -2 0 0 4 -2 0 0 6 -2 0 0 10 -2 0 0 4 -2 0 0 2 -4 0 0 2 -2 0 0 4 -2 0 0 8 -2 0 0 12 -2 0 0 2 -2 0 0 2 -2 0 0 2 -2 0 0 2 -2 0 0 6 -2 0 0 10 -2 0 0 10 -2 0 0 4 -2 0 0 2 -2 0 0 2 -2 0 0 2 -2 0 0 6 -2 0 0 10 -2 0 0 14 -2 0 0 4 -2 0 0 2 -2 0 0 4 -2 0 0 2 -2 0 0 6 -2 0 0 16 -2 0 0 16 -2 0 0 4 -2 0 0 2 -2 0 0 2 -2 0 0 4 -2 0 0 8 -2 0 0 18 -2 0 0 24 -2 0 0 8 -2 0 0 2 -2 0 0 4 -2 0 0 8 -2 0 0 10 -2 0 0 42 -2 0 0 168.01 2 0 0 34 2 0 0 12 2 0 0 6 2 0 0 6 2 0 0 4 2 0 0 6 2 0 0 24 2 0 0 18 2 0 0 8 2 0 0 4 2 0 0 2 2 0 0 2 2 0 0 6 2 0 0 16 2 0 0 14 2 0 0 6 2 0 0 4 2 0 0 2 2 0 0 2 2 0 0 4 2 0 0 16 2 0 0 10 2 0 0 4 2 0 0 2 2 0 0 4 2 0 0 2 2 0 0 2 2 0 0 10 2 0 0 10 2 0 0 6 2 0 0 2 2 0 0 2 2 0 0 2 2 0 0 4 2 0 0 10 2 0 0 8 2 0 0 4 2 0 0 2 4 0 0 2 2 0 0 6 2 0 0 8 2 0 0 6 2 0 0 4 2 0 0 2 2 0 0 2 2 0 0 2 2 0 0 4 2 0 0 8 2 0 0 6 2 0 0 2 2 0 0 2 4 0 0 2 2 0 0 6 2 0 0 6 2 0 0 6 2 0 0 4 2 0 0 2 4 0 0 2 2 0 0 2 2 0 0 8 2 0 0 4 2 0 0 4 2 0 0 2 2 0 0 2 4 0 0 4 2 0 0 6 2 0 0 4 2 0 0 4 4 0 0 2 4 0 0 6 2 0 0 4 2 0 0 4 2 0 0 2 2 0 0 2 2 0 0 2 2 0 0 2 2 0 0 2 2 0 0 4 2 0 0 6 2 0 0 2 2 0 0 2 4 0 0 2 2 0 0 2 2 0 0 6 2 0 0 4 2 0 0 2 6 0 0 2 2 0 0 4 2 0 0 4 2 0 0 4 4 0 0 2 2 0 0 2 2 0 0 2 2 0 0 4 2 0 0 2 2 0 0 2 2 0 0 4 2 0 0 2 2 0 0 2 4 0 0 4 2 0 0 2 2 0 0 2 2 0 0 4 2 0 0 2 2 0 0 2 4 0 0 2 2 0 0 2 2 0 0 4 2 0 0 2 2 0 0 2 2 0 0 2 4 0 0 2 2 0 0 2 2 0 0 4 2 0 0 2 2 0 0 2 2 0 0 2 4 0 0 2 2 0 0 2 2 0 0 2 2 0 0 4 2 0 0 2 4 0 0 2 2 0 0 2 2 0 0 2 4 0 0 4 2 0 0 2 2 0 0 2 4 0 0 2 2 0 0 2 2 0 0 2 4 0 0 2 2 0 0 2 2 0 0 2 2 0 0 4 4 0 0 2 2 0 0 2 6 0 0 2 2 0 0 4 2 0 0 4 4 0 0 2 6 0 0 2 2 0 0 2 2 0 0 4 2 0 0 2 2 0 0 2 6 0 0 2 4 0 0 2 2 0 0 2 2 0 0 2 2 0 0 2 2 0 0 2 2 0 0 2 4 0 0 2 6 0 0 2 4 0 0 2 2 0 0 4 2 0 0 2 2 0 0 2 4 0 0 2 6 0 0 2 4 0 0 4 2 0 0 2 4 0 0 2 2 0 0 2 4 0 0 2 8 0 0 2 4 0 0 4 2 0 0 2 2 0 0 2 2 0 0 2 6 0 0 2 6 0 0 2 6 0 0 2 2 0 0 4 2 0 0 2 2 0 0 2 6 0 0 2 8 0 0 2 6 0 0 2 2 0 0 2 2 0 0 4 4 0 0 2 6 0 0 2 8 0 0 2 6 0 0 2 2 0 0 2 2 0 0 2 2 0 0 2 2 0 0 2 6 0 0 2 12 0 0 2 6 0 0 4 2 0 0 2 2 0 0 2 6 0 0 2 8 0 0 2 12 0 0 2 4 0 0 2 2 0 0 2 2 0 0 2 4 0 0 2 4 0 0 2 8 0 0 2 16 0 0 2 4 0 0 2 2 0 0 2 4 0 0 2 4 0 0 2 4 0 0 2 14 0 0 2 16 0 0 2 6 0 0 2 2 0 0 2 4 0 0 2 4 0 0 2 6 0 0 2 18 0 0 2 26 0 0 2 8 0 0 2 2 0 0 2 4 0 0 2 8 0 0 2 10 0 0 2 30 0 0 2 179.99 0 0 -2 32 0 0 -2 10 0 0 -2 6 0 0 -2 6 0 0 -2 2 0 0 -2 6 0 0 -2 26 0 0 -2 18 0 0 -2 6 0 0 -2 6 0 0 -2 2 0 0 -2 4 0 0 -2 4 0 0 -2 18 0 0 -2 12 0 0 -2 6 0 0 -2 4 0 0 -2 2 0 0 -2 2 0 0 -2 6 0 0 -2 14 0 0 -2 10 0 0 -2 4 0 0 -2 4 0 0 -4 2 0 0 -2 6 0 0 -2 12 0 0 -2 8 0 0 -2 4 0 0 -2 4 0 0 -2 2 0 0 -4 4 0 0 -2 12 0 0 -2 6 0 0 -2 4 0 0 -2 2 0 0 -2 2 0 0 -2 2 0 0 -2 4 0 0 -2 10 0 0 -2 6 0 0 -2 4 0 0 -2 2 0 0 -4 2 0 0 -2 6 0 0 -2 6 0 0 -2 6 0 0 -2 4 0 0 -2 2 0 0 -2 2 0 0 -4 4 0 0 -2 8 0 0 -2 4 0 0 -2 4 0 0 -2 2 0 0 -2 2 0 0 -4 4 0 0 -2 8 0 0 -2 4 0 0 -2 2 0 0 -2 2 0 0 -4 2 0 0 -2 6 0 0 -2 4 0 0 -2 6 0 0 -2 2 0 0 -2 2 0 0 -2 2 0 0 -4 4 0 0 -2 6 0 0 -2 4 0 0 -2 2 0 0 -4 2 0 0 -4 6 0 0 -2 4 0 0 -2 4 0 0 -2 2 0 0 -2 2 0 0 -2 2 0 0 -2 2 0 0 -2 2 0 0 -2 4 0 0 -2 6 0 0 -2 2 0 0 -4 2 0 0 -4 4 0 0 -2 6 0 0 -2 2 0 0 -2 2 0 0 -4 2 0 0 -4 6 0 0 -2 4 0 0 -2 2 0 0 -4 2 0 0 -4 2 0 0 -2 6 0 0 -2 2 0 0 -2 2 0 0 -2 2 0 0 -4 2 0 0 -2 2 0 0 -2 4 0 0 -2 2 0 0 -2 2 0 0 -2 2 0 0 -4 2 0 0 -2 4 0 0 -2 2 0 0 -2 2 0 0 -2 2 0 0 -2 2 0 0 -4 2 0 0 -2 4 0 0 -2 2 0 0 -2 2 0 0 -2 2 0 0 -4 2 0 0 -4 4 0 0 -2 4 0 0 -2 2 0 0 -2 2 0 0 -4 2 0 0 -4 2 0 0 -2 4 0 0 -2 2 0 0 -2 2 0 0 -2 2 0 0 -6 2 0 0 -2 4 0 0 -2 4 0 0 -2 2 0 0 -4 2 0 0 -6 2 0 0 -2 4 0 0 -2 2 0 0 -2 2 0 0 -2 2 0 0 -6 2 0 0 -2 2 0 0 -4 4 0 0 -2 2 0 0 -4 2 0 0 -2 2 0 0 -4 2 0 0 -6 2 0 0 -2 4 0 0 -2 2 0 0 -2 2 0 0 -2 2 0 0 -6 2 0 0 -4 2 0 0 -2 2 0 0 -2 2 0 0 -2 2 0 0 -2 2 0 0 -4 2 0 0 -4 2 0 0 -6 2 0 0 -4 4 0 0 -2 4 0 0 -4 2 0 0 -6 2 0 0 -6 2 0 0 -2 2 0 0 -2 2 0 0 -2 2 0 0 -4 2 0 0 -2 2 0 0 -8 2 0 0 -6 2 0 0 -2 4 0 0 -2 2 0 0 -4 2 0 0 -4 2 0 0 -8 2 0 0 -6 2 0 0 -2 2 0 0 -2 2 0 0 -2 2 0 0 -2 2 0 0 -6 2 0 0 -8 2 0 0 -8 4 0 0 -2 2 0 0 -2 2 0 0 -4 2 0 0 -6 2 0 0 -10 2 0 0 -8 2 0 0 -2 2 0 0 -2 2 0 0 -2 2 0 0 -4 2 0 0 -4 2 0 0 -12 2 0 0 -10 2 0 0 -2 2 0 0 -2 2 0 0 -2 2 0 0 -4 2 0 0 -6 2 0 0 -14 2 0 0 -12 2 0 0 -2 2 0 0 -2 2 0 0 -4 2 0 0 -4 2 0 0 -8 2 0 0 -22 2 0 0 -10 2 0 0 -2 2 0 0 -4 2 0 0 -4 2 0 0 -6 2 0 0 -10 2 0 0 -30 2 0 0 -18 2 0 0 -2 2 0 0 -6 2 0 0 -6 2 0 0 -10 2 0 0 -22 2 0 0 -164.01 -2 0 0 -20 -2 0 0 -10 -2 0 0 -6 -2 0 0 -4 -2 0 0 -4 -2 0 0 -18 -2 0 0 -30 -2 0 0 -10 -2 0 0 -6 -2 0 0 -4 -2 0 0 -2 -2 0 0 -2 -2 0 0 -12 -2 0 0 -22 -2 0 0 -8 -2 0 0 -2 -2 0 0 -4 -2 0 0 -4 -2 0 0 -2 -2 0 0 -10 -2 0 0 -16 -2 0 0 -6 -2 0 0 -4 -2 0 0 -2 -2 0 0 -2 -2 0 0 -2 -2 0 0 -8 -2 0 0 -14 -2 0 0 -4 -2 0 0 -4 -2 0 0 -2 -2 0 0 -2 -2 0 0 -2 -2 0 0 -10 -2 0 0 -8 -2 0 0 -6 -2 0 0 -2 -2 0 0 -4 -4 0 0 -2 -2 0 0 -6 -2 0 0 -10 -2 0 0 -4 -2 0 0 -4 -2 0 0 -2 -2 0 0 -2 -2 0 0 -2 -2 0 0 -6 -2 0 0 -8 -2 0 0 -4 -2 0 0 -2 -2 0 0 -2 -2 0 0 -2 -2 0 0 -2 -2 0 0 -6 -2 0 0 -8 -2 0 0 -2 -2 0 0 -2 -2 0 0 -2 -2 0 0 -2 -2 0 0 -4 -2 0 0 -4 -2 0 0 -8 -2 0 0 -2 -2 0 0 -2 -2 0 0 -2 -2 0 0 -2 -4 0 0 -8 -2 0 0 -4 -2 0 0 -2 -2 0 0 -4 -2 0 0 -2 -2 0 0 -2 -2 0 0 -2 -2 0 0 -4 -2 0 0 -6 -2 0 0 -4 -4 0 0 -2 -4 0 0 -2 -2 0 0 -6 -2 0 0 -4 -2 0 0 -2 -2 0 0 -2 -4 0 0 -2 -2 0 0 -4 -2 0 0 -4 -2 0 0 -4 -2 0 0 -4 -2 0 0 -2 -2 0 0 -2 -4 0 0 -2 -2 0 0 -4 -2 0 0 -4 -2 0 0 -4 -2 0 0 -2 -4 0 0 -2 -4 0 0 -6 -2 0 0 -4 -2 0 0 -2 -4 0 0 -2 -4 0 0 -2 -2 0 0 -6 -2 0 0 -2 -2 0 0 -2 -2 0 0 -2 -4 0 0 -2 -2 0 0 -2 -2 0 0 -4 -2 0 0 -4 -2 0 0 -2 -6 0 0 -2 -2 0 0 -4 -2 0 0 -4 -2 0 0 -2 -2 0 0 -2 -6 0 0 -2 -2 0 0 -4 -2 0 0 -4 -2 0 0 -2 -4 0 0 -2 -6 0 0 -4 -2 0 0 -4 -2 0 0 -2 -2 0 0 -2 -2 0 0 -2 -6 0 0 -2 -2 0 0 -6 -2 0 0 -2 -2 0 0 -2 -6 0 0 -2 -4 0 0 -4 -2 0 0 -4 -2 0 0 -2 -4 0 0 -2 -4 0 0 -2 -4 0 0 -4 -2 0 0 -2 -2 0 0 -2 -2 0 0 -2 -4 0 0 -2 -4 0 0 -2 -4 0 0 -2 -4 0 0 -4 -2 0 0 -2 -2 0 0 -2 -2 0 0 -2 -4 0 0 -2 -6 0 0 -4 -2 0 0 -4 -2 0 0 -2 -4 0 0 -2 -6 0 0 -2 -4 0 0 -2 -2 0 0 -2 -2 0 0 -2 -2 0 0 -2 -4 0 0 -2 -2 0 0 -2 -6 0 0 -2 -6 0 0 -4 -2 0 0 -4 -4 0 0 -2 -4 0 0 -2 -6 0 0 -2 -6 0 0 -2 -2 0 0 -2 -2 0 0 -2 -2 0 0 -2 -2 0 0 -2 -4 0 0 -2 -6 0 0 -2 -6 0 0 -4 -2 0 0 -2 -4 0 0 -2 -2 0 0 -2 -4 0 0 -2 -10 0 0 -2 -4 0 0 -2 -2 0 0 -2 -2 0 0 -2 -2 0 0 -2 -4 0 0 -2 -4 0 0 -2 -10 0 0 -2 -6 0 0 -4 -2 0 0 -2 -4 0 0 -2 -2 0 0 -2 -6 0 0 -2 -10 0 0 -2 -8 0 0 -2 -2 0 0 -2 -2 0 0 -2 -2 0 0 -2 -2 0 0 -2 -6 0 0 -2 -14 0 0 -2 -8 0 0 -4 -4 0 0 -2 -2 0 0 -2 -4 0 0 -2 -8 0 0 -2 -18 0 0 -2 -6 0 0 -2 -2 0 0 -2 -2 0 0 -2 -4 0 0 -2 -4 0 0 -2 -8 0 0 -2 -22 0 0 -2 -10 0 0 -2 -2 0 0 -2 -2 0 0 -2 -4 0 0 -2 -8 0 0 -2 -12 0 0 -2 -32 0 0 -2 -12 0 0 -2 -4 0 0 -2 -6 0 0 -2 -4 0 0 -2 -12 0 0 -2 -20 0 0 -2 -165.99 0 0 2z"/>
  <path class="fil1" d="M1100.83 1096.7l-2 0 0 42 -2 0 0 16 -2 0 0 4 -4 0 0 2 -2 0 0 4 -2 0 0 6 -2 0 0 10 -2 0 0 14 -2 0 0 4 -4 0 0 2 -2 0 0 4 -2 0 0 6 -2 0 0 10 -2 0 0 4 -2 0 0 2 -4 0 0 2 -2 0 0 2 -2 0 0 4 -2 0 0 4 -2 0 0 6 -2 0 0 4 -4 0 0 2 -2 0 0 2 -2 0 0 2 -2 0 0 6 -2 0 0 4 -4 0 0 2 -4 0 0 2 -2 0 0 4 -2 0 0 4 -2 0 0 2 -2 0 0 2 -4 0 0 2 -4 0 0 4 -2 0 0 4 -2 0 0 2 -6 0 0 2 -4 0 0 2 -2 0 0 2 -2 0 0 2 -2 0 0 2 -2 0 0 2 -4 0 0 2 -6 0 0 2 -4 0 0 2 -4 0 0 2 -2 0 0 4 -2 0 0 2 -4 0 0 2 -14 0 0 2 -8 0 0 2 -4 0 0 2 -2 0 0 2 -2 0 0 2 -2 0 0 2 -6 0 0 2 -18 0 0 2 -30 0 0 2 -14 0 0 2 -8 0 0 2 -10 0 0 -2 -14 0 0 -2 -22 0 0 -2 -18 0 0 -2 -16 0 0 -2 -8 0 0 -2 -2 0 0 -2 -2 0 0 -2 -2 0 0 -2 -6 0 0 -2 -6 0 0 -2 -10 0 0 -2 -2 0 0 -2 -2 0 0 -2 -2 0 0 -2 -2 0 0 -2 -4 0 0 -2 -4 0 0 -2 -10 0 0 -2 -2 0 0 -6 -2 0 0 -2 -2 0 0 -2 -4 0 0 -2 -4 0 0 -2 -2 0 0 -4 -2 0 0 -4 -4 0 0 -2 -4 0 0 -2 -2 0 0 -2 -2 0 0 -4 -2 0 0 -4 -2 0 0 -2 -4 0 0 -2 -4 0 0 -4 -2 0 0 -6 -2 0 0 -4 -2 0 0 -4 -2 0 0 -2 -2 0 0 -2 -2 0 0 -2 -2 0 0 -4 -2 0 0 -4 -2 0 0 -4 -2 0 0 -4 -4 0 0 -2 -4 0 0 -8 -2 0 0 -10 -2 0 0 -6 -2 0 0 -4 -2 0 0 -2 -2 0 0 -2 -2 0 0 -2 -2 0 0 -8 -2 0 0 -20 -2 0 0 -10 -2 0 0 -6 -2 0 0 -2 -2 0 0 -4 -2 0 0 -2 -2 0 0 -12 -2 0 0 -112 2 0 0 -18 2 0 0 -4 2 0 0 -4 2 0 0 -4 2 0 0 -6 2 0 0 -10 2 0 0 -24 2 0 0 -6 2 0 0 -2 2 0 0 -2 2 0 0 -2 2 0 0 -4 2 0 0 -6 2 0 0 -10 2 0 0 -10 4 0 0 -2 4 0 0 -4 2 0 0 -4 2 0 0 -6 2 0 0 -2 2 0 0 -2 4 0 0 -2 2 0 0 -4 2 0 0 -2 2 0 0 -4 2 0 0 -6 4 0 0 -4 4 0 0 -2 2 0 0 -2 2 0 0 -4 2 0 0 -6 6 0 0 -2 4 0 0 -2 2 0 0 -4 2 0 0 -4 2 0 0 -2 6 0 0 -2 2 0 0 -2 2 0 0 -2 2 0 0 -2 4 0 0 -4 2 0 0 -2 4 0 0 -2 6 0 0 -2 6 0 0 -2 2 0 0 -4 2 0 0 -4 6 0 0 -2 8 0 0 -2 6 0 0 -2 6 0 0 -2 2 0 0 -2 2 0 0 -2 2 0 0 -2 10 0 0 -2 14 0 0 -2 16 0 0 -2 20 0 0 -2 14 0 0 -2 18 0 0 2 12 0 0 2 22 0 0 2 14 0 0 2 16 0 0 2 12 0 0 2 2 0 0 2 2 0 0 2 2 0 0 2 4 0 0 2 6 0 0 2 10 0 0 2 2 0 0 2 2 0 0 2 2 0 0 2 2 0 0 2 2 0 0 2 6 0 0 2 6 0 0 2 6 0 0 4 2 0 0 4 2 0 0 2 2 0 0 2 6 0 0 2 2 0 0 2 2 0 0 4 2 0 0 2 2 0 0 2 2 0 0 2 6 0 0 2 2 0 0 6 2 0 0 2 2 0 0 2 4 0 0 2 4 0 0 4 2 0 0 6 2 0 0 2 2 0 0 2 4 0 0 2 2 0 0 2 2 0 0 6 2 0 0 4 2 0 0 2 2 0 0 4 2 0 0 2 4 0 0 4 2 0 0 4 2 0 0 8 2 0 0 4 2 0 0 4 2 0 0 2 2 0 0 2 2 0 0 4 2 0 0 8 2 0 0 12 2 0 0 8 2 0 0 6 2 0 0 2 2 0 0 2 2 0 0 4 2 0 0 18 2 0 0 34 2 0 0 22 2 0 0 38 -2 0 0 18zm-241.99 -542.02l-30 0 0 2 -52 0 0 2 -16 0 0 2 -6 0 0 2 -6 0 0 2 -2 0 0 2 -2 0 0 2 -8 0 0 2 -22 0 0 2 -12 0 0 2 -6 0 0 2 -2 0 0 2 -2 0 0 2 -2 0 0 2 -8 0 0 2 -16 0 0 2 -6 0 0 2 -4 0 0 2 -2 0 0 4 -2 0 0 2 -4 0 0 2 -10 0 0 2 -6 0 0 2 -2 0 0 2 -2 0 0 2 -2 0 0 4 -4 0 0 2 -10 0 0 2 -4 0 0 2 -4 0 0 2 -2 0 0 2 -2 0 0 4 -4 0 0 2 -8 0 0 2 -2 0 0 2 -4 0 0 4 -2 0 0 4 -8 0 0 2 -6 0 0 2 -4 0 0 2 -2 0 0 2 -2 0 0 2 -2 0 0 4 -4 0 0 2 -6 0 0 2 -2 0 0 2 -2 0 0 2 -2 0 0 6 -6 0 0 2 -4 0 0 2 -2 0 0 2 -2 0 0 4 -2 0 0 2 -2 0 0 2 -6 0 0 2 -2 0 0 2 -2 0 0 2 -2 0 0 2 -2 0 0 2 -2 0 0 2 -2 0 0 2 -2 0 0 2 -2 0 0 2 -2 0 0 2 -2 0 0 2 -2 0 0 2 -2 0 0 2 -2 0 0 2 -2 0 0 2 -2 0 0 2 -2 0 0 6 -2 0 0 2 -4 0 0 2 -2 0 0 2 -2 0 0 2 -2 0 0 4 -2 0 0 4 -2 0 0 2 -4 0 0 2 -2 0 0 2 -2 0 0 2 -2 0 0 6 -2 0 0 4 -6 0 0 2 -2 0 0 2 -2 0 0 6 -2 0 0 4 -2 0 0 2 -2 0 0 2 -2 0 0 2 -2 0 0 2 -2 0 0 2 -2 0 0 4 -2 0 0 6 -2 0 0 4 -2 0 0 2 -4 0 0 2 -2 0 0 4 -2 0 0 6 -2 0 0 6 -2 0 0 8 -4 0 0 2 -2 0 0 2 -2 0 0 4 -2 0 0 6 -2 0 0 8 -2 0 0 6 -2 0 0 2 -4 0 0 4 -2 0 0 4 -2 0 0 10 -2 0 0 12 -2 0 0 6 -2 0 0 2 -2 0 0 2 -2 0 0 4 -2 0 0 4 -2 0 0 12 -2 0 0 14 -2 0 0 8 -2 0 0 2 -2 0 0 4 -2 0 0 6 -2 0 0 10 -2 0 0 24 -2 0 0 58 -2 0 0 50 2 0 0 60 2 0 0 24 2 0 0 10 2 0 0 6 2 0 0 4 2 0 0 2 2 0 0 8 2 0 0 16 2 0 0 10 2 0 0 6 2 0 0 4 2 0 0 2 2 0 0 2 2 0 0 6 2 0 0 14 2 0 0 10 2 0 0 4 2 0 0 2 2 0 0 4 4 0 0 6 2 0 0 8 2 0 0 6 2 0 0 4 2 0 0 2 2 0 0 2 2 0 0 2 2 0 0 4 2 0 0 8 2 0 0 6 2 0 0 2 2 0 0 2 2 0 0 2 2 0 0 2 2 0 0 4 2 0 0 6 2 0 0 4 2 0 0 4 4 0 0 2 4 0 0 4 2 0 0 6 2 0 0 4 2 0 0 4 4 0 0 2 2 0 0 2 2 0 0 6 2 0 0 4 2 0 0 2 2 0 0 4 2 0 0 2 4 0 0 2 2 0 0 2 2 0 0 4 2 0 0 4 2 0 0 2 2 0 0 2 6 0 0 4 2 0 0 4 2 0 0 4 4 0 0 2 4 0 0 2 2 0 0 2 2 0 0 4 2 0 0 2 2 0 0 2 2 0 0 2 4 0 0 2 4 0 0 4 2 0 0 4 2 0 0 2 4 0 0 2 4 0 0 2 2 0 0 2 2 0 0 2 2 0 0 4 4 0 0 2 2 0 0 2 4 0 0 2 4 0 0 2 4 0 0 2 2 0 0 2 2 0 0 4 4 0 0 2 6 0 0 2 4 0 0 2 2 0 0 4 2 0 0 2 2 0 0 2 4 0 0 2 4 0 0 2 4 0 0 2 4 0 0 2 2 0 0 2 2 0 0 2 2 0 0 2 4 0 0 2 8 0 0 2 6 0 0 2 2 0 0 4 4 0 0 2 2 0 0 2 6 0 0 2 10 0 0 2 4 0 0 2 2 0 0 2 2 0 0 2 4 0 0 2 2 0 0 2 6 0 0 2 12 0 0 2 10 0 0 2 2 0 0 2 2 0 0 2 2 0 0 2 4 0 0 2 8 0 0 2 12 0 0 2 12 0 0 2 2 0 0 2 4 0 0 2 4 0 0 2 8 0 0 2 18 0 0 2 54 0 0 2 34 0 0 2 10 0 0 2 2 0 0 -2 8 0 0 -2 32 0 0 -2 56 0 0 -2 16 0 0 -2 10 0 0 -2 4 0 0 -2 4 0 0 -2 2 0 0 -2 10 0 0 -2 16 0 0 -2 8 0 0 -2 4 0 0 -2 2 0 0 -2 2 0 0 -2 2 0 0 -2 8 0 0 -2 14 0 0 -2 6 0 0 -2 4 0 0 -2 2 0 0 -2 2 0 0 -2 2 0 0 -2 6 0 0 -2 10 0 0 -2 4 0 0 -2 4 0 0 -2 2 0 0 -2 2 0 0 -2 2 0 0 -2 6 0 0 -2 8 0 0 -2 4 0 0 -2 2 0 0 -2 2 0 0 -2 2 0 0 -2 2 0 0 -2 4 0 0 -2 6 0 0 -2 4 0 0 -2 2 0 0 -2 2 0 0 -4 2 0 0 -2 6 0 0 -2 6 0 0 -2 2 0 0 -2 4 0 0 -2 2 0 0 -2 2 0 0 -2 2 0 0 -2 4 0 0 -2 4 0 0 -2 4 0 0 -2 2 0 0 -4 2 0 0 -4 2 0 0 -2 6 0 0 -2 2 0 0 -2 2 0 0 -2 2 0 0 -4 2 0 0 -2 4 0 0 -2 4 0 0 -2 2 0 0 -2 2 0 0 -4 2 0 0 -4 6 0 0 -2 2 0 0 -2 2 0 0 -2 2 0 0 -6 2 0 0 -2 6 0 0 -2 2 0 0 -2 2 0 0 -4 2 0 0 -4 2 0 0 -2 4 0 0 -2 4 0 0 -2 2 0 0 -4 2 0 0 -4 2 0 0 -2 2 0 0 -2 4 0 0 -2 2 0 0 -2 2 0 0 -6 2 0 0 -4 2 0 0 -4 4 0 0 -2 2 0 0 -4 2 0 0 -2 2 0 0 -4 2 0 0 -8 2 0 0 -2 4 0 0 -2 2 0 0 -2 2 0 0 -2 2 0 0 -6 2 0 0 -4 2 0 0 -4 2 0 0 -2 2 0 0 -2 2 0 0 -2 2 0 0 -4 2 0 0 -8 2 0 0 -6 2 0 0 -2 2 0 0 -2 2 0 0 -2 2 0 0 -4 2 0 0 -4 2 0 0 -10 2 0 0 -6 2 0 0 -4 2 0 0 -2 2 0 0 -2 2 0 0 -2 2 0 0 -6 2 0 0 -18 2 0 0 -8 2 0 0 -4 2 0 0 -2 2 0 0 -2 2 0 0 -4 2 0 0 -6 2 0 0 -28 2 0 0 -12 2 0 0 -6 2 0 0 -2 2 0 0 -4 2 0 0 -6 2 0 0 -10 2 0 0 -160.01 -2 0 0 -12 -2 0 0 -8 -2 0 0 -4 -2 0 0 -2 -2 0 0 -4 -2 0 0 -14 -2 0 0 -24 -2 0 0 -8 -2 0 0 -2 -2 0 0 -4 -2 0 0 -2 -2 0 0 -2 -2 0 0 -8 -2 0 0 -16 -2 0 0 -8 -2 0 0 -2 -2 0 0 -4 -4 0 0 -4 -2 0 0 -6 -2 0 0 -10 -2 0 0 -4 -2 0 0 -4 -2 0 0 -2 -2 0 0 -2 -2 0 0 -2 -2 0 0 -6 -2 0 0 -10 -2 0 0 -4 -2 0 0 -2 -2 0 0 -2 -2 0 0 -2 -2 0 0 -2 -2 0 0 -4 -2 0 0 -6 -2 0 0 -4 -4 0 0 -2 -4 0 0 -2 -2 0 0 -8 -2 0 0 -4 -2 0 0 -2 -2 0 0 -4 -2 0 0 -2 -4 0 0 -4 -2 0 0 -4 -2 0 0 -4 -2 0 0 -4 -4 0 0 -2 -4 0 0 -2 -2 0 0 -4 -2 0 0 -4 -2 0 0 -2 -2 0 0 -2 -4 0 0 -2 -2 0 0 -2 -2 0 0 -4 -2 0 0 -4 -2 0 0 -2 -4 0 0 -2 -4 0 0 -2 -2 0 0 -6 -2 0 0 -2 -2 0 0 -2 -2 0 0 -2 -6 0 0 -4 -2 0 0 -4 -2 0 0 -2 -2 0 0 -2 -4 0 0 -2 -4 0 0 -2 -2 0 0 -4 -2 0 0 -2 -2 0 0 -2 -2 0 0 -2 -6 0 0 -2 -2 0 0 -4 -2 0 0 -4 -2 0 0 -2 -4 0 0 -2 -6 0 0 -2 -2 0 0 -2 -2 0 0 -2 -2 0 0 -2 -2 0 0 -2 -4 0 0 -2 -4 0 0 -2 -8 0 0 -2 -4 0 0 -4 -2 0 0 -4 -2 0 0 -2 -6 0 0 -2 -4 0 0 -2 -4 0 0 -2 -2 0 0 -2 -2 0 0 -2 -4 0 0 -2 -2 0 0 -2 -4 0 0 -2 -8 0 0 -2 -4 0 0 -2 -2 0 0 -2 -2 0 0 -2 -2 0 0 -2 -4 0 0 -2 -6 0 0 -2 -8 0 0 -2 -4 0 0 -4 -2 0 0 -2 -2 0 0 -2 -4 0 0 -2 -8 0 0 -2 -14 0 0 -2 -10 0 0 -4 -4 0 0 -2 -2 0 0 -2 -6 0 0 -2 -12 0 0 -2 -20 0 0 -2 -8 0 0 -2 -2 0 0 -2 -4 0 0 -2 -4 0 0 -2 -8 0 0 -2 -16 0 0 -2 -52 0 0 -2 -36 0 0 -2 -2 0 0 2 0 0.01z"/>
  <polygon class="fil2" points="844.84,822.7 820.85,822.7 820.85,824.7 812.85,824.7 812.85,826.7 810.85,826.7 810.85,828.7 808.85,828.7 808.85,830.7 806.85,830.7 806.85,832.7 796.85,832.7 796.85,834.7 782.85,834.7 782.85,836.7 776.85,836.7 776.85,838.7 772.85,838.7 772.85,840.7 770.85,840.7 770.85,842.7 768.85,842.7 768.85,846.7 762.85,846.7 762.85,848.7 756.85,848.7 756.85,850.7 752.85,850.7 752.85,852.7 750.85,852.7 750.85,854.7 748.85,854.7 748.85,858.7 746.85,858.7 746.85,860.7 740.85,860.7 740.85,862.7 738.85,862.7 738.85,864.7 736.85,864.7 736.85,866.7 734.85,866.7 734.85,870.7 732.85,870.7 732.85,872.7 730.85,872.7 730.85,874.7 726.85,874.7 726.85,876.7 724.85,876.7 724.85,878.7 722.85,878.7 722.85,880.7 720.85,880.7 720.85,884.7 718.85,884.7 718.85,886.7 716.85,886.7 716.85,888.7 712.85,888.7 712.85,890.7 710.85,890.7 710.85,894.7 708.85,894.7 708.85,898.7 706.85,898.7 706.85,902.7 704.85,902.7 704.85,904.7 700.85,904.7 700.85,906.7 698.85,906.7 698.85,908.7 696.85,908.7 696.85,912.7 694.85,912.7 694.85,918.7 692.85,918.7 692.85,924.7 688.85,924.7 688.85,928.7 686.85,928.7 686.85,930.7 684.85,930.7 684.85,932.7 682.85,932.7 682.85,940.7 680.85,940.7 680.85,950.7 678.85,950.7 678.85,958.7 676.85,958.7 676.85,960.7 674.85,960.7 674.85,962.7 672.85,962.7 672.85,964.7 670.85,964.7 670.85,970.7 668.85,970.7 668.85,982.7 666.85,982.7 666.85,1022.7 664.85,1022.7 664.85,1052.7 662.85,1052.7 662.85,1068.7 664.85,1068.7 664.85,1102.7 666.85,1102.7 666.85,1138.72 668.85,1138.72 668.85,1152.72 670.85,1152.72 670.85,1156.72 672.85,1156.72 672.85,1158.72 674.85,1158.72 674.85,1160.72 676.85,1160.72 676.85,1162.72 678.85,1162.72 678.85,1170.72 680.85,1170.72 680.85,1182.72 682.85,1182.72 682.85,1190.72 684.85,1190.72 684.85,1194.72 686.85,1194.72 686.85,1196.72 688.85,1196.72 688.85,1198.72 690.85,1198.72 690.85,1200.72 692.85,1200.72 692.85,1204.72 694.85,1204.72 694.85,1210.72 696.85,1210.72 696.85,1214.72 698.85,1214.72 698.85,1216.72 700.85,1216.72 700.85,1218.72 704.85,1218.72 704.85,1220.72 706.85,1220.72 706.85,1226.72 708.85,1226.72 708.85,1232.72 710.85,1232.72 710.85,1236.72 712.85,1236.72 712.85,1238.72 714.85,1238.72 714.85,1240.72 716.85,1240.72 716.85,1242.72 720.85,1242.72 720.85,1244.72 722.85,1244.72 722.85,1246.72 724.85,1246.72 724.85,1248.72 726.85,1248.72 726.85,1252.72 728.85,1252.72 728.85,1254.72 732.85,1254.72 732.85,1256.72 734.85,1256.72 734.85,1258.72 736.85,1258.72 736.85,1260.72 740.85,1260.72 740.85,1262.72 742.85,1262.72 742.85,1264.72 744.85,1264.72 744.85,1266.72 746.85,1266.72 746.85,1268.72 748.85,1268.72 748.85,1270.72 752.85,1270.72 752.85,1272.72 760.85,1272.72 760.85,1274.72 764.85,1274.72 764.85,1276.72 766.85,1276.72 766.85,1278.72 768.85,1278.72 768.85,1280.72 770.85,1280.72 770.85,1282.72 772.85,1282.72 772.85,1284.72 778.85,1284.72 778.85,1286.72 792.85,1286.72 792.85,1288.72 802.85,1288.72 802.85,1290.72 804.85,1290.72 804.85,1292.72 806.85,1292.72 806.85,1294.72 810.85,1294.72 810.85,1296.72 814.85,1296.72 814.85,1298.72 826.85,1298.72 826.85,1300.72 894.84,1300.72 894.84,1298.72 906.84,1298.72 906.84,1296.72 912.84,1296.72 912.84,1294.72 916.84,1294.72 916.84,1292.72 918.84,1292.72 918.84,1290.72 920.84,1290.72 920.84,1288.72 926.84,1288.72 926.84,1286.72 936.84,1286.72 936.84,1284.72 940.84,1284.72 940.84,1282.72 944.84,1282.72 944.84,1280.72 946.84,1280.72 946.84,1278.72 948.84,1278.72 948.84,1276.72 950.84,1276.72 950.84,1274.72 956.84,1274.72 956.84,1272.72 962.84,1272.72 962.84,1270.72 966.84,1270.72 966.84,1268.72 968.84,1268.72 968.84,1264.72 970.84,1264.72 970.84,1262.72 972.84,1262.72 972.84,1260.72 978.84,1260.72 978.84,1258.72 982.84,1258.72 982.84,1256.72 986.84,1256.72 986.84,1254.72 988.84,1254.72 988.84,1252.72 990.84,1252.72 990.84,1248.72 992.84,1248.72 992.84,1246.72 994.84,1246.72 994.84,1244.72 996.84,1244.72 996.84,1242.72 1000.84,1242.72 1000.84,1240.72 1002.84,1240.72 1002.84,1238.72 1004.84,1238.72 1004.84,1234.72 1006.84,1234.72 1006.84,1230.72 1008.84,1230.72 1008.84,1226.72 1010.84,1226.72 1010.84,1222.72 1012.84,1222.72 1012.84,1220.72 1014.84,1220.72 1014.84,1218.72 1018.84,1218.72 1018.84,1214.72 1020.84,1214.72 1020.84,1210.72 1022.84,1210.72 1022.84,1204.72 1024.84,1204.72 1024.84,1202.72 1028.84,1202.72 1028.84,1200.72 1030.84,1200.72 1030.84,1198.72 1032.84,1198.72 1032.84,1194.72 1034.84,1194.72 1034.84,1186.72 1036.84,1186.72 1036.84,1174.72 1038.84,1174.72 1038.84,1170.72 1042.84,1170.72 1042.84,1168.72 1044.83,1168.72 1044.83,1164.72 1046.83,1164.72 1046.83,1158.72 1048.83,1158.72 1048.83,1146.72 1050.83,1146.72 1050.83,1132.72 1052.83,1132.72 1052.83,1128.72 1054.83,1128.72 1054.83,1124.7 1056.83,1124.7 1056.83,1120.7 1058.83,1120.7 1058.83,1110.7 1060.83,1110.7 1060.83,1092.7 1062.83,1092.7 1062.83,1016.7 1060.83,1016.7 1060.83,1002.7 1058.83,1002.7 1058.83,996.7 1056.83,996.7 1056.83,992.7 1054.83,992.7 1054.83,990.7 1052.83,990.7 1052.83,984.7 1050.83,984.7 1050.83,964.7 1048.83,964.7 1048.83,954.7 1046.83,954.7 1046.83,948.7 1044.83,948.7 1044.83,946.7 1042.84,946.7 1042.84,944.7 1038.84,944.7 1038.84,938.7 1036.84,938.7 1036.84,928.7 1034.84,928.7 1034.84,922.7 1032.84,922.7 1032.84,918.7 1030.84,918.7 1030.84,916.7 1026.84,916.7 1026.84,914.7 1024.84,914.7 1024.84,910.7 1022.84,910.7 1022.84,906.7 1020.84,906.7 1020.84,902.7 1018.84,902.7 1018.84,900.7 1016.84,900.7 1016.84,896.7 1014.84,896.7 1014.84,894.7 1010.84,894.7 1010.84,890.7 1008.84,890.7 1008.84,888.7 1006.84,888.7 1006.84,882.7 1004.84,882.7 1004.84,880.7 1002.84,880.7 1002.84,878.7 998.84,878.7 998.84,876.7 994.84,876.7 994.84,874.7 992.84,874.7 992.84,870.7 990.84,870.7 990.84,866.7 986.84,866.7 986.84,864.7 982.84,864.7 982.84,862.7 980.84,862.7 980.84,860.7 976.84,860.7 976.84,856.7 974.84,856.7 974.84,854.7 972.84,854.7 972.84,852.7 968.84,852.7 968.84,850.7 964.84,850.7 964.84,848.7 956.84,848.7 956.84,846.7 952.84,846.7 952.84,844.7 950.84,844.7 950.84,840.7 948.84,840.7 948.84,838.7 944.84,838.7 944.84,836.7 938.84,836.7 938.84,834.7 924.84,834.7 924.84,832.7 912.84,832.7 912.84,828.7 910.84,828.7 910.84,826.7 906.84,826.7 906.84,824.7 900.84,824.7 900.84,822.7 876.84,822.7 876.84,820.7 844.84,820.7 "/>
 </g>
</svg>
