<?xml version="1.0" encoding="UTF-8"?>
<!DOCTYPE svg PUBLIC "-//W3C//DTD SVG 1.1//EN" "http://www.w3.org/Graphics/SVG/1.1/DTD/svg11.dtd">
<!-- Creator: CorelDRAW -->
<svg xmlns="http://www.w3.org/2000/svg" xml:space="preserve" width="7.07772in" height="1.73207in" version="1.1" style="shape-rendering:geometricPrecision; text-rendering:geometricPrecision; image-rendering:optimizeQuality; fill-rule:evenodd; clip-rule:evenodd"
viewBox="0 0 7077.72 1732.07"
 xmlns:xlink="http://www.w3.org/1999/xlink"
 xmlns:xodm="http://www.corel.com/coreldraw/odm/2003">
 <defs>
  <style type="text/css">
     <![CDATA[
    .fil0 {fill:#DE5D61}
    .fil4 {fill:#DC5C66}
    .fil3 {fill:#3A3A3A}
    .fil2 {fill:#393939}
    .fil1 {fill:#363637}

    @media (prefers-color-scheme: dark) {
      .fil3, .fil2, .fil1 {fill: white}
    }
   ]]>
  </style>
 </defs>
 <g id="Layer_x0020_1">
  <metadata id="CorelCorpID_0Corel-Layer"/>
  <g id="_2169696543632">
   <path class="fil0" d="M2781.39 1048.32l2 0 0 -66 2 0 0 -10 2 0 0 -4 2 0 0 -4 2 0 0 -6 2 0 0 -12 2 0 0 -24 2 0 0 -18 2 0 0 -4 2 0 0 -2 2 0 0 -2 2 0 0 -4 2 0 0 -8 2 0 0 -12 2 0 0 -14 2 0 0 -2 2 0 0 -2 2 0 0 -2 2 0 0 -4 2 0 0 -6 2 0 0 -12 2 0 0 -4 2 0 0 -4 4 0 0 -4 2 0 0 -2 2 0 0 -4 2 0 0 -10 2 0 0 -6 2 0 0 -2 2 0 0 -2 2 0 0 -2 2 0 0 -2 2 0 0 -6 2 0 0 -8 2 0 0 -4 2 0 0 -2 2 0 0 -2 2 0 0 -2 2 0 0 -4 2 0 0 -2 2 0 0 -4 2 0 0 -8 6 0 0 -2 2 0 0 -2 2 0 0 -4 2 0 0 -6 2 0 0 -2 2 0 0 -2 2 0 0 -2 2 0 0 -2 2 0 0 -2 2 0 0 -4 2 0 0 -4 2 0 0 -4 2 0 0 -2 2 0 0 -2 2 0 0 -2 4 0 0 -2 2 0 0 -4 2 0 0 -6 4 0 0 -2 4 0 0 -2 2 0 0 -2 2 0 0 -4 2 0 0 -4 2 0 0 -2 4 0 0 -2 4 0 0 -4 2 0 0 -6 2 0 0 -2 6 0 0 -2 2 0 0 -2 2 0 0 -2 2 0 0 -4 2 0 0 -2 2 0 0 -2 6 0 0 -2 2 0 0 -2 2 0 0 -2 2 0 0 -6 6 0 0 -2 4 0 0 -2 2 0 0 -2 2 0 0 -2 2 0 0 -2 2 0 0 -2 2 0 0 -2 4 0 0 -2 4 0 0 -2 4 0 0 -2 4 0 0 -2 2 0 0 -4 2 0 0 -2 2 0 0 -2 8 0 0 -2 4 0 0 -2 2 0 0 -2 2 0 0 -2 2 0 0 -2 2 0 0 -2 4 0 0 -2 6 0 0 -2 4 0 0 -2 2 0 0 -2 2 0 0 -2 2 0 0 -4 6 0 0 -2 8 0 0 -2 6 0 0 -2 2 0 0 -2 2 0 0 -2 2 0 0 -2 2 0 0 -2 6 0 0 -2 8 0 0 -2 6 0 0 -2 4 0 0 -2 2 0 0 -2 2 0 0 -4 8 0 0 -2 12 0 0 -2 6 0 0 -2 6 0 0 -2 2 0 0 -2 2 0 0 -2 2 0 0 -2 12 0 0 -2 16 0 0 -2 8 0 0 -2 4 0 0 -2 4 0 0 -2 2 0 0 -2 2 0 0 -2 14 0 0 -2 30 0 0 -2 12 0 0 -2 8 0 0 -2 4 0 0 -2 8 0 0 -2 14 0 0 -2 46 0 0 -2 16 0 0 2 44 0 0 2 16 0 0 2 6 0 0 2 6 0 0 2 6 0 0 2 12 0 0 2 26 0 0 2 18 0 0 2 4 0 0 2 2 0 0 2 2 0 0 2 4 0 0 2 10 0 0 2 14 0 0 2 10 0 0 2 4 0 0 2 2 0 0 2 2 0 0 2 4 0 0 2 8 0 0 2 12 0 0 2 6 0 0 2 2 0 0 2 2 0 0 2 2 0 0 2 4 0 0 2 4 0 0 2 8 0 0 2 8 0 0 2 2 0 0 2 2 0 0 2 2 0 0 2 2 0 0 2 6 0 0 2 6 0 0 2 8 0 0 2 2 0 0 4 2 0 0 2 2 0 0 2 4 0 0 2 6 0 0 2 4 0 0 4 2 0 0 2 2 0 0 2 4 0 0 2 4 0 0 2 6 0 0 2 6 0 0 4 2 0 0 2 2 0 0 2 2 0 0 2 4 0 0 2 6 0 0 2 2 0 0 4 2 0 0 2 2 0 0 2 2 0 0 2 4 0 0 2 2 0 0 2 4 0 0 4 2 0 0 2 2 0 0 2 4 0 0 2 2 0 0 2 4 0 0 2 2 0 0 2 2 0 0 2 2 0 0 2 2 0 0 2 2 0 0 2 2 0 0 2 2 0 0 2 2 0 0 2 2 0 0 2 2 0 0 2 2 0 0 2 2 0 0 4 2 0 0 2 2 0 0 2 2 0 0 2 2 0 0 2 2 0 0 2 2 0 0 2 2 0 0 4 2 0 0 2 2 0 0 4 2 0 0 2 4 0 0 2 2 0 0 2 2 0 0 4 2 0 0 4 2 0 0 2 4 0 0 2 4 0 0 4 2 0 0 6 2 0 0 2 2 0 0 2 2 0 0 2 4 0 0 2 2 0 0 8 2 0 0 4 2 0 0 2 2 0 0 4 2 0 0 2 4 0 0 4 2 0 0 2 2 0 0 6 2 0 0 4 2 0 0 2 4 0 0 2 2 0 0 2 2 0 0 10 2 0 0 8 2 0 0 4 2 0 0 2 4 0 0 2 2 0 0 4 2 0 0 8 2 0 0 8 2 0 0 4 2 0 0 2 4 0 0 2 2 0 0 6 2 0 0 10 2 0 0 10 2 0 0 6 2 0 0 2 2 0 0 2 2 0 0 2 2 0 0 4 2 0 0 18 2 0 0 10 2 0 0 8 2 0 0 2 2 0 0 4 2 0 0 2 2 0 0 10 2 0 0 34 2 0 0 18 2 0 0 16 2 0 0 14 2 0 0 10 2 0 0 8 2 0 0 70 -2 0 0 10 -2 0 0 10 -2 0 0 16 -2 0 0 12 -2 0 0 16 -2 0 0 32 -2 0 0 10 -2 0 0 2 -2 0 0 4 -2 0 0 2 -2 0 0 6 -2 0 0 10 -2 0 0 14 -2 0 0 8 -2 0 0 2 -4 0 0 4 -2 0 0 6 -2 0 0 8 -2 0 0 12 -2 0 0 6 -2 0 0 2 -2 0 0 2 -2 0 0 2 -2 0 0 4 -2 0 0 6 -2 0 0 8 -2 0 0 4 -2 0 0 2 -2 0 0 2 -2 0 0 2 -2 0 0 4 -2 0 0 6 -2 0 0 8 -2 0 0 4 -2 0 0 2 -2 0 0 2 -2 0 0 2 -2 0 0 4 -2 0 0 6 -2 0 0 4 -2 0 0 2 -4 0 0 2 -2 0 0 2 -2 0 0 4 -2 0 0 4 -2 0 0 6 -2 0 0 4 -2 0 0 2 -4 0 0 2 -2 0 0 4 -2 0 0 4 -2 0 0 4 -2 0 0 2 -4 0 0 2 -2 0 0 2 -2 0 0 2 -2 0 0 6 -2 0 0 2 -2 0 0 2 -4 0 0 2 -2 0 0 2 -2 0 0 4 -2 0 0 2 -2 0 0 4 -2 0 0 2 -4 0 0 2 -2 0 0 4 -2 0 0 2 -2 0 0 2 -2 0 0 4 -2 0 0 2 -2 0 0 2 -2 0 0 2 -2 0 0 2 -2 0 0 2 -4 0 0 4 -4 0 0 2 -2 0 0 4 -4 0 0 2 -2 0 0 2 -4 0 0 2 -4 0 0 2 -2 0 0 2 -2 0 0 4 -2 0 0 2 -2 0 0 2 -6 0 0 2 -2 0 0 2 -2 0 0 4 -2 0 0 2 -2 0 0 2 -4 0 0 2 -4 0 0 2 -4 0 0 2 -2 0 0 4 -2 0 0 2 -4 0 0 2 -6 0 0 2 -4 0 0 2 -4 0 0 2 -2 0 0 4 -2 0 0 2 -2 0 0 2 -6 0 0 2 -4 0 0 2 -4 0 0 4 -2 0 0 4 -6 0 0 2 -6 0 0 2 -6 0 0 2 -4 0 0 2 -2 0 0 2 -2 0 0 4 -6 0 0 2 -10 0 0 2 -6 0 0 2 -4 0 0 2 -2 0 0 2 -2 0 0 2 -2 0 0 2 -8 0 0 2 -10 0 0 2 -8 0 0 2 -6 0 0 2 -2 0 0 2 -2 0 0 2 -2 0 0 2 -8 0 0 2 -14 0 0 2 -8 0 0 2 -4 0 0 2 -2 0 0 2 -2 0 0 2 -2 0 0 2 -12 0 0 2 -22 0 0 2 -14 0 0 2 -6 0 0 2 -6 0 0 2 -4 0 0 2 -2 0 0 2 -16 0 0 2 -152 0 0 -2 -16 0 0 -2 -4 0 0 -2 -2 0 0 -2 -4 0 0 -2 -8 0 0 -2 -12 0 0 -2 -24 0 0 -2 -10 0 0 -2 -2 0 0 -2 -2 0 0 -2 -2 0 0 -2 -6 0 0 -2 -6 0 0 -2 -14 0 0 -2 -8 0 0 -2 -2 0 0 -2 -2 0 0 -2 -4 0 0 -2 -4 0 0 -2 -6 0 0 -2 -12 0 0 -2 -8 0 0 -2 -2 0 0 -2 -2 0 0 -4 -4 0 0 -2 -6 0 0 -2 -10 0 0 -2 -6 0 0 -2 -2 0 0 -4 -4 0 0 -2 -2 0 0 -2 -6 0 0 -2 -6 0 0 -2 -6 0 0 -4 -2 0 0 -2 -2 0 0 -2 -2 0 0 -2 -4 0 0 -2 -6 0 0 -2 -2 0 0 -2 -2 0 0 -4 -2 0 0 -2 -4 0 0 -2 -4 0 0 -2 -6 0 0 -2 -6 0 0 -4 -2 0 0 -4 -4 0 0 -2 -4 0 0 -2 -6 0 0 -4 -2 0 0 -4 -2 0 0 -2 -2 0 0 -2 -6 0 0 -2 -2 0 0 -2 -2 0 0 -4 -2 0 0 -2 -2 0 0 -2 -2 0 0 -2 -4 0 0 -2 -4 0 0 -4 -2 0 0 -2 -2 0 0 -2 -2 0 0 -2 -4 0 0 -2 -2 0 0 -2 -2 0 0 -4 -2 0 0 -2 -2 0 0 -2 -2 0 0 -2 -4 0 0 -4 -2 0 0 -2 -2 0 0 -6 -2 0 0 -2 -4 0 0 -2 -4 0 0 -2 -2 0 0 -6 -2 0 0 -4 -4 0 0 -2 -4 0 0 -2 -2 0 0 -2 -2 0 0 -6 -2 0 0 -4 -2 0 0 -2 -6 0 0 -2 -2 0 0 -8 -2 0 0 -4 -2 0 0 -4 -2 0 0 -4 -2 0 0 -2 -4 0 0 -2 -2 0 0 -2 -2 0 0 -8 -2 0 0 -4 -2 0 0 -2 -4 0 0 -2 -2 0 0 -2 -2 0 0 -8 -2 0 0 -6 -2 0 0 -4 -2 0 0 -4 -2 0 0 -2 -4 0 0 -4 -2 0 0 -8 -2 0 0 -8 -2 0 0 -6 -2 0 0 -2 -2 0 0 -2 -2 0 0 -2 -2 0 0 -4 -2 0 0 -6 -2 0 0 -12 -2 0 0 -6 -2 0 0 -4 -2 0 0 -2 -2 0 0 -2 -2 0 0 -2 -2 0 0 -14 -2 0 0 -12 -2 0 0 -8 -2 0 0 -4 -2 0 0 -2 -2 0 0 -2 -2 0 0 -4 -2 0 0 -20 -2 0 0 -22 -2 0 0 -10 -2 0 0 -6 -2 0 0 -4 -2 0 0 -2 -2 0 0 -10 -2 0 0 -72 -2 0 0 -22zm467.98 -1046.05l-20 0 0 2 -12 0 0 2 -6 0 0 2 -6 0 0 2 -2 0 0 2 -12 0 0 2 -34 0 0 2 -12 0 0 2 -6 0 0 2 -4 0 0 2 -2 0 0 2 -4 0 0 2 -10 0 0 2 -20 0 0 2 -8 0 0 2 -6 0 0 2 -2 0 0 2 -4 0 0 4 -8 0 0 2 -16 0 0 2 -8 0 0 2 -4 0 0 2 -4 0 0 4 -2 0 0 2 -8 0 0 2 -14 0 0 2 -6 0 0 2 -2 0 0 2 -4 0 0 2 -2 0 0 4 -6 0 0 2 -12 0 0 2 -6 0 0 2 -4 0 0 2 -2 0 0 2 -2 0 0 4 -8 0 0 2 -8 0 0 2 -6 0 0 2 -4 0 0 2 -2 0 0 4 -2 0 0 2 -6 0 0 2 -8 0 0 2 -6 0 0 2 -2 0 0 2 -2 0 0 2 -2 0 0 4 -6 0 0 2 -6 0 0 2 -4 0 0 2 -4 0 0 2 -2 0 0 2 -2 0 0 2 -2 0 0 2 -4 0 0 2 -8 0 0 2 -2 0 0 2 -2 0 0 2 -2 0 0 4 -4 0 0 2 -6 0 0 2 -4 0 0 2 -4 0 0 2 -4 0 0 4 -2 0 0 2 -2 0 0 2 -4 0 0 2 -6 0 0 2 -2 0 0 2 -2 0 0 2 -2 0 0 4 -4 0 0 2 -4 0 0 2 -4 0 0 2 -4 0 0 2 -2 0 0 2 -2 0 0 2 -2 0 0 2 -2 0 0 2 -2 0 0 2 -6 0 0 2 -2 0 0 2 -2 0 0 2 -2 0 0 4 -2 0 0 2 -4 0 0 2 -6 0 0 2 -2 0 0 4 -2 0 0 4 -2 0 0 2 -6 0 0 2 -2 0 0 2 -2 0 0 2 -2 0 0 4 -2 0 0 2 -4 0 0 2 -4 0 0 2 -2 0 0 2 -2 0 0 4 -2 0 0 2 -2 0 0 2 -4 0 0 2 -2 0 0 2 -2 0 0 2 -2 0 0 2 -2 0 0 2 -2 0 0 2 -2 0 0 2 -2 0 0 2 -4 0 0 4 -2 0 0 2 -2 0 0 2 -2 0 0 2 -2 0 0 2 -2 0 0 2 -2 0 0 2 -2 0 0 2 -2 0 0 4 -2 0 0 2 -2 0 0 2 -4 0 0 2 -2 0 0 2 -2 0 0 2 -2 0 0 6 -2 0 0 2 -4 0 0 2 -4 0 0 4 -2 0 0 4 -2 0 0 4 -4 0 0 2 -4 0 0 2 -2 0 0 2 -2 0 0 8 -2 0 0 2 -4 0 0 2 -4 0 0 2 -2 0 0 4 -2 0 0 6 -2 0 0 2 -2 0 0 2 -4 0 0 2 -2 0 0 4 -2 0 0 4 -2 0 0 4 -2 0 0 4 -2 0 0 2 -2 0 0 2 -4 0 0 2 -2 0 0 4 -2 0 0 6 -2 0 0 4 -4 0 0 2 -4 0 0 4 -2 0 0 6 -2 0 0 4 -2 0 0 4 -2 0 0 2 -2 0 0 2 -2 0 0 2 -2 0 0 2 -2 0 0 4 -2 0 0 8 -2 0 0 2 -2 0 0 2 -4 0 0 4 -2 0 0 2 -2 0 0 6 -2 0 0 8 -2 0 0 4 -4 0 0 2 -2 0 0 2 -2 0 0 2 -2 0 0 8 -2 0 0 6 -2 0 0 6 -4 0 0 2 -2 0 0 2 -2 0 0 4 -2 0 0 6 -2 0 0 10 -2 0 0 4 -2 0 0 2 -4 0 0 2 -2 0 0 4 -2 0 0 8 -2 0 0 12 -2 0 0 2 -2 0 0 2 -2 0 0 2 -2 0 0 2 -2 0 0 6 -2 0 0 10 -2 0 0 10 -2 0 0 4 -2 0 0 2 -2 0 0 2 -2 0 0 2 -2 0 0 6 -2 0 0 10 -2 0 0 14 -2 0 0 4 -2 0 0 2 -2 0 0 4 -2 0 0 2 -2 0 0 6 -2 0 0 16 -2 0 0 16 -2 0 0 4 -2 0 0 2 -2 0 0 2 -2 0 0 4 -2 0 0 8 -2 0 0 18 -2 0 0 24 -2 0 0 8 -2 0 0 2 -2 0 0 4 -2 0 0 8 -2 0 0 10 -2 0 0 42 -2 0 0 168.01 2 0 0 34 2 0 0 12 2 0 0 6 2 0 0 6 2 0 0 4 2 0 0 6 2 0 0 24 2 0 0 18 2 0 0 8 2 0 0 4 2 0 0 2 2 0 0 2 2 0 0 6 2 0 0 16 2 0 0 14 2 0 0 6 2 0 0 4 2 0 0 2 2 0 0 2 2 0 0 4 2 0 0 16 2 0 0 10 2 0 0 4 2 0 0 2 2 0 0 4 2 0 0 2 2 0 0 2 2 0 0 10 2 0 0 10 2 0 0 6 2 0 0 2 2 0 0 2 2 0 0 2 2 0 0 4 2 0 0 10 2 0 0 8 2 0 0 4 2 0 0 2 4 0 0 2 2 0 0 6 2 0 0 8 2 0 0 6 2 0 0 4 2 0 0 2 2 0 0 2 2 0 0 2 2 0 0 4 2 0 0 8 2 0 0 6 2 0 0 2 2 0 0 2 4 0 0 2 2 0 0 6 2 0 0 6 2 0 0 6 2 0 0 4 2 0 0 2 4 0 0 2 2 0 0 2 2 0 0 8 2 0 0 4 2 0 0 4 2 0 0 2 2 0 0 2 4 0 0 4 2 0 0 6 2 0 0 4 2 0 0 4 4 0 0 2 4 0 0 6 2 0 0 4 2 0 0 4 2 0 0 2 2 0 0 2 2 0 0 2 2 0 0 2 2 0 0 2 2 0 0 4 2 0 0 6 2 0 0 2 2 0 0 2 4 0 0 2 2 0 0 2 2 0 0 6 2 0 0 4 2 0 0 2 6 0 0 2 2 0 0 4 2 0 0 4 2 0 0 4 4 0 0 2 2 0 0 2 2 0 0 2 2 0 0 4 2 0 0 2 2 0 0 2 2 0 0 4 2 0 0 2 2 0 0 2 4 0 0 4 2 0 0 2 2 0 0 2 2 0 0 4 2 0 0 2 2 0 0 2 4 0 0 2 2 0 0 2 2 0 0 4 2 0 0 2 2 0 0 2 2 0 0 2 4 0 0 2 2 0 0 2 2 0 0 4 2 0 0 2 2 0 0 2 2 0 0 2 4 0 0 2 2 0 0 2 2 0 0 2 2 0 0 4 2 0 0 2 4 0 0 2 2 0 0 2 2 0 0 2 4 0 0 4 2 0 0 2 2 0 0 2 4 0 0 2 2 0 0 2 2 0 0 2 4 0 0 2 2 0 0 2 2 0 0 2 2 0 0 4 4 0 0 2 2 0 0 2 6 0 0 2 2 0 0 4 2 0 0 4 4 0 0 2 6 0 0 2 2 0 0 2 2 0 0 4 2 0 0 2 2 0 0 2 6 0 0 2 4 0 0 2 2 0 0 2 2 0 0 2 2 0 0 2 2 0 0 2 2 0 0 2 4 0 0 2 6 0 0 2 4 0 0 2 2 0 0 4 2 0 0 2 2 0 0 2 4 0 0 2 6 0 0 2 4 0 0 4 2 0 0 2 4 0 0 2 2 0 0 2 4 0 0 2 8 0 0 2 4 0 0 4 2 0 0 2 2 0 0 2 2 0 0 2 6 0 0 2 6 0 0 2 6 0 0 2 2 0 0 4 2 0 0 2 2 0 0 2 6 0 0 2 8 0 0 2 6 0 0 2 2 0 0 2 2 0 0 4 4 0 0 2 6 0 0 2 8 0 0 2 6 0 0 2 2 0 0 2 2 0 0 2 2 0 0 2 2 0 0 2 6 0 0 2 12 0 0 2 6 0 0 4 2 0 0 2 2 0 0 2 6 0 0 2 8 0 0 2 12 0 0 2 4 0 0 2 2 0 0 2 2 0 0 2 4 0 0 2 4 0 0 2 8 0 0 2 16 0 0 2 4 0 0 2 2 0 0 2 4 0 0 2 4 0 0 2 4 0 0 2 14 0 0 2 16 0 0 2 6 0 0 2 2 0 0 2 4 0 0 2 4 0 0 2 6 0 0 2 18 0 0 2 26 0 0 2 8 0 0 2 2 0 0 2 4 0 0 2 8 0 0 2 10 0 0 2 30 0 0 2 179.99 0 0 -2 32 0 0 -2 10 0 0 -2 6 0 0 -2 6 0 0 -2 2 0 0 -2 6 0 0 -2 26 0 0 -2 18 0 0 -2 6 0 0 -2 6 0 0 -2 2 0 0 -2 4 0 0 -2 4 0 0 -2 18 0 0 -2 12 0 0 -2 6 0 0 -2 4 0 0 -2 2 0 0 -2 2 0 0 -2 6 0 0 -2 14 0 0 -2 10 0 0 -2 4 0 0 -2 4 0 0 -4 2 0 0 -2 6 0 0 -2 12 0 0 -2 8 0 0 -2 4 0 0 -2 4 0 0 -2 2 0 0 -4 4 0 0 -2 12 0 0 -2 6 0 0 -2 4 0 0 -2 2 0 0 -2 2 0 0 -2 2 0 0 -2 4 0 0 -2 10 0 0 -2 6 0 0 -2 4 0 0 -2 2 0 0 -4 2 0 0 -2 6 0 0 -2 6 0 0 -2 6 0 0 -2 4 0 0 -2 2 0 0 -2 2 0 0 -4 4 0 0 -2 8 0 0 -2 4 0 0 -2 4 0 0 -2 2 0 0 -2 2 0 0 -4 4 0 0 -2 8 0 0 -2 4 0 0 -2 2 0 0 -2 2 0 0 -4 2 0 0 -2 6 0 0 -2 4 0 0 -2 6 0 0 -2 2 0 0 -2 2 0 0 -2 2 0 0 -4 4 0 0 -2 6 0 0 -2 4 0 0 -2 2 0 0 -4 2 0 0 -4 6 0 0 -2 4 0 0 -2 4 0 0 -2 2 0 0 -2 2 0 0 -2 2 0 0 -2 2 0 0 -2 2 0 0 -2 4 0 0 -2 6 0 0 -2 2 0 0 -4 2 0 0 -4 4 0 0 -2 6 0 0 -2 2 0 0 -2 2 0 0 -4 2 0 0 -4 6 0 0 -2 4 0 0 -2 2 0 0 -4 2 0 0 -4 2 0 0 -2 6 0 0 -2 2 0 0 -2 2 0 0 -2 2 0 0 -4 2 0 0 -2 2 0 0 -2 4 0 0 -2 2 0 0 -2 2 0 0 -2 2 0 0 -4 2 0 0 -2 4 0 0 -2 2 0 0 -2 2 0 0 -2 2 0 0 -2 2 0 0 -4 2 0 0 -2 4 0 0 -2 2 0 0 -2 2 0 0 -2 2 0 0 -4 2 0 0 -4 4 0 0 -2 4 0 0 -2 2 0 0 -2 2 0 0 -4 2 0 0 -4 2 0 0 -2 4 0 0 -2 2 0 0 -2 2 0 0 -2 2 0 0 -6 2 0 0 -2 4 0 0 -2 4 0 0 -2 2 0 0 -4 2 0 0 -6 2 0 0 -2 4 0 0 -2 2 0 0 -2 2 0 0 -2 2 0 0 -6 2 0 0 -2 2 0 0 -4 4 0 0 -2 2 0 0 -4 2 0 0 -2 2 0 0 -4 2 0 0 -6 2 0 0 -2 4 0 0 -2 2 0 0 -2 2 0 0 -2 2 0 0 -6 2 0 0 -4 2 0 0 -2 2 0 0 -2 2 0 0 -2 2 0 0 -2 2 0 0 -4 2 0 0 -4 2 0 0 -6 2 0 0 -4 4 0 0 -2 4 0 0 -4 2 0 0 -6 2 0 0 -6 2 0 0 -2 2 0 0 -2 2 0 0 -2 2 0 0 -4 2 0 0 -2 2 0 0 -8 2 0 0 -6 2 0 0 -2 4 0 0 -2 2 0 0 -4 2 0 0 -4 2 0 0 -8 2 0 0 -6 2 0 0 -2 2 0 0 -2 2 0 0 -2 2 0 0 -2 2 0 0 -6 2 0 0 -8 2 0 0 -8 4 0 0 -2 2 0 0 -2 2 0 0 -4 2 0 0 -6 2 0 0 -10 2 0 0 -8 2 0 0 -2 2 0 0 -2 2 0 0 -2 2 0 0 -4 2 0 0 -4 2 0 0 -12 2 0 0 -10 2 0 0 -2 2 0 0 -2 2 0 0 -2 2 0 0 -4 2 0 0 -6 2 0 0 -14 2 0 0 -12 2 0 0 -2 2 0 0 -2 2 0 0 -4 2 0 0 -4 2 0 0 -8 2 0 0 -22 2 0 0 -10 2 0 0 -2 2 0 0 -4 2 0 0 -4 2 0 0 -6 2 0 0 -10 2 0 0 -30 2 0 0 -18 2 0 0 -2 2 0 0 -6 2 0 0 -6 2 0 0 -10 2 0 0 -22 2 0 0 -164.01 -2 0 0 -20 -2 0 0 -10 -2 0 0 -6 -2 0 0 -4 -2 0 0 -4 -2 0 0 -18 -2 0 0 -30 -2 0 0 -10 -2 0 0 -6 -2 0 0 -4 -2 0 0 -2 -2 0 0 -2 -2 0 0 -12 -2 0 0 -22 -2 0 0 -8 -2 0 0 -2 -2 0 0 -4 -2 0 0 -4 -2 0 0 -2 -2 0 0 -10 -2 0 0 -16 -2 0 0 -6 -2 0 0 -4 -2 0 0 -2 -2 0 0 -2 -2 0 0 -2 -2 0 0 -8 -2 0 0 -14 -2 0 0 -4 -2 0 0 -4 -2 0 0 -2 -2 0 0 -2 -2 0 0 -2 -2 0 0 -10 -2 0 0 -8 -2 0 0 -6 -2 0 0 -2 -2 0 0 -4 -4 0 0 -2 -2 0 0 -6 -2 0 0 -10 -2 0 0 -4 -2 0 0 -4 -2 0 0 -2 -2 0 0 -2 -2 0 0 -2 -2 0 0 -6 -2 0 0 -8 -2 0 0 -4 -2 0 0 -2 -2 0 0 -2 -2 0 0 -2 -2 0 0 -2 -2 0 0 -6 -2 0 0 -8 -2 0 0 -2 -2 0 0 -2 -2 0 0 -2 -2 0 0 -2 -2 0 0 -4 -2 0 0 -4 -2 0 0 -8 -2 0 0 -2 -2 0 0 -2 -2 0 0 -2 -2 0 0 -2 -4 0 0 -8 -2 0 0 -4 -2 0 0 -2 -2 0 0 -4 -2 0 0 -2 -2 0 0 -2 -2 0 0 -2 -2 0 0 -4 -2 0 0 -6 -2 0 0 -4 -4 0 0 -2 -4 0 0 -2 -2 0 0 -6 -2 0 0 -4 -2 0 0 -2 -2 0 0 -2 -4 0 0 -2 -2 0 0 -4 -2 0 0 -4 -2 0 0 -4 -2 0 0 -4 -2 0 0 -2 -2 0 0 -2 -4 0 0 -2 -2 0 0 -4 -2 0 0 -4 -2 0 0 -4 -2 0 0 -2 -4 0 0 -2 -4 0 0 -6 -2 0 0 -4 -2 0 0 -2 -4 0 0 -2 -4 0 0 -2 -2 0 0 -6 -2 0 0 -2 -2 0 0 -2 -2 0 0 -2 -4 0 0 -2 -2 0 0 -2 -2 0 0 -4 -2 0 0 -4 -2 0 0 -2 -6 0 0 -2 -2 0 0 -4 -2 0 0 -4 -2 0 0 -2 -2 0 0 -2 -6 0 0 -2 -2 0 0 -4 -2 0 0 -4 -2 0 0 -2 -4 0 0 -2 -6 0 0 -4 -2 0 0 -4 -2 0 0 -2 -2 0 0 -2 -2 0 0 -2 -6 0 0 -2 -2 0 0 -6 -2 0 0 -2 -2 0 0 -2 -6 0 0 -2 -4 0 0 -4 -2 0 0 -4 -2 0 0 -2 -4 0 0 -2 -4 0 0 -2 -4 0 0 -4 -2 0 0 -2 -2 0 0 -2 -2 0 0 -2 -4 0 0 -2 -4 0 0 -2 -4 0 0 -2 -4 0 0 -4 -2 0 0 -2 -2 0 0 -2 -2 0 0 -2 -4 0 0 -2 -6 0 0 -4 -2 0 0 -4 -2 0 0 -2 -4 0 0 -2 -6 0 0 -2 -4 0 0 -2 -2 0 0 -2 -2 0 0 -2 -2 0 0 -2 -4 0 0 -2 -2 0 0 -2 -6 0 0 -2 -6 0 0 -4 -2 0 0 -4 -4 0 0 -2 -4 0 0 -2 -6 0 0 -2 -6 0 0 -2 -2 0 0 -2 -2 0 0 -2 -2 0 0 -2 -2 0 0 -2 -4 0 0 -2 -6 0 0 -2 -6 0 0 -4 -2 0 0 -2 -4 0 0 -2 -2 0 0 -2 -4 0 0 -2 -10 0 0 -2 -4 0 0 -2 -2 0 0 -2 -2 0 0 -2 -2 0 0 -2 -4 0 0 -2 -4 0 0 -2 -10 0 0 -2 -6 0 0 -4 -2 0 0 -2 -4 0 0 -2 -2 0 0 -2 -6 0 0 -2 -10 0 0 -2 -8 0 0 -2 -2 0 0 -2 -2 0 0 -2 -2 0 0 -2 -2 0 0 -2 -6 0 0 -2 -14 0 0 -2 -8 0 0 -4 -4 0 0 -2 -2 0 0 -2 -4 0 0 -2 -8 0 0 -2 -18 0 0 -2 -6 0 0 -2 -2 0 0 -2 -2 0 0 -2 -4 0 0 -2 -4 0 0 -2 -8 0 0 -2 -22 0 0 -2 -10 0 0 -2 -2 0 0 -2 -2 0 0 -2 -4 0 0 -2 -8 0 0 -2 -12 0 0 -2 -32 0 0 -2 -12 0 0 -2 -4 0 0 -2 -6 0 0 -2 -4 0 0 -2 -12 0 0 -2 -20 0 0 -2 -165.99 0 0 2z"/>
   <path class="fil1" d="M3569.35 1096.32l-2 0 0 42 -2 0 0 16 -2 0 0 4 -4 0 0 2 -2 0 0 4 -2 0 0 6 -2 0 0 10 -2 0 0 14 -2 0 0 4 -4 0 0 2 -2 0 0 4 -2 0 0 6 -2 0 0 10 -2 0 0 4 -2 0 0 2 -4 0 0 2 -2 0 0 2 -2 0 0 4 -2 0 0 4 -2 0 0 6 -2 0 0 4 -4 0 0 2 -2 0 0 2 -2 0 0 2 -2 0 0 6 -2 0 0 4 -4 0 0 2 -4 0 0 2 -2 0 0 4 -2 0 0 4 -2 0 0 2 -2 0 0 2 -4 0 0 2 -4 0 0 4 -2 0 0 4 -2 0 0 2 -6 0 0 2 -4 0 0 2 -2 0 0 2 -2 0 0 2 -2 0 0 2 -2 0 0 2 -4 0 0 2 -6 0 0 2 -4 0 0 2 -4 0 0 2 -2 0 0 4 -2 0 0 2 -4 0 0 2 -14 0 0 2 -8 0 0 2 -4 0 0 2 -2 0 0 2 -2 0 0 2 -2 0 0 2 -6 0 0 2 -18 0 0 2 -30 0 0 2 -14 0 0 2 -8 0 0 2 -10 0 0 -2 -14 0 0 -2 -22 0 0 -2 -18 0 0 -2 -16 0 0 -2 -8 0 0 -2 -2 0 0 -2 -2 0 0 -2 -2 0 0 -2 -6 0 0 -2 -6 0 0 -2 -10 0 0 -2 -2 0 0 -2 -2 0 0 -2 -2 0 0 -2 -2 0 0 -2 -4 0 0 -2 -4 0 0 -2 -10 0 0 -2 -2 0 0 -6 -2 0 0 -2 -2 0 0 -2 -4 0 0 -2 -4 0 0 -2 -2 0 0 -4 -2 0 0 -4 -4 0 0 -2 -4 0 0 -2 -2 0 0 -2 -2 0 0 -4 -2 0 0 -4 -2 0 0 -2 -4 0 0 -2 -4 0 0 -4 -2 0 0 -6 -2 0 0 -4 -2 0 0 -4 -2 0 0 -2 -2 0 0 -2 -2 0 0 -2 -2 0 0 -4 -2 0 0 -4 -2 0 0 -4 -2 0 0 -4 -4 0 0 -2 -4 0 0 -8 -2 0 0 -10 -2 0 0 -6 -2 0 0 -4 -2 0 0 -2 -2 0 0 -2 -2 0 0 -2 -2 0 0 -8 -2 0 0 -20 -2 0 0 -10 -2 0 0 -6 -2 0 0 -2 -2 0 0 -4 -2 0 0 -2 -2 0 0 -12 -2 0 0 -112 2 0 0 -18 2 0 0 -4 2 0 0 -4 2 0 0 -4 2 0 0 -6 2 0 0 -10 2 0 0 -24 2 0 0 -6 2 0 0 -2 2 0 0 -2 2 0 0 -2 2 0 0 -4 2 0 0 -6 2 0 0 -10 2 0 0 -10 4 0 0 -2 4 0 0 -4 2 0 0 -4 2 0 0 -6 2 0 0 -2 2 0 0 -2 4 0 0 -2 2 0 0 -4 2 0 0 -2 2 0 0 -4 2 0 0 -6 4 0 0 -4 4 0 0 -2 2 0 0 -2 2 0 0 -4 2 0 0 -6 6 0 0 -2 4 0 0 -2 2 0 0 -4 2 0 0 -4 2 0 0 -2 6 0 0 -2 2 0 0 -2 2 0 0 -2 2 0 0 -2 4 0 0 -4 2 0 0 -2 4 0 0 -2 6 0 0 -2 6 0 0 -2 2 0 0 -4 2 0 0 -4 6 0 0 -2 8 0 0 -2 6 0 0 -2 6 0 0 -2 2 0 0 -2 2 0 0 -2 2 0 0 -2 10 0 0 -2 14 0 0 -2 16 0 0 -2 20 0 0 -2 14 0 0 -2 18 0 0 2 12 0 0 2 22 0 0 2 14 0 0 2 16 0 0 2 12 0 0 2 2 0 0 2 2 0 0 2 2 0 0 2 4 0 0 2 6 0 0 2 10 0 0 2 2 0 0 2 2 0 0 2 2 0 0 2 2 0 0 2 2 0 0 2 6 0 0 2 6 0 0 2 6 0 0 4 2 0 0 4 2 0 0 2 2 0 0 2 6 0 0 2 2 0 0 2 2 0 0 4 2 0 0 2 2 0 0 2 2 0 0 2 6 0 0 2 2 0 0 6 2 0 0 2 2 0 0 2 4 0 0 2 4 0 0 4 2 0 0 6 2 0 0 2 2 0 0 2 4 0 0 2 2 0 0 2 2 0 0 6 2 0 0 4 2 0 0 2 2 0 0 4 2 0 0 2 4 0 0 4 2 0 0 4 2 0 0 8 2 0 0 4 2 0 0 4 2 0 0 2 2 0 0 2 2 0 0 4 2 0 0 8 2 0 0 12 2 0 0 8 2 0 0 6 2 0 0 2 2 0 0 2 2 0 0 4 2 0 0 18 2 0 0 34 2 0 0 22 2 0 0 38 -2 0 0 18zm-241.99 -542.02l-30 0 0 2 -52 0 0 2 -16 0 0 2 -6 0 0 2 -6 0 0 2 -2 0 0 2 -2 0 0 2 -8 0 0 2 -22 0 0 2 -12 0 0 2 -6 0 0 2 -2 0 0 2 -2 0 0 2 -2 0 0 2 -8 0 0 2 -16 0 0 2 -6 0 0 2 -4 0 0 2 -2 0 0 4 -2 0 0 2 -4 0 0 2 -10 0 0 2 -6 0 0 2 -2 0 0 2 -2 0 0 2 -2 0 0 4 -4 0 0 2 -10 0 0 2 -4 0 0 2 -4 0 0 2 -2 0 0 2 -2 0 0 4 -4 0 0 2 -8 0 0 2 -2 0 0 2 -4 0 0 4 -2 0 0 4 -8 0 0 2 -6 0 0 2 -4 0 0 2 -2 0 0 2 -2 0 0 2 -2 0 0 4 -4 0 0 2 -6 0 0 2 -2 0 0 2 -2 0 0 2 -2 0 0 6 -6 0 0 2 -4 0 0 2 -2 0 0 2 -2 0 0 4 -2 0 0 2 -2 0 0 2 -6 0 0 2 -2 0 0 2 -2 0 0 2 -2 0 0 2 -2 0 0 2 -2 0 0 2 -2 0 0 2 -2 0 0 2 -2 0 0 2 -2 0 0 2 -2 0 0 2 -2 0 0 2 -2 0 0 2 -2 0 0 2 -2 0 0 2 -2 0 0 2 -2 0 0 6 -2 0 0 2 -4 0 0 2 -2 0 0 2 -2 0 0 2 -2 0 0 4 -2 0 0 4 -2 0 0 2 -4 0 0 2 -2 0 0 2 -2 0 0 2 -2 0 0 6 -2 0 0 4 -6 0 0 2 -2 0 0 2 -2 0 0 6 -2 0 0 4 -2 0 0 2 -2 0 0 2 -2 0 0 2 -2 0 0 2 -2 0 0 2 -2 0 0 4 -2 0 0 6 -2 0 0 4 -2 0 0 2 -4 0 0 2 -2 0 0 4 -2 0 0 6 -2 0 0 6 -2 0 0 8 -4 0 0 2 -2 0 0 2 -2 0 0 4 -2 0 0 6 -2 0 0 8 -2 0 0 6 -2 0 0 2 -4 0 0 4 -2 0 0 4 -2 0 0 10 -2 0 0 12 -2 0 0 6 -2 0 0 2 -2 0 0 2 -2 0 0 4 -2 0 0 4 -2 0 0 12 -2 0 0 14 -2 0 0 8 -2 0 0 2 -2 0 0 4 -2 0 0 6 -2 0 0 10 -2 0 0 24 -2 0 0 58 -2 0 0 50 2 0 0 60 2 0 0 24 2 0 0 10 2 0 0 6 2 0 0 4 2 0 0 2 2 0 0 8 2 0 0 16 2 0 0 10 2 0 0 6 2 0 0 4 2 0 0 2 2 0 0 2 2 0 0 6 2 0 0 14 2 0 0 10 2 0 0 4 2 0 0 2 2 0 0 4 4 0 0 6 2 0 0 8 2 0 0 6 2 0 0 4 2 0 0 2 2 0 0 2 2 0 0 2 2 0 0 4 2 0 0 8 2 0 0 6 2 0 0 2 2 0 0 2 2 0 0 2 2 0 0 2 2 0 0 4 2 0 0 6 2 0 0 4 2 0 0 4 4 0 0 2 4 0 0 4 2 0 0 6 2 0 0 4 2 0 0 4 4 0 0 2 2 0 0 2 2 0 0 6 2 0 0 4 2 0 0 2 2 0 0 4 2 0 0 2 4 0 0 2 2 0 0 2 2 0 0 4 2 0 0 4 2 0 0 2 2 0 0 2 6 0 0 4 2 0 0 4 2 0 0 4 4 0 0 2 4 0 0 2 2 0 0 2 2 0 0 4 2 0 0 2 2 0 0 2 2 0 0 2 4 0 0 2 4 0 0 4 2 0 0 4 2 0 0 2 4 0 0 2 4 0 0 2 2 0 0 2 2 0 0 2 2 0 0 4 4 0 0 2 2 0 0 2 4 0 0 2 4 0 0 2 4 0 0 2 2 0 0 2 2 0 0 4 4 0 0 2 6 0 0 2 4 0 0 2 2 0 0 4 2 0 0 2 2 0 0 2 4 0 0 2 4 0 0 2 4 0 0 2 4 0 0 2 2 0 0 2 2 0 0 2 2 0 0 2 4 0 0 2 8 0 0 2 6 0 0 2 2 0 0 4 4 0 0 2 2 0 0 2 6 0 0 2 10 0 0 2 4 0 0 2 2 0 0 2 2 0 0 2 4 0 0 2 2 0 0 2 6 0 0 2 12 0 0 2 10 0 0 2 2 0 0 2 2 0 0 2 2 0 0 2 4 0 0 2 8 0 0 2 12 0 0 2 12 0 0 2 2 0 0 2 4 0 0 2 4 0 0 2 8 0 0 2 18 0 0 2 54 0 0 2 34 0 0 2 10 0 0 2 2 0 0 -2 8 0 0 -2 32 0 0 -2 56 0 0 -2 16 0 0 -2 10 0 0 -2 4 0 0 -2 4 0 0 -2 2 0 0 -2 10 0 0 -2 16 0 0 -2 8 0 0 -2 4 0 0 -2 2 0 0 -2 2 0 0 -2 2 0 0 -2 8 0 0 -2 14 0 0 -2 6 0 0 -2 4 0 0 -2 2 0 0 -2 2 0 0 -2 2 0 0 -2 6 0 0 -2 10 0 0 -2 4 0 0 -2 4 0 0 -2 2 0 0 -2 2 0 0 -2 2 0 0 -2 6 0 0 -2 8 0 0 -2 4 0 0 -2 2 0 0 -2 2 0 0 -2 2 0 0 -2 2 0 0 -2 4 0 0 -2 6 0 0 -2 4 0 0 -2 2 0 0 -2 2 0 0 -4 2 0 0 -2 6 0 0 -2 6 0 0 -2 2 0 0 -2 4 0 0 -2 2 0 0 -2 2 0 0 -2 2 0 0 -2 4 0 0 -2 4 0 0 -2 4 0 0 -2 2 0 0 -4 2 0 0 -4 2 0 0 -2 6 0 0 -2 2 0 0 -2 2 0 0 -2 2 0 0 -4 2 0 0 -2 4 0 0 -2 4 0 0 -2 2 0 0 -2 2 0 0 -4 2 0 0 -4 6 0 0 -2 2 0 0 -2 2 0 0 -2 2 0 0 -6 2 0 0 -2 6 0 0 -2 2 0 0 -2 2 0 0 -4 2 0 0 -4 2 0 0 -2 4 0 0 -2 4 0 0 -2 2 0 0 -4 2 0 0 -4 2 0 0 -2 2 0 0 -2 4 0 0 -2 2 0 0 -2 2 0 0 -6 2 0 0 -4 2 0 0 -4 4 0 0 -2 2 0 0 -4 2 0 0 -2 2 0 0 -4 2 0 0 -8 2 0 0 -2 4 0 0 -2 2 0 0 -2 2 0 0 -2 2 0 0 -6 2 0 0 -4 2 0 0 -4 2 0 0 -2 2 0 0 -2 2 0 0 -2 2 0 0 -4 2 0 0 -8 2 0 0 -6 2 0 0 -2 2 0 0 -2 2 0 0 -2 2 0 0 -4 2 0 0 -4 2 0 0 -10 2 0 0 -6 2 0 0 -4 2 0 0 -2 2 0 0 -2 2 0 0 -2 2 0 0 -6 2 0 0 -18 2 0 0 -8 2 0 0 -4 2 0 0 -2 2 0 0 -2 2 0 0 -4 2 0 0 -6 2 0 0 -28 2 0 0 -12 2 0 0 -6 2 0 0 -2 2 0 0 -4 2 0 0 -6 2 0 0 -10 2 0 0 -160.01 -2 0 0 -12 -2 0 0 -8 -2 0 0 -4 -2 0 0 -2 -2 0 0 -4 -2 0 0 -14 -2 0 0 -24 -2 0 0 -8 -2 0 0 -2 -2 0 0 -4 -2 0 0 -2 -2 0 0 -2 -2 0 0 -8 -2 0 0 -16 -2 0 0 -8 -2 0 0 -2 -2 0 0 -4 -4 0 0 -4 -2 0 0 -6 -2 0 0 -10 -2 0 0 -4 -2 0 0 -4 -2 0 0 -2 -2 0 0 -2 -2 0 0 -2 -2 0 0 -6 -2 0 0 -10 -2 0 0 -4 -2 0 0 -2 -2 0 0 -2 -2 0 0 -2 -2 0 0 -2 -2 0 0 -4 -2 0 0 -6 -2 0 0 -4 -4 0 0 -2 -4 0 0 -2 -2 0 0 -8 -2 0 0 -4 -2 0 0 -2 -2 0 0 -4 -2 0 0 -2 -4 0 0 -4 -2 0 0 -4 -2 0 0 -4 -2 0 0 -4 -4 0 0 -2 -4 0 0 -2 -2 0 0 -4 -2 0 0 -4 -2 0 0 -2 -2 0 0 -2 -4 0 0 -2 -2 0 0 -2 -2 0 0 -4 -2 0 0 -4 -2 0 0 -2 -4 0 0 -2 -4 0 0 -2 -2 0 0 -6 -2 0 0 -2 -2 0 0 -2 -2 0 0 -2 -6 0 0 -4 -2 0 0 -4 -2 0 0 -2 -2 0 0 -2 -4 0 0 -2 -4 0 0 -2 -2 0 0 -4 -2 0 0 -2 -2 0 0 -2 -2 0 0 -2 -6 0 0 -2 -2 0 0 -4 -2 0 0 -4 -2 0 0 -2 -4 0 0 -2 -6 0 0 -2 -2 0 0 -2 -2 0 0 -2 -2 0 0 -2 -2 0 0 -2 -4 0 0 -2 -4 0 0 -2 -8 0 0 -2 -4 0 0 -4 -2 0 0 -4 -2 0 0 -2 -6 0 0 -2 -4 0 0 -2 -4 0 0 -2 -2 0 0 -2 -2 0 0 -2 -4 0 0 -2 -2 0 0 -2 -4 0 0 -2 -8 0 0 -2 -4 0 0 -2 -2 0 0 -2 -2 0 0 -2 -2 0 0 -2 -4 0 0 -2 -6 0 0 -2 -8 0 0 -2 -4 0 0 -4 -2 0 0 -2 -2 0 0 -2 -4 0 0 -2 -8 0 0 -2 -14 0 0 -2 -10 0 0 -4 -4 0 0 -2 -2 0 0 -2 -6 0 0 -2 -12 0 0 -2 -20 0 0 -2 -8 0 0 -2 -2 0 0 -2 -4 0 0 -2 -4 0 0 -2 -8 0 0 -2 -16 0 0 -2 -52 0 0 -2 -36 0 0 -2 -2 0 0 2z"/>
   <path class="fil2" d="M5535.28 1114.32l-2 0 0 6 -2 0 0 6 -2 0 0 12 -2 0 0 16 -2 0 0 14 -2 0 0 10 -2 0 0 2 -2 0 0 2 -2 0 0 2 -2 0 0 2 -2 0 0 6 -2 0 0 10 -2 0 0 6 -2 0 0 2 -4 0 0 2 -2 0 0 2 -2 0 0 2 -2 0 0 6 -2 0 0 4 -2 0 0 2 -4 0 0 2 -2 0 0 4 -2 0 0 2 -2 0 0 4 -2 0 0 8 -4 0 0 2 -6 0 0 2 -2 0 0 2 -2 0 0 2 -4 0 0 2 -2 0 0 2 -2 0 0 2 -2 0 0 2 -4 0 0 2 -6 0 0 2 -2 0 0 2 -2 0 0 2 -2 0 0 4 -4 0 0 2 -10 0 0 2 -8 0 0 2 -4 0 0 2 -2 0 0 2 -2 0 0 4 -8 0 0 2 -14 0 0 2 -22 0 0 2 -12 0 0 2 -20 0 0 -2 -10 0 0 -2 -24 0 0 -2 -12 0 0 -2 -6 0 0 -2 -2 0 0 -4 -4 0 0 -2 -4 0 0 -2 -6 0 0 -2 -10 0 0 -2 -2 0 0 -2 -2 0 0 -4 -2 0 0 -2 -4 0 0 -2 -4 0 0 -2 -2 0 0 -2 -2 0 0 -2 -2 0 0 -2 -2 0 0 -2 -2 0 0 -2 -4 0 0 -2 -2 0 0 -2 -2 0 0 -2 -4 0 0 -4 -2 0 0 -2 -4 0 0 -4 -2 0 0 -2 -2 0 0 -2 -2 0 0 -2 -2 0 0 -4 -4 0 0 -2 -2 0 0 -2 -2 0 0 -4 -2 0 0 -6 -2 0 0 -2 -2 0 0 -2 -4 0 0 -2 -2 0 0 -2 -2 0 0 -10 -2 0 0 -8 -2 0 0 -4 -2 0 0 -2 -2 0 0 -2 -2 0 0 -2 -2 0 0 -8 -2 0 0 -12 -2 0 0 -10 -2 0 0 -6 -2 0 0 -4 -2 0 0 -4 -2 0 0 -6 -2 0 0 -18 -2 0 0 -46 2 0 0 -12 2 0 0 -4 2 0 0 -6 2 0 0 -8 2 0 0 -10 2 0 0 -12 2 0 0 -14 2 0 0 -4 2 0 0 -2 2 0 0 -2 2 0 0 -2 2 0 0 -4 2 0 0 -8 2 0 0 -8 2 0 0 -2 4 0 0 -2 2 0 0 -2 2 0 0 -2 2 0 0 -4 2 0 0 -4 2 0 0 -2 4 0 0 -2 2 0 0 -2 2 0 0 -4 2 0 0 -2 2 0 0 -4 2 0 0 -4 2 0 0 -2 2 0 0 -2 4 0 0 -2 2 0 0 -2 2 0 0 -2 2 0 0 -2 4 0 0 -2 2 0 0 -2 2 0 0 -2 2 0 0 -2 2 0 0 -2 6 0 0 -2 2 0 0 -2 2 0 0 -2 2 0 0 -4 4 0 0 -2 12 0 0 -2 8 0 0 -2 6 0 0 -2 2 0 0 -2 2 0 0 -2 2 0 0 -2 6 0 0 -2 26 0 0 -2 48 0 0 2 30 0 0 2 4 0 0 2 2 0 0 4 4 0 0 2 6 0 0 2 10 0 0 2 12 0 0 2 2 0 0 2 2 0 0 4 2 0 0 2 4 0 0 2 6 0 0 2 2 0 0 2 2 0 0 2 2 0 0 4 2 0 0 2 4 0 0 2 4 0 0 2 4 0 0 2 4 0 0 2 2 0 0 2 2 0 0 4 2 0 0 2 2 0 0 2 2 0 0 2 4 0 0 2 2 0 0 4 2 0 0 4 2 0 0 6 2 0 0 4 2 0 0 4 4 0 0 2 2 0 0 2 2 0 0 8 2 0 0 10 2 0 0 6 2 0 0 2 2 0 0 4 2 0 0 2 2 0 0 2 2 0 0 8 2 0 0 12 2 0 0 10 2 0 0 6 2 0 0 10 2 0 0 6 2 0 0 12 2 0 0 36 -2 0 0 10zm-241.99 -408.02l-16 0 0 2 -36 0 0 2 -28 0 0 2 -8 0 0 2 -4 0 0 2 -2 0 0 2 -2 0 0 2 -4 0 0 2 -8 0 0 2 -10 0 0 2 -4 0 0 2 -4 0 0 2 -2 0 0 4 -4 0 0 2 -10 0 0 2 -8 0 0 2 -4 0 0 2 -4 0 0 4 -2 0 0 2 -4 0 0 2 -8 0 0 2 -4 0 0 2 -4 0 0 2 -2 0 0 2 -2 0 0 4 -2 0 0 2 -6 0 0 2 -6 0 0 2 -2 0 0 2 -2 0 0 4 -2 0 0 2 -4 0 0 2 -4 0 0 2 -2 0 0 4 -2 0 0 2 -2 0 0 2 -2 0 0 2 -4 0 0 2 -2 0 0 2 -2 0 0 2 -2 0 0 4 -2 0 0 2 -2 0 0 2 -4 0 0 2 -2 0 0 4 -2 0 0 4 -2 0 0 4 -4 0 0 2 -4 0 0 2 -2 0 0 6 -2 0 0 4 -2 0 0 2 -4 0 0 2 -2 0 0 2 -2 0 0 2 -2 0 0 6 -2 0 0 4 -2 0 0 2 -4 0 0 2 -2 0 0 4 -2 0 0 4 -2 0 0 6 -2 0 0 6 -2 0 0 2 -2 0 0 2 -4 0 0 4 -2 0 0 4 -2 0 0 8 -2 0 0 8 -2 0 0 2 -2 0 0 2 -2 0 0 2 -2 0 0 4 -2 0 0 4 -2 0 0 12 -2 0 0 8 -2 0 0 2 -2 0 0 2 -2 0 0 2 -2 0 0 6 -2 0 0 10 -2 0 0 20 -2 0 0 14 -2 0 0 4 -2 0 0 2 -2 0 0 6 -2 0 0 8 -2 0 0 18 -2 0 0 112.01 2 0 0 20 2 0 0 8 2 0 0 6 2 0 0 4 2 0 0 4 2 0 0 12 2 0 0 20 2 0 0 10 2 0 0 4 2 0 0 2 2 0 0 2 2 0 0 4 2 0 0 8 2 0 0 10 2 0 0 6 2 0 0 2 2 0 0 4 4 0 0 2 2 0 0 6 2 0 0 10 2 0 0 6 2 0 0 2 2 0 0 2 2 0 0 2 4 0 0 4 2 0 0 8 2 0 0 4 2 0 0 2 2 0 0 2 2 0 0 2 2 0 0 2 2 0 0 6 2 0 0 4 2 0 0 4 2 0 0 2 2 0 0 2 4 0 0 2 2 0 0 4 2 0 0 6 2 0 0 2 2 0 0 2 4 0 0 2 2 0 0 2 2 0 0 6 2 0 0 2 2 0 0 2 2 0 0 2 4 0 0 2 2 0 0 2 2 0 0 4 2 0 0 2 2 0 0 2 4 0 0 2 4 0 0 4 2 0 0 4 2 0 0 2 4 0 0 2 4 0 0 2 4 0 0 4 2 0 0 4 4 0 0 2 4 0 0 2 4 0 0 2 2 0 0 2 2 0 0 4 2 0 0 2 4 0 0 2 4 0 0 2 6 0 0 2 6 0 0 4 2 0 0 2 2 0 0 2 4 0 0 2 6 0 0 2 6 0 0 2 4 0 0 2 2 0 0 2 2 0 0 2 2 0 0 2 6 0 0 2 12 0 0 2 10 0 0 2 4 0 0 2 2 0 0 2 2 0 0 2 4 0 0 2 8 0 0 2 18 0 0 2 16 0 0 2 6 0 0 2 4 0 0 2 8 0 0 2 16 0 0 2 28 0 0 -2 8 0 0 -2 6 0 0 -2 4 0 0 -2 8 0 0 -2 26 0 0 -2 22 0 0 -2 8 0 0 -2 2 0 0 -2 2 0 0 -2 2 0 0 -2 4 0 0 -2 10 0 0 -2 12 0 0 -2 6 0 0 -2 4 0 0 -2 2 0 0 -2 2 0 0 -2 2 0 0 -2 10 0 0 -2 4 0 0 -2 6 0 0 -2 2 0 0 -4 2 0 0 -2 2 0 0 -2 4 0 0 -2 6 0 0 -2 2 0 0 -2 2 0 0 -2 2 0 0 -4 4 0 0 -2 6 0 0 -2 4 0 0 -2 4 0 0 -2 2 0 0 -2 2 0 0 -2 2 0 0 -2 2 0 0 -2 2 0 0 -2 6 0 0 -2 2 0 0 -2 2 0 0 -6 2 0 0 -2 2 0 0 -2 4 0 0 -2 4 0 0 -4 2 0 0 -4 2 0 0 -2 4 0 0 78 2 0 0 12 2 0 0 2 2 0 0 2 2 0 0 2 177.99 0 0 -2 6 0 0 -2 4 0 0 -2 2 0 0 -4 2 0 0 -12 2 0 0 -712.03 -2 0 0 -6 -2 0 0 -4 -2 0 0 -4 -4 0 0 -2 -2 0 0 -2 -4 0 0 -2 -177.99 0 0 2 -2 0 0 2 -2 0 0 6 -2 0 0 10 -2 0 0 74 -4 0 0 -2 -2 0 0 -4 -2 0 0 -4 -2 0 0 -2 -6 0 0 -2 -2 0 0 -4 -2 0 0 -4 -2 0 0 -2 -2 0 0 -2 -4 0 0 -2 -4 0 0 -2 -2 0 0 -2 -2 0 0 -4 -2 0 0 -2 -4 0 0 -2 -4 0 0 -2 -6 0 0 -2 -6 0 0 -4 -2 0 0 -4 -4 0 0 -2 -4 0 0 -2 -6 0 0 -2 -2 0 0 -4 -2 0 0 -2 -2 0 0 -2 -4 0 0 -2 -6 0 0 -2 -10 0 0 -2 -2 0 0 -2 -2 0 0 -2 -2 0 0 -2 -2 0 0 -2 -6 0 0 -2 -12 0 0 -2 -10 0 0 -2 -6 0 0 -4 -2 0 0 -2 -4 0 0 -2 -6 0 0 -2 -28 0 0 -2 -40 0 0 -2 -12 0 0 -2 -10 0 0 2z"/>
   <polygon class="fil2" points="799.46,468.3 795.46,468.3 795.46,470.3 791.46,470.3 791.46,472.3 787.46,472.3 787.46,474.3 785.46,474.3 785.46,476.3 781.46,476.3 781.46,480.3 779.46,480.3 779.46,484.3 777.46,484.3 777.46,796.31 779.46,796.31 779.46,810.31 777.46,810.31 777.46,1442.34 779.46,1442.34 779.46,1454.34 781.46,1454.34 781.46,1458.34 783.46,1458.34 783.46,1460.34 785.46,1460.34 785.46,1462.34 787.46,1462.34 787.46,1464.34 793.46,1464.34 793.46,1466.34 969.46,1466.34 969.46,1464.34 973.46,1464.34 973.46,1460.34 975.46,1460.34 975.46,1454.34 977.46,1454.34 977.46,1032.32 979.46,1032.32 979.46,1016.32 981.46,1016.32 981.46,1010.32 983.46,1010.32 983.46,1004.32 985.46,1004.32 985.46,998.32 987.46,998.32 987.46,988.32 989.46,988.32 989.46,974.32 991.46,974.32 991.46,966.32 993.46,966.32 993.46,962.32 995.46,962.32 995.46,960.32 997.46,960.32 997.46,958.32 999.46,958.32 999.46,956.32 1001.46,956.32 1001.46,952.32 1003.46,952.32 1003.46,944.31 1005.46,944.31 1005.46,940.31 1007.46,940.31 1007.46,938.31 1009.46,938.31 1009.46,936.31 1011.46,936.31 1011.46,934.31 1013.46,934.31 1013.46,932.31 1015.46,932.31 1015.46,928.31 1017.46,928.31 1017.46,926.31 1019.46,926.31 1019.46,922.31 1021.46,922.31 1021.46,920.31 1023.46,920.31 1023.46,918.31 1025.46,918.31 1025.46,916.31 1027.46,916.31 1027.46,914.31 1029.45,914.31 1029.45,912.31 1033.45,912.31 1033.45,910.31 1037.45,910.31 1037.45,908.31 1041.45,908.31 1041.45,906.31 1043.45,906.31 1043.45,902.31 1045.45,902.31 1045.45,900.31 1047.45,900.31 1047.45,898.31 1053.45,898.31 1053.45,896.31 1059.45,896.31 1059.45,894.31 1061.45,894.31 1061.45,892.31 1065.45,892.31 1065.45,890.31 1067.45,890.31 1067.45,888.31 1069.45,888.31 1069.45,886.31 1073.45,886.31 1073.45,884.31 1089.45,884.31 1089.45,882.31 1109.45,882.31 1109.45,880.31 1125.45,880.31 1125.45,878.31 1153.45,878.31 1153.45,880.31 1169.45,880.31 1169.45,882.31 1189.45,882.31 1189.45,884.31 1205.45,884.31 1205.45,886.31 1209.45,886.31 1209.45,888.31 1211.45,888.31 1211.45,892.31 1215.45,892.31 1215.45,894.31 1217.45,894.31 1217.45,896.31 1223.45,896.31 1223.45,898.31 1231.44,898.31 1231.44,900.31 1233.44,900.31 1233.44,904.31 1235.44,904.31 1235.44,908.31 1239.44,908.31 1239.44,910.31 1245.44,910.31 1245.44,912.31 1247.44,912.31 1247.44,914.31 1249.44,914.31 1249.44,916.31 1251.44,916.31 1251.44,918.31 1253.44,918.31 1253.44,920.31 1255.44,920.31 1255.44,922.31 1257.44,922.31 1257.44,924.31 1259.44,924.31 1259.44,926.31 1261.44,926.31 1261.44,930.31 1263.44,930.31 1263.44,934.31 1265.44,934.31 1265.44,936.31 1267.44,936.31 1267.44,938.31 1271.44,938.31 1271.44,940.31 1273.44,940.31 1273.44,948.32 1275.44,948.32 1275.44,956.32 1277.44,956.32 1277.44,960.32 1279.44,960.32 1279.44,962.32 1281.44,962.32 1281.44,964.32 1283.44,964.32 1283.44,966.32 1285.44,966.32 1285.44,968.32 1287.44,968.32 1287.44,980.32 1289.44,980.32 1289.44,996.32 1291.44,996.32 1291.44,1014.32 1293.44,1014.32 1293.44,1028.32 1295.44,1028.32 1295.44,1038.32 1297.44,1038.32 1297.44,1046.32 1299.44,1046.32 1299.44,1452.34 1301.44,1452.34 1301.44,1460.34 1303.44,1460.34 1303.44,1462.34 1305.44,1462.34 1305.44,1464.34 1307.44,1464.34 1307.44,1466.34 1485.44,1466.34 1485.44,1464.34 1489.44,1464.34 1489.44,1462.34 1491.44,1462.34 1491.44,1458.34 1493.44,1458.34 1493.44,1452.34 1495.44,1452.34 1495.44,1446.34 1497.44,1446.34 1497.44,1026.32 1495.44,1026.32 1495.44,1020.32 1493.44,1020.32 1493.44,1006.32 1491.44,1006.32 1491.44,958.32 1489.44,958.32 1489.44,930.31 1487.44,930.31 1487.44,924.31 1485.44,924.31 1485.44,922.31 1483.44,922.31 1483.44,920.31 1481.44,920.31 1481.44,918.31 1479.44,918.31 1479.44,914.31 1477.44,914.31 1477.44,902.31 1475.44,902.31 1475.44,890.31 1473.44,890.31 1473.44,884.31 1471.44,884.31 1471.44,882.31 1469.44,882.31 1469.44,880.31 1467.44,880.31 1467.44,878.31 1465.44,878.31 1465.44,874.31 1463.44,874.31 1463.44,860.31 1461.44,860.31 1461.44,854.31 1459.44,854.31 1459.44,850.31 1457.44,850.31 1457.44,848.31 1453.44,848.31 1453.44,846.31 1451.44,846.31 1451.44,842.31 1449.44,842.31 1449.44,836.31 1447.44,836.31 1447.44,832.31 1445.44,832.31 1445.44,828.31 1443.44,828.31 1443.44,826.31 1441.44,826.31 1441.44,824.31 1437.44,824.31 1437.44,820.31 1435.44,820.31 1435.44,816.31 1433.44,816.31 1433.44,810.31 1431.44,810.31 1431.44,808.31 1429.44,808.31 1429.44,806.31 1425.44,806.31 1425.44,804.31 1423.44,804.31 1423.44,802.31 1421.44,802.31 1421.44,796.31 1419.44,796.31 1419.44,794.31 1417.44,794.31 1417.44,792.31 1415.44,792.31 1415.44,790.31 1411.44,790.31 1411.44,788.31 1409.44,788.31 1409.44,784.31 1407.44,784.31 1407.44,782.31 1405.44,782.31 1405.44,780.31 1401.44,780.31 1401.44,778.31 1395.44,778.31 1395.44,776.31 1393.44,776.31 1393.44,770.31 1391.44,770.31 1391.44,768.31 1389.44,768.31 1389.44,766.31 1383.44,766.31 1383.44,764.31 1379.44,764.31 1379.44,762.31 1377.44,762.31 1377.44,758.31 1375.44,758.31 1375.44,756.31 1373.44,756.31 1373.44,754.31 1369.44,754.31 1369.44,752.31 1365.44,752.31 1365.44,750.31 1363.44,750.31 1363.44,748.31 1359.44,748.31 1359.44,746.31 1357.44,746.31 1357.44,744.31 1355.44,744.31 1355.44,742.31 1353.44,742.31 1353.44,740.31 1349.44,740.31 1349.44,738.31 1341.44,738.31 1341.44,736.31 1333.44,736.31 1333.44,734.31 1327.44,734.31 1327.44,732.31 1325.44,732.31 1325.44,730.31 1323.44,730.31 1323.44,728.31 1321.44,728.31 1321.44,726.31 1315.44,726.31 1315.44,724.31 1305.44,724.31 1305.44,722.31 1295.44,722.31 1295.44,720.31 1293.44,720.31 1293.44,718.31 1291.44,718.31 1291.44,716.31 1289.44,716.31 1289.44,714.31 1285.44,714.31 1285.44,712.31 1275.44,712.31 1275.44,710.31 1241.44,710.31 1241.44,708.31 1215.45,708.31 1215.45,706.31 1203.45,706.31 1203.45,704.31 1201.45,704.31 1201.45,706.31 1187.45,706.31 1187.45,708.31 1149.45,708.31 1149.45,710.31 1123.45,710.31 1123.45,712.31 1117.45,712.31 1117.45,714.31 1113.45,714.31 1113.45,716.31 1111.45,716.31 1111.45,718.31 1109.45,718.31 1109.45,720.31 1107.45,720.31 1107.45,722.31 1093.45,722.31 1093.45,724.31 1079.45,724.31 1079.45,726.31 1075.45,726.31 1075.45,728.31 1071.45,728.31 1071.45,730.31 1069.45,730.31 1069.45,732.31 1067.45,732.31 1067.45,734.31 1065.45,734.31 1065.45,736.31 1057.45,736.31 1057.45,738.31 1051.45,738.31 1051.45,740.31 1049.45,740.31 1049.45,742.31 1045.45,742.31 1045.45,744.31 1043.45,744.31 1043.45,748.31 1039.45,748.31 1039.45,750.31 1035.45,750.31 1035.45,752.31 1029.45,752.31 1029.45,754.31 1025.46,754.31 1025.46,756.31 1023.46,756.31 1023.46,758.31 1021.46,758.31 1021.46,762.31 1017.46,762.31 1017.46,764.31 1013.46,764.31 1013.46,766.31 1009.46,766.31 1009.46,770.31 1007.46,770.31 1007.46,772.31 1005.46,772.31 1005.46,774.31 1003.46,774.31 1003.46,776.31 999.46,776.31 999.46,778.31 997.46,778.31 997.46,780.31 995.46,780.31 995.46,784.31 993.46,784.31 993.46,786.31 991.46,786.31 991.46,788.31 989.46,788.31 989.46,790.31 985.46,790.31 985.46,792.31 983.46,792.31 983.46,794.31 981.46,794.31 981.46,798.31 979.46,798.31 979.46,794.31 977.46,794.31 977.46,480.3 975.46,480.3 975.46,474.3 973.46,474.3 973.46,472.3 971.46,472.3 971.46,470.3 967.46,470.3 967.46,468.3 959.46,468.3 959.46,466.3 945.46,466.3 945.46,468.3 931.46,468.3 931.46,466.3 799.46,466.3 "/>
   <polygon class="fil2" points="323.48,512.3 305.48,512.3 305.48,514.3 247.48,514.3 247.48,516.3 229.49,516.3 229.49,518.3 223.49,518.3 223.49,520.3 219.49,520.3 219.49,522.3 217.49,522.3 217.49,524.3 215.49,524.3 215.49,526.3 207.49,526.3 207.49,528.3 195.49,528.3 195.49,530.3 183.49,530.3 183.49,532.3 177.49,532.3 177.49,534.3 173.49,534.3 173.49,536.3 171.49,536.3 171.49,538.3 169.49,538.3 169.49,540.3 163.49,540.3 163.49,542.3 155.49,542.3 155.49,544.3 149.49,544.3 149.49,546.3 145.49,546.3 145.49,548.3 143.49,548.3 143.49,550.3 141.49,550.3 141.49,552.3 139.49,552.3 139.49,554.3 135.49,554.3 135.49,556.3 131.49,556.3 131.49,558.3 125.49,558.3 125.49,560.3 123.49,560.3 123.49,562.3 121.49,562.3 121.49,564.3 119.49,564.3 119.49,568.3 113.49,568.3 113.49,570.3 105.49,570.3 105.49,572.3 101.49,572.3 101.49,574.3 97.49,574.3 97.49,576.3 95.49,576.3 95.49,580.3 93.49,580.3 93.49,582.3 91.49,582.3 91.49,584.3 85.49,584.3 85.49,586.3 83.49,586.3 83.49,588.3 81.49,588.3 81.49,590.3 79.49,590.3 79.49,596.3 77.49,596.3 77.49,598.3 71.49,598.3 71.49,600.3 69.49,600.3 69.49,602.3 67.49,602.3 67.49,608.3 65.49,608.3 65.49,610.3 63.49,610.3 63.49,612.3 59.49,612.3 59.49,614.3 57.49,614.3 57.49,616.3 55.49,616.3 55.49,618.3 53.49,618.3 53.49,624.3 51.49,624.3 51.49,626.3 49.49,626.3 49.49,628.3 45.49,628.3 45.49,630.3 43.49,630.3 43.49,632.3 41.49,632.3 41.49,636.3 39.49,636.3 39.49,640.3 37.49,640.3 37.49,646.3 35.49,646.3 35.49,650.3 33.5,650.3 33.5,652.3 29.5,652.3 29.5,654.3 27.5,654.3 27.5,658.3 25.5,658.3 25.5,666.3 23.5,666.3 23.5,672.3 21.5,672.3 21.5,676.3 19.5,676.3 19.5,678.3 17.5,678.3 17.5,680.3 15.5,680.3 15.5,682.31 13.5,682.31 13.5,688.31 11.5,688.31 11.5,700.31 9.5,700.31 9.5,710.31 7.5,710.31 7.5,714.31 5.5,714.31 5.5,718.31 3.5,718.31 3.5,720.31 1.5,720.31 1.5,728.31 -0.5,728.31 -0.5,744.31 -2.5,744.31 -2.5,828.31 -0.5,828.31 -0.5,840.31 1.5,840.31 1.5,846.31 3.5,846.31 3.5,850.31 5.5,850.31 5.5,854.31 7.5,854.31 7.5,858.31 9.5,858.31 9.5,872.31 11.5,872.31 11.5,884.31 13.5,884.31 13.5,890.31 15.5,890.31 15.5,892.31 17.5,892.31 17.5,894.31 19.5,894.31 19.5,896.31 21.5,896.31 21.5,898.31 23.5,898.31 23.5,904.31 25.5,904.31 25.5,910.31 27.5,910.31 27.5,914.31 29.5,914.31 29.5,916.31 31.5,916.31 31.5,918.31 33.5,918.31 33.5,920.31 35.49,920.31 35.49,922.31 37.49,922.31 37.49,926.31 39.49,926.31 39.49,930.31 41.49,930.31 41.49,934.31 43.49,934.31 43.49,936.31 47.49,936.31 47.49,938.31 49.49,938.31 49.49,940.31 51.49,940.31 51.49,942.31 53.49,942.31 53.49,946.31 55.49,946.31 55.49,948.32 57.49,948.32 57.49,950.32 59.49,950.32 59.49,952.32 63.49,952.32 63.49,954.32 65.49,954.32 65.49,956.32 67.49,956.32 67.49,960.32 69.49,960.32 69.49,962.32 71.49,962.32 71.49,964.32 73.49,964.32 73.49,966.32 77.49,966.32 77.49,968.32 79.49,968.32 79.49,970.32 81.49,970.32 81.49,974.32 83.49,974.32 83.49,976.32 85.49,976.32 85.49,978.32 87.49,978.32 87.49,980.32 93.49,980.32 93.49,982.32 95.49,982.32 95.49,984.32 97.49,984.32 97.49,986.32 99.49,986.32 99.49,988.32 101.49,988.32 101.49,990.32 103.49,990.32 103.49,992.32 107.49,992.32 107.49,994.32 113.49,994.32 113.49,996.32 119.49,996.32 119.49,998.32 121.49,998.32 121.49,1000.32 123.49,1000.32 123.49,1002.32 125.49,1002.32 125.49,1004.32 127.49,1004.32 127.49,1006.32 131.49,1006.32 131.49,1008.32 137.49,1008.32 137.49,1010.32 147.49,1010.32 147.49,1012.32 149.49,1012.32 149.49,1016.32 151.49,1016.32 151.49,1018.32 155.49,1018.32 155.49,1020.32 161.49,1020.32 161.49,1022.32 173.49,1022.32 173.49,1024.32 179.49,1024.32 179.49,1028.32 181.49,1028.32 181.49,1030.32 183.49,1030.32 183.49,1032.32 187.49,1032.32 187.49,1034.32 193.49,1034.32 193.49,1036.32 205.49,1036.32 205.49,1038.32 213.49,1038.32 213.49,1040.32 217.49,1040.32 217.49,1042.32 219.49,1042.32 219.49,1044.32 221.49,1044.32 221.49,1046.32 227.49,1046.32 227.49,1048.32 235.48,1048.32 235.48,1050.32 251.48,1050.32 251.48,1052.32 261.48,1052.32 261.48,1054.32 263.48,1054.32 263.48,1056.32 265.48,1056.32 265.48,1058.32 269.48,1058.32 269.48,1060.32 275.48,1060.32 275.48,1062.32 283.48,1062.32 283.48,1064.32 301.48,1064.32 301.48,1066.32 309.48,1066.32 309.48,1068.32 311.48,1068.32 311.48,1070.32 313.48,1070.32 313.48,1072.32 317.48,1072.32 317.48,1074.32 321.48,1074.32 321.48,1076.32 331.48,1076.32 331.48,1078.32 345.48,1078.32 345.48,1080.32 355.48,1080.32 355.48,1082.32 357.48,1082.32 357.48,1086.32 361.48,1086.32 361.48,1088.32 365.48,1088.32 365.48,1090.32 373.48,1090.32 373.48,1092.32 385.48,1092.32 385.48,1094.32 389.48,1094.32 389.48,1096.32 391.48,1096.32 391.48,1098.32 393.48,1098.32 393.48,1100.32 395.48,1100.32 395.48,1102.32 399.48,1102.32 399.48,1104.32 405.48,1104.32 405.48,1106.32 413.48,1106.32 413.48,1108.32 417.48,1108.32 417.48,1110.32 419.48,1110.32 419.48,1114.32 423.48,1114.32 423.48,1116.32 425.48,1116.32 425.48,1118.32 429.48,1118.32 429.48,1120.32 433.48,1120.32 433.48,1122.32 439.48,1122.32 439.48,1128.33 441.48,1128.33 441.48,1130.33 443.48,1130.33 443.48,1132.33 447.48,1132.33 447.48,1134.33 451.48,1134.33 451.48,1136.33 453.48,1136.33 453.48,1140.33 455.48,1140.33 455.48,1146.33 457.48,1146.33 457.48,1150.33 459.48,1150.33 459.48,1152.33 461.48,1152.33 461.48,1156.33 465.48,1156.33 465.48,1158.33 467.48,1158.33 467.48,1164.33 469.48,1164.33 469.48,1188.33 471.48,1188.33 471.48,1204.33 473.48,1204.33 473.48,1206.33 471.48,1206.33 471.48,1218.33 469.48,1218.33 469.48,1246.33 467.48,1246.33 467.48,1250.33 465.48,1250.33 465.48,1252.33 463.48,1252.33 463.48,1254.33 459.48,1254.33 459.48,1256.33 457.48,1256.33 457.48,1262.33 455.48,1262.33 455.48,1264.33 453.48,1264.33 453.48,1266.33 449.48,1266.33 449.48,1268.33 447.48,1268.33 447.48,1270.33 445.48,1270.33 445.48,1272.33 443.48,1272.33 443.48,1276.33 441.48,1276.33 441.48,1278.33 437.48,1278.33 437.48,1280.33 431.48,1280.33 431.48,1282.33 427.48,1282.33 427.48,1284.33 425.48,1284.33 425.48,1290.33 417.48,1290.33 417.48,1292.33 411.48,1292.33 411.48,1294.33 403.48,1294.33 403.48,1296.33 401.48,1296.33 401.48,1298.33 397.48,1298.33 397.48,1302.33 393.48,1302.33 393.48,1304.33 379.48,1304.33 379.48,1306.33 305.48,1306.33 305.48,1304.33 293.48,1304.33 293.48,1302.33 289.48,1302.33 289.48,1300.33 285.48,1300.33 285.48,1298.33 283.48,1298.33 283.48,1296.33 279.48,1296.33 279.48,1294.33 273.48,1294.33 273.48,1292.33 267.48,1292.33 267.48,1290.33 263.48,1290.33 263.48,1288.33 261.48,1288.33 261.48,1286.33 259.48,1286.33 259.48,1284.33 257.48,1284.33 257.48,1282.33 255.48,1282.33 255.48,1280.33 249.48,1280.33 249.48,1278.33 243.48,1278.33 243.48,1276.33 241.48,1276.33 241.48,1270.33 239.48,1270.33 239.48,1266.33 237.48,1266.33 237.48,1264.33 235.48,1264.33 235.48,1262.33 233.49,1262.33 233.49,1260.33 231.49,1260.33 231.49,1258.33 229.49,1258.33 229.49,1254.33 227.49,1254.33 227.49,1250.33 225.49,1250.33 225.49,1246.33 223.49,1246.33 223.49,1242.33 221.49,1242.33 221.49,1240.33 219.49,1240.33 219.49,1238.33 217.49,1238.33 217.49,1236.33 215.49,1236.33 215.49,1234.33 213.49,1234.33 213.49,1212.33 211.49,1212.33 211.49,1200.33 209.49,1200.33 209.49,1196.33 207.49,1196.33 207.49,1194.33 205.49,1194.33 205.49,1192.33 203.49,1192.33 203.49,1190.33 201.49,1190.33 201.49,1188.33 197.49,1188.33 197.49,1186.33 193.49,1186.33 193.49,1184.33 5.5,1184.33 5.5,1186.33 1.5,1186.33 1.5,1190.33 -0.5,1190.33 -0.5,1194.33 -2.5,1194.33 -2.5,1242.33 -0.5,1242.33 -0.5,1252.33 1.5,1252.33 1.5,1258.33 3.5,1258.33 3.5,1260.33 5.5,1260.33 5.5,1264.33 7.5,1264.33 7.5,1268.33 9.5,1268.33 9.5,1278.33 11.5,1278.33 11.5,1290.33 13.5,1290.33 13.5,1296.33 15.5,1296.33 15.5,1298.33 17.5,1298.33 17.5,1300.33 19.5,1300.33 19.5,1302.33 21.5,1302.33 21.5,1304.33 23.5,1304.33 23.5,1312.33 25.5,1312.33 25.5,1320.33 27.5,1320.33 27.5,1322.33 29.5,1322.33 29.5,1326.33 33.5,1326.33 33.5,1328.33 35.49,1328.33 35.49,1330.33 37.49,1330.33 37.49,1334.33 39.49,1334.33 39.49,1338.33 41.49,1338.33 41.49,1342.33 45.49,1342.33 45.49,1344.33 49.49,1344.33 49.49,1348.33 51.49,1348.33 51.49,1352.33 53.49,1352.33 53.49,1354.33 55.49,1354.33 55.49,1356.33 57.49,1356.33 57.49,1358.33 63.49,1358.33 63.49,1364.33 65.49,1364.33 65.49,1366.33 67.49,1366.33 67.49,1370.33 71.49,1370.33 71.49,1372.33 75.49,1372.33 75.49,1374.33 77.49,1374.33 77.49,1378.33 79.49,1378.33 79.49,1382.33 81.49,1382.33 81.49,1384.33 85.49,1384.33 85.49,1386.33 87.49,1386.33 87.49,1388.33 89.49,1388.33 89.49,1390.33 91.49,1390.33 91.49,1392.34 93.49,1392.34 93.49,1396.34 97.49,1396.34 97.49,1398.34 101.49,1398.34 101.49,1400.34 105.49,1400.34 105.49,1404.34 107.49,1404.34 107.49,1406.34 109.49,1406.34 109.49,1408.34 113.49,1408.34 113.49,1410.34 119.49,1410.34 119.49,1412.34 123.49,1412.34 123.49,1414.34 127.49,1414.34 127.49,1416.34 129.49,1416.34 129.49,1418.34 131.49,1418.34 131.49,1420.34 133.49,1420.34 133.49,1422.34 137.49,1422.34 137.49,1424.34 143.49,1424.34 143.49,1426.34 149.49,1426.34 149.49,1428.34 151.49,1428.34 151.49,1432.34 153.49,1432.34 153.49,1434.34 155.49,1434.34 155.49,1436.34 159.49,1436.34 159.49,1438.34 167.49,1438.34 167.49,1440.34 177.49,1440.34 177.49,1442.34 181.49,1442.34 181.49,1444.34 183.49,1444.34 183.49,1446.34 185.49,1446.34 185.49,1448.34 189.49,1448.34 189.49,1450.34 195.49,1450.34 195.49,1452.34 213.49,1452.34 213.49,1454.34 223.49,1454.34 223.49,1456.34 227.49,1456.34 227.49,1458.34 229.49,1458.34 229.49,1460.34 231.49,1460.34 231.49,1462.34 235.48,1462.34 235.48,1464.34 243.48,1464.34 243.48,1466.34 281.48,1466.34 281.48,1468.34 325.48,1468.34 325.48,1470.34 339.48,1470.34 339.48,1472.34 357.48,1472.34 357.48,1470.34 381.48,1470.34 381.48,1468.34 425.48,1468.34 425.48,1466.34 441.48,1466.34 441.48,1464.34 447.48,1464.34 447.48,1462.34 451.48,1462.34 451.48,1460.34 453.48,1460.34 453.48,1458.34 455.48,1458.34 455.48,1456.34 459.48,1456.34 459.48,1454.34 467.48,1454.34 467.48,1452.34 481.48,1452.34 481.48,1450.34 487.48,1450.34 487.48,1448.34 491.48,1448.34 491.48,1446.34 493.48,1446.34 493.48,1444.34 495.48,1444.34 495.48,1442.34 501.48,1442.34 501.48,1440.34 509.48,1440.34 509.48,1438.34 521.48,1438.34 521.48,1436.34 525.48,1436.34 525.48,1434.34 527.48,1434.34 527.48,1432.34 529.48,1432.34 529.48,1428.34 533.47,1428.34 533.47,1426.34 537.47,1426.34 537.47,1424.34 543.47,1424.34 543.47,1422.34 545.47,1422.34 545.47,1420.34 547.47,1420.34 547.47,1416.34 549.47,1416.34 549.47,1414.34 553.47,1414.34 553.47,1412.34 559.47,1412.34 559.47,1410.34 563.47,1410.34 563.47,1408.34 567.47,1408.34 567.47,1406.34 569.47,1406.34 569.47,1404.34 571.47,1404.34 571.47,1400.34 573.47,1400.34 573.47,1398.34 579.47,1398.34 579.47,1396.34 583.47,1396.34 583.47,1394.34 587.47,1394.34 587.47,1390.33 589.47,1390.33 589.47,1386.33 593.47,1386.33 593.47,1384.33 597.47,1384.33 597.47,1382.33 599.47,1382.33 599.47,1380.33 601.47,1380.33 601.47,1378.33 603.47,1378.33 603.47,1372.33 607.47,1372.33 607.47,1370.33 611.47,1370.33 611.47,1368.33 613.47,1368.33 613.47,1364.33 615.47,1364.33 615.47,1358.33 617.47,1358.33 617.47,1356.33 621.47,1356.33 621.47,1354.33 625.47,1354.33 625.47,1352.33 627.47,1352.33 627.47,1348.33 629.47,1348.33 629.47,1344.33 631.47,1344.33 631.47,1340.33 635.47,1340.33 635.47,1338.33 637.47,1338.33 637.47,1336.33 639.47,1336.33 639.47,1334.33 641.47,1334.33 641.47,1328.33 643.47,1328.33 643.47,1318.33 645.47,1318.33 645.47,1314.33 647.47,1314.33 647.47,1312.33 649.47,1312.33 649.47,1310.33 651.47,1310.33 651.47,1308.33 653.47,1308.33 653.47,1304.33 655.47,1304.33 655.47,1298.33 657.47,1298.33 657.47,1286.33 659.47,1286.33 659.47,1280.33 663.47,1280.33 663.47,1276.33 665.47,1276.33 665.47,1274.33 667.47,1274.33 667.47,1270.33 669.47,1270.33 669.47,1262.33 671.47,1262.33 671.47,1240.33 673.47,1240.33 673.47,1226.33 675.47,1226.33 675.47,1224.33 677.47,1224.33 677.47,1218.33 679.47,1218.33 679.47,1212.33 681.47,1212.33 681.47,1198.33 683.47,1198.33 683.47,1170.33 681.47,1170.33 681.47,1150.33 679.47,1150.33 679.47,1142.33 677.47,1142.33 677.47,1138.33 675.47,1138.33 675.47,1134.33 673.47,1134.33 673.47,1126.33 671.47,1126.33 671.47,1108.32 669.47,1108.32 669.47,1100.32 667.47,1100.32 667.47,1096.32 665.47,1096.32 665.47,1092.32 663.47,1092.32 663.47,1090.32 659.47,1090.32 659.47,1084.32 657.47,1084.32 657.47,1074.32 655.47,1074.32 655.47,1068.32 653.47,1068.32 653.47,1066.32 651.47,1066.32 651.47,1062.32 647.47,1062.32 647.47,1060.32 645.47,1060.32 645.47,1056.32 643.47,1056.32 643.47,1052.32 641.47,1052.32 641.47,1048.32 639.47,1048.32 639.47,1044.32 635.47,1044.32 635.47,1042.32 631.47,1042.32 631.47,1040.32 629.47,1040.32 629.47,1034.32 627.47,1034.32 627.47,1032.32 625.47,1032.32 625.47,1030.32 623.47,1030.32 623.47,1028.32 617.47,1028.32 617.47,1024.32 615.47,1024.32 615.47,1020.32 613.47,1020.32 613.47,1018.32 611.47,1018.32 611.47,1016.32 609.47,1016.32 609.47,1014.32 605.47,1014.32 605.47,1012.32 603.47,1012.32 603.47,1010.32 601.47,1010.32 601.47,1006.32 599.47,1006.32 599.47,1002.32 595.47,1002.32 595.47,1000.32 589.47,1000.32 589.47,998.32 587.47,998.32 587.47,994.32 585.47,994.32 585.47,992.32 583.47,992.32 583.47,990.32 579.47,990.32 579.47,988.32 573.47,988.32 573.47,986.32 569.47,986.32 569.47,984.32 565.47,984.32 565.47,982.32 563.47,982.32 563.47,980.32 561.47,980.32 561.47,978.32 559.47,978.32 559.47,976.32 557.47,976.32 557.47,974.32 549.47,974.32 549.47,972.32 545.47,972.32 545.47,970.32 543.47,970.32 543.47,968.32 541.47,968.32 541.47,966.32 539.47,966.32 539.47,964.32 537.47,964.32 537.47,962.32 533.47,962.32 533.47,960.32 523.48,960.32 523.48,958.32 515.48,958.32 515.48,956.32 513.48,956.32 513.48,954.32 511.48,954.32 511.48,952.32 509.48,952.32 509.48,950.32 505.48,950.32 505.48,948.32 501.48,948.32 501.48,946.31 491.48,946.31 491.48,944.31 481.48,944.31 481.48,942.31 479.48,942.31 479.48,940.31 477.48,940.31 477.48,938.31 475.48,938.31 475.48,936.31 471.48,936.31 471.48,934.31 465.48,934.31 465.48,932.31 451.48,932.31 451.48,930.31 443.48,930.31 443.48,928.31 441.48,928.31 441.48,926.31 437.48,926.31 437.48,924.31 435.48,924.31 435.48,922.31 431.48,922.31 431.48,920.31 425.48,920.31 425.48,918.31 409.48,918.31 409.48,916.31 403.48,916.31 403.48,914.31 399.48,914.31 399.48,912.31 397.48,912.31 397.48,910.31 395.48,910.31 395.48,908.31 391.48,908.31 391.48,906.31 383.48,906.31 383.48,904.31 367.48,904.31 367.48,902.31 357.48,902.31 357.48,900.31 353.48,900.31 353.48,898.31 351.48,898.31 351.48,896.31 349.48,896.31 349.48,894.31 343.48,894.31 343.48,892.31 335.48,892.31 335.48,890.31 323.48,890.31 323.48,888.31 313.48,888.31 313.48,886.31 311.48,886.31 311.48,884.31 309.48,884.31 309.48,882.31 307.48,882.31 307.48,880.31 303.48,880.31 303.48,878.31 297.48,878.31 297.48,876.31 285.48,876.31 285.48,874.31 281.48,874.31 281.48,872.31 279.48,872.31 279.48,870.31 277.48,870.31 277.48,868.31 275.48,868.31 275.48,866.31 271.48,866.31 271.48,864.31 267.48,864.31 267.48,862.31 257.48,862.31 257.48,860.31 253.48,860.31 253.48,856.31 251.48,856.31 251.48,852.31 247.48,852.31 247.48,850.31 243.48,850.31 243.48,848.31 239.48,848.31 239.48,846.31 235.48,846.31 235.48,842.31 233.49,842.31 233.49,840.31 231.49,840.31 231.49,838.31 229.49,838.31 229.49,836.31 227.49,836.31 227.49,834.31 225.49,834.31 225.49,830.31 223.49,830.31 223.49,826.31 221.49,826.31 221.49,824.31 219.49,824.31 219.49,822.31 215.49,822.31 215.49,820.31 213.49,820.31 213.49,810.31 211.49,810.31 211.49,802.31 209.49,802.31 209.49,792.31 207.49,792.31 207.49,780.31 205.49,780.31 205.49,774.31 207.49,774.31 207.49,770.31 209.49,770.31 209.49,762.31 211.49,762.31 211.49,746.31 213.49,746.31 213.49,732.31 215.49,732.31 215.49,728.31 219.49,728.31 219.49,726.31 221.49,726.31 221.49,724.31 223.49,724.31 223.49,720.31 225.49,720.31 225.49,716.31 227.49,716.31 227.49,710.31 229.49,710.31 229.49,706.31 233.49,706.31 233.49,704.31 239.48,704.31 239.48,702.31 243.48,702.31 243.48,700.31 247.48,700.31 247.48,698.31 249.48,698.31 249.48,696.31 251.48,696.31 251.48,692.31 255.48,692.31 255.48,690.31 261.48,690.31 261.48,688.31 269.48,688.31 269.48,686.31 281.48,686.31 281.48,684.31 287.48,684.31 287.48,682.31 293.48,682.31 293.48,680.3 297.48,680.3 297.48,678.3 305.48,678.3 305.48,676.3 331.48,676.3 331.48,678.3 341.48,678.3 341.48,680.3 345.48,680.3 345.48,682.31 351.48,682.31 351.48,684.31 361.48,684.31 361.48,686.31 371.48,686.31 371.48,688.31 381.48,688.31 381.48,690.31 387.48,690.31 387.48,692.31 389.48,692.31 389.48,694.31 391.48,694.31 391.48,696.31 393.48,696.31 393.48,698.31 397.48,698.31 397.48,700.31 399.48,700.31 399.48,702.31 407.48,702.31 407.48,704.31 413.48,704.31 413.48,708.31 415.48,708.31 415.48,712.31 417.48,712.31 417.48,714.31 419.48,714.31 419.48,716.31 425.48,716.31 425.48,720.31 427.48,720.31 427.48,724.31 429.48,724.31 429.48,728.31 431.48,728.31 431.48,730.31 435.48,730.31 435.48,732.31 439.48,732.31 439.48,738.31 441.48,738.31 441.48,746.31 443.48,746.31 443.48,754.31 445.48,754.31 445.48,760.31 447.48,760.31 447.48,762.31 449.48,762.31 449.48,766.31 451.48,766.31 451.48,768.31 453.48,768.31 453.48,774.31 455.48,774.31 455.48,780.31 457.48,780.31 457.48,782.31 459.48,782.31 459.48,784.31 463.48,784.31 463.48,786.31 655.47,786.31 655.47,784.31 663.47,784.31 663.47,782.31 665.47,782.31 665.47,780.31 667.47,780.31 667.47,778.31 669.47,778.31 669.47,748.31 667.47,748.31 667.47,736.31 665.47,736.31 665.47,732.31 663.47,732.31 663.47,728.31 661.47,728.31 661.47,726.31 659.47,726.31 659.47,718.31 657.47,718.31 657.47,706.31 655.47,706.31 655.47,696.31 653.47,696.31 653.47,692.31 651.47,692.31 651.47,690.31 649.47,690.31 649.47,688.31 647.47,688.31 647.47,686.31 645.47,686.31 645.47,680.3 643.47,680.3 643.47,668.3 641.47,668.3 641.47,662.3 639.47,662.3 639.47,660.3 637.47,660.3 637.47,658.3 635.47,658.3 635.47,656.3 633.47,656.3 633.47,654.3 631.47,654.3 631.47,652.3 629.47,652.3 629.47,644.3 627.47,644.3 627.47,640.3 625.47,640.3 625.47,638.3 623.47,638.3 623.47,634.3 621.47,634.3 621.47,632.3 617.47,632.3 617.47,628.3 615.47,628.3 615.47,624.3 613.47,624.3 613.47,622.3 611.47,622.3 611.47,618.3 609.47,618.3 609.47,616.3 607.47,616.3 607.47,614.3 603.47,614.3 603.47,612.3 601.47,612.3 601.47,610.3 599.47,610.3 599.47,608.3 597.47,608.3 597.47,604.3 595.47,604.3 595.47,602.3 591.47,602.3 591.47,600.3 589.47,600.3 589.47,598.3 587.47,598.3 587.47,596.3 585.47,596.3 585.47,594.3 583.47,594.3 583.47,592.3 581.47,592.3 581.47,590.3 579.47,590.3 579.47,588.3 577.47,588.3 577.47,586.3 573.47,586.3 573.47,584.3 571.47,584.3 571.47,582.3 567.47,582.3 567.47,578.3 565.47,578.3 565.47,576.3 561.47,576.3 561.47,574.3 559.47,574.3 559.47,572.3 555.47,572.3 555.47,570.3 549.47,570.3 549.47,568.3 545.47,568.3 545.47,564.3 543.47,564.3 543.47,560.3 539.47,560.3 539.47,558.3 535.47,558.3 535.47,556.3 529.48,556.3 529.48,554.3 525.48,554.3 525.48,552.3 523.48,552.3 523.48,550.3 521.48,550.3 521.48,548.3 519.48,548.3 519.48,546.3 515.48,546.3 515.48,544.3 507.48,544.3 507.48,542.3 497.48,542.3 497.48,540.3 491.48,540.3 491.48,538.3 489.48,538.3 489.48,536.3 487.48,536.3 487.48,534.3 485.48,534.3 485.48,532.3 479.48,532.3 479.48,530.3 471.48,530.3 471.48,528.3 457.48,528.3 457.48,526.3 449.48,526.3 449.48,524.3 447.48,524.3 447.48,522.3 443.48,522.3 443.48,520.3 439.48,520.3 439.48,518.3 431.48,518.3 431.48,516.3 413.48,516.3 413.48,514.3 371.48,514.3 371.48,512.3 343.48,512.3 343.48,510.3 323.48,510.3 "/>
   <polygon class="fil2" points="6371.24,714.31 6367.24,714.31 6367.24,716.31 6365.24,716.31 6365.24,718.31 6363.24,718.31 6363.24,720.31 6361.24,720.31 6361.24,726.31 6359.24,726.31 6359.24,1180.33 6361.24,1180.33 6361.24,1196.33 6363.24,1196.33 6363.24,1206.33 6365.24,1206.33 6365.24,1214.33 6367.24,1214.33 6367.24,1218.33 6369.24,1218.33 6369.24,1232.33 6371.24,1232.33 6371.24,1252.33 6373.24,1252.33 6373.24,1262.33 6375.24,1262.33 6375.24,1268.33 6377.24,1268.33 6377.24,1270.33 6379.24,1270.33 6379.24,1272.33 6381.24,1272.33 6381.24,1274.33 6383.24,1274.33 6383.24,1280.33 6385.24,1280.33 6385.24,1292.33 6387.24,1292.33 6387.24,1304.33 6389.24,1304.33 6389.24,1308.33 6391.24,1308.33 6391.24,1310.33 6393.24,1310.33 6393.24,1312.33 6395.24,1312.33 6395.24,1314.33 6397.24,1314.33 6397.24,1320.33 6399.24,1320.33 6399.24,1328.33 6401.24,1328.33 6401.24,1334.33 6403.24,1334.33 6403.24,1336.33 6405.24,1336.33 6405.24,1338.33 6407.24,1338.33 6407.24,1340.33 6411.24,1340.33 6411.24,1344.33 6413.24,1344.33 6413.24,1350.33 6415.24,1350.33 6415.24,1354.33 6417.24,1354.33 6417.24,1356.33 6421.24,1356.33 6421.24,1358.33 6425.24,1358.33 6425.24,1364.33 6427.24,1364.33 6427.24,1370.33 6429.24,1370.33 6429.24,1372.33 6431.24,1372.33 6431.24,1376.33 6433.24,1376.33 6433.24,1378.33 6435.24,1378.33 6435.24,1380.33 6439.24,1380.33 6439.24,1384.33 6441.24,1384.33 6441.24,1388.33 6443.24,1388.33 6443.24,1392.34 6445.24,1392.34 6445.24,1394.34 6447.24,1394.34 6447.24,1396.34 6451.24,1396.34 6451.24,1398.34 6455.24,1398.34 6455.24,1402.34 6457.24,1402.34 6457.24,1404.34 6459.24,1404.34 6459.24,1406.34 6461.24,1406.34 6461.24,1408.34 6463.24,1408.34 6463.24,1410.34 6469.24,1410.34 6469.24,1412.34 6473.24,1412.34 6473.24,1414.34 6477.24,1414.34 6477.24,1418.34 6479.24,1418.34 6479.24,1420.34 6481.24,1420.34 6481.24,1422.34 6483.24,1422.34 6483.24,1424.34 6487.24,1424.34 6487.24,1426.34 6495.24,1426.34 6495.24,1428.34 6497.24,1428.34 6497.24,1432.34 6499.24,1432.34 6499.24,1434.34 6501.24,1434.34 6501.24,1436.34 6503.24,1436.34 6503.24,1438.34 6511.24,1438.34 6511.24,1440.34 6521.24,1440.34 6521.24,1442.34 6525.24,1442.34 6525.24,1444.34 6527.24,1444.34 6527.24,1446.34 6529.24,1446.34 6529.24,1448.34 6531.24,1448.34 6531.24,1450.34 6537.24,1450.34 6537.24,1452.34 6549.24,1452.34 6549.24,1454.34 6557.24,1454.34 6557.24,1456.34 6561.24,1456.34 6561.24,1458.34 6563.24,1458.34 6563.24,1460.34 6565.24,1460.34 6565.24,1462.34 6567.24,1462.34 6567.24,1464.34 6573.24,1464.34 6573.24,1466.34 6605.23,1466.34 6605.23,1468.34 6645.23,1468.34 6645.23,1470.34 6659.23,1470.34 6659.23,1472.34 6667.23,1472.34 6667.23,1470.34 6689.23,1470.34 6689.23,1468.34 6729.23,1468.34 6729.23,1466.34 6745.23,1466.34 6745.23,1464.34 6751.23,1464.34 6751.23,1462.34 6755.23,1462.34 6755.23,1460.34 6757.23,1460.34 6757.23,1458.34 6759.23,1458.34 6759.23,1456.34 6763.23,1456.34 6763.23,1454.34 6773.23,1454.34 6773.23,1452.34 6785.23,1452.34 6785.23,1450.34 6789.22,1450.34 6789.22,1448.34 6791.22,1448.34 6791.22,1446.34 6793.22,1446.34 6793.22,1444.34 6795.22,1444.34 6795.22,1442.34 6797.22,1442.34 6797.22,1440.34 6803.22,1440.34 6803.22,1438.34 6809.22,1438.34 6809.22,1436.34 6811.22,1436.34 6811.22,1434.34 6813.22,1434.34 6813.22,1432.34 6815.22,1432.34 6815.22,1430.34 6817.22,1430.34 6817.22,1428.34 6821.22,1428.34 6821.22,1426.34 6825.22,1426.34 6825.22,1424.34 6831.22,1424.34 6831.22,1422.34 6833.22,1422.34 6833.22,1420.34 6835.22,1420.34 6835.22,1418.34 6837.22,1418.34 6837.22,1414.34 6839.22,1414.34 6839.22,1412.34 6845.22,1412.34 6845.22,1410.34 6849.22,1410.34 6849.22,1408.34 6851.22,1408.34 6851.22,1404.34 6853.22,1404.34 6853.22,1400.34 6855.22,1400.34 6855.22,1398.34 6861.22,1398.34 6861.22,1396.34 6863.22,1396.34 6863.22,1394.34 6865.22,1394.34 6865.22,1390.33 6867.22,1390.33 6867.22,1386.33 6871.22,1386.33 6871.22,1392.34 6873.22,1392.34 6873.22,1450.34 6875.22,1450.34 6875.22,1458.34 6877.22,1458.34 6877.22,1460.34 6879.22,1460.34 6879.22,1462.34 6881.22,1462.34 6881.22,1464.34 6887.22,1464.34 6887.22,1466.34 7067.22,1466.34 7067.22,1464.34 7069.22,1464.34 7069.22,1462.34 7071.22,1462.34 7071.22,1458.34 7073.22,1458.34 7073.22,1442.34 7075.22,1442.34 7075.22,1380.33 7073.22,1380.33 7073.22,1296.33 7075.22,1296.33 7075.22,1268.33 7073.22,1268.33 7073.22,1254.33 7075.22,1254.33 7075.22,1158.33 7073.22,1158.33 7073.22,1144.33 7075.22,1144.33 7075.22,1130.33 7073.22,1130.33 7073.22,1116.32 7075.22,1116.32 7075.22,734.31 7073.22,734.31 7073.22,722.31 7071.22,722.31 7071.22,718.31 7069.22,718.31 7069.22,714.31 7065.22,714.31 7065.22,712.31 6889.22,712.31 6889.22,714.31 6883.22,714.31 6883.22,716.31 6881.22,716.31 6881.22,718.31 6879.22,718.31 6879.22,720.31 6877.22,720.31 6877.22,724.31 6875.22,724.31 6875.22,730.31 6873.22,730.31 6873.22,1162.33 6871.22,1162.33 6871.22,1188.33 6869.22,1188.33 6869.22,1194.33 6867.22,1194.33 6867.22,1196.33 6865.22,1196.33 6865.22,1198.33 6863.22,1198.33 6863.22,1202.33 6861.22,1202.33 6861.22,1206.33 6859.22,1206.33 6859.22,1216.33 6857.22,1216.33 6857.22,1224.33 6855.22,1224.33 6855.22,1228.33 6853.22,1228.33 6853.22,1230.33 6851.22,1230.33 6851.22,1232.33 6849.22,1232.33 6849.22,1236.33 6847.22,1236.33 6847.22,1238.33 6845.22,1238.33 6845.22,1242.33 6843.22,1242.33 6843.22,1248.33 6841.22,1248.33 6841.22,1250.33 6839.22,1250.33 6839.22,1252.33 6835.22,1252.33 6835.22,1254.33 6833.22,1254.33 6833.22,1256.33 6831.22,1256.33 6831.22,1262.33 6829.22,1262.33 6829.22,1264.33 6825.22,1264.33 6825.22,1266.33 6821.22,1266.33 6821.22,1268.33 6819.22,1268.33 6819.22,1270.33 6817.22,1270.33 6817.22,1272.33 6815.22,1272.33 6815.22,1276.33 6813.22,1276.33 6813.22,1278.33 6805.22,1278.33 6805.22,1280.33 6799.22,1280.33 6799.22,1282.33 6795.22,1282.33 6795.22,1284.33 6793.22,1284.33 6793.22,1286.33 6791.22,1286.33 6791.22,1288.33 6789.22,1288.33 6789.22,1290.33 6787.23,1290.33 6787.23,1292.33 6773.23,1292.33 6773.23,1294.33 6763.23,1294.33 6763.23,1296.33 6757.23,1296.33 6757.23,1298.33 6751.23,1298.33 6751.23,1300.33 6747.23,1300.33 6747.23,1302.33 6745.23,1302.33 6745.23,1304.33 6727.23,1304.33 6727.23,1306.33 6705.23,1306.33 6705.23,1304.33 6689.23,1304.33 6689.23,1302.33 6685.23,1302.33 6685.23,1300.33 6681.23,1300.33 6681.23,1298.33 6677.23,1298.33 6677.23,1296.33 6671.23,1296.33 6671.23,1294.33 6661.23,1294.33 6661.23,1292.33 6647.23,1292.33 6647.23,1290.33 6643.23,1290.33 6643.23,1288.33 6641.23,1288.33 6641.23,1284.33 6639.23,1284.33 6639.23,1282.33 6635.23,1282.33 6635.23,1280.33 6629.23,1280.33 6629.23,1278.33 6623.23,1278.33 6623.23,1276.33 6617.23,1276.33 6617.23,1270.33 6615.23,1270.33 6615.23,1268.33 6613.23,1268.33 6613.23,1266.33 6609.23,1266.33 6609.23,1264.33 6605.23,1264.33 6605.23,1262.33 6603.23,1262.33 6603.23,1260.33 6601.23,1260.33 6601.23,1254.33 6599.23,1254.33 6599.23,1252.33 6597.23,1252.33 6597.23,1250.33 6593.23,1250.33 6593.23,1248.33 6589.24,1248.33 6589.24,1240.33 6587.24,1240.33 6587.24,1236.33 6585.24,1236.33 6585.24,1232.33 6583.24,1232.33 6583.24,1228.33 6581.24,1228.33 6581.24,1226.33 6579.24,1226.33 6579.24,1224.33 6577.24,1224.33 6577.24,1222.33 6575.24,1222.33 6575.24,1214.33 6573.24,1214.33 6573.24,1202.33 6571.24,1202.33 6571.24,1196.33 6569.24,1196.33 6569.24,1192.33 6567.24,1192.33 6567.24,1188.33 6565.24,1188.33 6565.24,1186.33 6563.24,1186.33 6563.24,1182.33 6561.24,1182.33 6561.24,1164.33 6559.24,1164.33 6559.24,726.31 6557.24,726.31 6557.24,720.31 6555.24,720.31 6555.24,718.31 6553.24,718.31 6553.24,716.31 6551.24,716.31 6551.24,714.31 6549.24,714.31 6549.24,712.31 6371.24,712.31 "/>
   <polygon class="fil3" points="4313.32,714.31 4309.32,714.31 4309.32,716.31 4307.32,716.31 4307.32,720.31 4305.33,720.31 4305.33,724.31 4303.33,724.31 4303.33,868.31 4305.33,868.31 4305.33,872.31 4307.32,872.31 4307.32,876.31 4309.32,876.31 4309.32,878.31 4313.32,878.31 4313.32,880.31 4325.32,880.31 4325.32,882.31 4607.31,882.31 4607.31,884.31 4611.31,884.31 4611.31,888.31 4609.31,888.31 4609.31,892.31 4607.31,892.31 4607.31,898.31 4605.31,898.31 4605.31,902.31 4601.31,902.31 4601.31,904.31 4597.31,904.31 4597.31,906.31 4595.31,906.31 4595.31,912.31 4593.31,912.31 4593.31,916.31 4591.31,916.31 4591.31,918.31 4589.31,918.31 4589.31,920.31 4585.31,920.31 4585.31,922.31 4583.31,922.31 4583.31,926.31 4581.31,926.31 4581.31,930.31 4579.31,930.31 4579.31,934.31 4577.31,934.31 4577.31,938.31 4573.31,938.31 4573.31,940.31 4571.31,940.31 4571.31,944.31 4569.31,944.31 4569.31,946.31 4567.31,946.31 4567.31,948.32 4565.31,948.32 4565.31,956.32 4563.31,956.32 4563.31,958.32 4559.31,958.32 4559.31,960.32 4555.31,960.32 4555.31,964.32 4553.31,964.32 4553.31,970.32 4551.31,970.32 4551.31,972.32 4549.31,972.32 4549.31,974.32 4547.31,974.32 4547.31,976.32 4543.31,976.32 4543.31,980.32 4541.31,980.32 4541.31,984.32 4539.31,984.32 4539.31,986.32 4537.31,986.32 4537.31,992.32 4535.31,992.32 4535.31,994.32 4533.31,994.32 4533.31,996.32 4531.31,996.32 4531.31,998.32 4529.31,998.32 4529.31,1000.32 4527.31,1000.32 4527.31,1002.32 4525.31,1002.32 4525.31,1006.32 4523.31,1006.32 4523.31,1012.32 4521.31,1012.32 4521.31,1014.32 4517.31,1014.32 4517.31,1016.32 4515.31,1016.32 4515.31,1018.32 4513.31,1018.32 4513.31,1020.32 4511.31,1020.32 4511.31,1026.32 4509.31,1026.32 4509.31,1030.32 4505.31,1030.32 4505.31,1032.32 4503.32,1032.32 4503.32,1034.32 4501.32,1034.32 4501.32,1036.32 4499.32,1036.32 4499.32,1040.32 4497.32,1040.32 4497.32,1044.32 4495.32,1044.32 4495.32,1048.32 4493.32,1048.32 4493.32,1050.32 4491.32,1050.32 4491.32,1052.32 4489.32,1052.32 4489.32,1054.32 4487.32,1054.32 4487.32,1056.32 4485.32,1056.32 4485.32,1058.32 4483.32,1058.32 4483.32,1064.32 4481.32,1064.32 4481.32,1068.32 4479.32,1068.32 4479.32,1070.32 4475.32,1070.32 4475.32,1072.32 4473.32,1072.32 4473.32,1074.32 4471.32,1074.32 4471.32,1078.32 4469.32,1078.32 4469.32,1082.32 4467.32,1082.32 4467.32,1086.32 4463.32,1086.32 4463.32,1088.32 4461.32,1088.32 4461.32,1090.32 4459.32,1090.32 4459.32,1092.32 4457.32,1092.32 4457.32,1096.32 4455.32,1096.32 4455.32,1100.32 4453.32,1100.32 4453.32,1104.32 4451.32,1104.32 4451.32,1106.32 4449.32,1106.32 4449.32,1108.32 4447.32,1108.32 4447.32,1110.32 4445.32,1110.32 4445.32,1112.32 4443.32,1112.32 4443.32,1114.32 4441.32,1114.32 4441.32,1120.32 4439.32,1120.32 4439.32,1124.32 4437.32,1124.32 4437.32,1126.33 4433.32,1126.33 4433.32,1128.33 4431.32,1128.33 4431.32,1130.33 4429.32,1130.33 4429.32,1134.33 4427.32,1134.33 4427.32,1138.33 4425.32,1138.33 4425.32,1142.33 4421.32,1142.33 4421.32,1144.33 4419.32,1144.33 4419.32,1146.33 4417.32,1146.33 4417.32,1150.33 4415.32,1150.33 4415.32,1152.33 4413.32,1152.33 4413.32,1156.33 4411.32,1156.33 4411.32,1162.33 4409.32,1162.33 4409.32,1164.33 4407.32,1164.33 4407.32,1166.33 4403.32,1166.33 4403.32,1168.33 4401.32,1168.33 4401.32,1172.33 4399.32,1172.33 4399.32,1178.33 4397.32,1178.33 4397.32,1180.33 4395.32,1180.33 4395.32,1182.33 4391.32,1182.33 4391.32,1184.33 4389.32,1184.33 4389.32,1186.33 4387.32,1186.33 4387.32,1192.33 4385.32,1192.33 4385.32,1196.33 4383.32,1196.33 4383.32,1198.33 4379.32,1198.33 4379.32,1200.33 4377.32,1200.33 4377.32,1202.33 4375.32,1202.33 4375.32,1206.33 4373.32,1206.33 4373.32,1210.33 4371.32,1210.33 4371.32,1214.33 4369.32,1214.33 4369.32,1220.33 4365.32,1220.33 4365.32,1222.33 4361.32,1222.33 4361.32,1224.33 4359.32,1224.33 4359.32,1228.33 4357.32,1228.33 4357.32,1234.33 4355.32,1234.33 4355.32,1236.33 4353.32,1236.33 4353.32,1238.33 4349.32,1238.33 4349.32,1240.33 4347.32,1240.33 4347.32,1242.33 4345.32,1242.33 4345.32,1248.33 4343.32,1248.33 4343.32,1252.33 4341.32,1252.33 4341.32,1254.33 4339.32,1254.33 4339.32,1256.33 4335.32,1256.33 4335.32,1260.33 4333.32,1260.33 4333.32,1262.33 4331.32,1262.33 4331.32,1266.33 4329.32,1266.33 4329.32,1272.33 4327.32,1272.33 4327.32,1276.33 4323.32,1276.33 4323.32,1278.33 4321.32,1278.33 4321.32,1280.33 4319.32,1280.33 4319.32,1282.33 4317.32,1282.33 4317.32,1286.33 4315.32,1286.33 4315.32,1292.33 4311.32,1292.33 4311.32,1294.33 4309.32,1294.33 4309.32,1296.33 4305.33,1296.33 4305.33,1300.33 4303.33,1300.33 4303.33,1324.33 4301.33,1324.33 4301.33,1442.34 4303.33,1442.34 4303.33,1458.34 4305.33,1458.34 4305.33,1462.34 4307.32,1462.34 4307.32,1464.34 4311.32,1464.34 4311.32,1466.34 4845.3,1466.34 4845.3,1464.34 4847.3,1464.34 4847.3,1462.34 4849.3,1462.34 4849.3,1460.34 4851.3,1460.34 4851.3,1456.34 4853.3,1456.34 4853.3,1312.33 4851.3,1312.33 4851.3,1308.33 4849.3,1308.33 4849.3,1306.33 4847.3,1306.33 4847.3,1304.33 4843.3,1304.33 4843.3,1302.33 4841.3,1302.33 4841.3,1300.33 4547.31,1300.33 4547.31,1298.33 4543.31,1298.33 4543.31,1296.33 4541.31,1296.33 4541.31,1288.33 4543.31,1288.33 4543.31,1286.33 4545.31,1286.33 4545.31,1282.33 4547.31,1282.33 4547.31,1276.33 4549.31,1276.33 4549.31,1274.33 4553.31,1274.33 4553.31,1272.33 4555.31,1272.33 4555.31,1270.33 4557.31,1270.33 4557.31,1268.33 4559.31,1268.33 4559.31,1262.33 4561.31,1262.33 4561.31,1258.33 4563.31,1258.33 4563.31,1256.33 4567.31,1256.33 4567.31,1254.33 4569.31,1254.33 4569.31,1252.33 4571.31,1252.33 4571.31,1248.33 4573.31,1248.33 4573.31,1244.33 4575.31,1244.33 4575.31,1240.33 4577.31,1240.33 4577.31,1238.33 4579.31,1238.33 4579.31,1236.33 4581.31,1236.33 4581.31,1234.33 4583.31,1234.33 4583.31,1232.33 4585.31,1232.33 4585.31,1230.33 4587.31,1230.33 4587.31,1224.33 4589.31,1224.33 4589.31,1218.33 4593.31,1218.33 4593.31,1216.33 4597.31,1216.33 4597.31,1214.33 4599.31,1214.33 4599.31,1210.33 4601.31,1210.33 4601.31,1204.33 4603.31,1204.33 4603.31,1202.33 4605.31,1202.33 4605.31,1200.33 4609.31,1200.33 4609.31,1198.33 4611.31,1198.33 4611.31,1196.33 4613.31,1196.33 4613.31,1192.33 4615.31,1192.33 4615.31,1188.33 4617.31,1188.33 4617.31,1184.33 4619.31,1184.33 4619.31,1182.33 4621.31,1182.33 4621.31,1178.33 4625.31,1178.33 4625.31,1176.33 4627.31,1176.33 4627.31,1172.33 4629.31,1172.33 4629.31,1166.33 4631.31,1166.33 4631.31,1162.33 4635.31,1162.33 4635.31,1160.33 4639.31,1160.33 4639.31,1158.33 4641.31,1158.33 4641.31,1154.33 4643.31,1154.33 4643.31,1148.33 4645.31,1148.33 4645.31,1146.33 4647.31,1146.33 4647.31,1144.33 4651.31,1144.33 4651.31,1142.33 4653.31,1142.33 4653.31,1138.33 4655.31,1138.33 4655.31,1134.33 4657.31,1134.33 4657.31,1130.33 4659.31,1130.33 4659.31,1126.33 4661.31,1126.33 4661.31,1124.32 4663.31,1124.32 4663.31,1122.32 4665.31,1122.32 4665.31,1120.32 4669.31,1120.32 4669.31,1116.32 4671.31,1116.32 4671.31,1108.32 4673.31,1108.32 4673.31,1106.32 4677.31,1106.32 4677.31,1104.32 4681.31,1104.32 4681.31,1102.32 4683.31,1102.32 4683.31,1096.32 4685.31,1096.32 4685.31,1092.32 4687.31,1092.32 4687.31,1090.32 4689.31,1090.32 4689.31,1088.32 4693.31,1088.32 4693.31,1086.32 4695.31,1086.32 4695.31,1082.32 4697.31,1082.32 4697.31,1078.32 4699.31,1078.32 4699.31,1074.32 4701.31,1074.32 4701.31,1068.32 4703.31,1068.32 4703.31,1066.32 4707.31,1066.32 4707.31,1064.32 4709.31,1064.32 4709.31,1062.32 4711.31,1062.32 4711.31,1058.32 4713.31,1058.32 4713.31,1052.32 4715.31,1052.32 4715.31,1050.32 4719.31,1050.32 4719.31,1048.32 4723.31,1048.32 4723.31,1044.32 4725.31,1044.32 4725.31,1040.32 4727.31,1040.32 4727.31,1036.32 4729.31,1036.32 4729.31,1034.32 4731.31,1034.32 4731.31,1032.32 4733.31,1032.32 4733.31,1030.32 4735.31,1030.32 4735.31,1028.32 4737.31,1028.32 4737.31,1024.32 4739.31,1024.32 4739.31,1022.32 4741.31,1022.32 4741.31,1016.32 4743.31,1016.32 4743.31,1012.32 4745.31,1012.32 4745.31,1010.32 4749.31,1010.32 4749.31,1008.32 4751.31,1008.32 4751.31,1006.32 4753.31,1006.32 4753.31,1002.32 4755.31,1002.32 4755.31,996.32 4757.31,996.32 4757.31,994.32 4761.31,994.32 4761.31,992.32 4763.31,992.32 4763.31,990.32 4765.31,990.32 4765.31,988.32 4767.31,988.32 4767.31,982.32 4769.31,982.32 4769.31,980.32 4771.31,980.32 4771.31,978.32 4773.31,978.32 4773.31,976.32 4775.31,976.32 4775.31,974.32 4777.31,974.32 4777.31,972.32 4779.31,972.32 4779.31,968.32 4781.31,968.32 4781.31,964.32 4783.31,964.32 4783.31,960.32 4785.31,960.32 4785.31,956.32 4787.31,956.32 4787.31,954.32 4791.31,954.32 4791.31,952.32 4793.31,952.32 4793.31,950.32 4795.31,950.32 4795.31,944.31 4797.31,944.31 4797.31,940.31 4799.31,940.31 4799.31,938.31 4803.3,938.31 4803.3,936.31 4805.3,936.31 4805.3,934.31 4807.3,934.31 4807.3,932.31 4809.3,932.31 4809.3,926.31 4811.3,926.31 4811.3,922.31 4813.3,922.31 4813.3,920.31 4817.3,920.31 4817.3,918.31 4819.3,918.31 4819.3,914.31 4821.3,914.31 4821.3,912.31 4823.3,912.31 4823.3,908.31 4825.3,908.31 4825.3,902.31 4827.3,902.31 4827.3,900.31 4829.3,900.31 4829.3,898.31 4833.3,898.31 4833.3,896.31 4835.3,896.31 4835.3,892.31 4837.3,892.31 4837.3,886.31 4839.3,886.31 4839.3,884.31 4841.3,884.31 4841.3,882.31 4845.3,882.31 4845.3,880.31 4847.3,880.31 4847.3,878.31 4849.3,878.31 4849.3,874.31 4851.3,874.31 4851.3,726.31 4849.3,726.31 4849.3,720.31 4847.3,720.31 4847.3,716.31 4845.3,716.31 4845.3,714.31 4841.3,714.31 4841.3,712.31 4313.32,712.31 "/>
   <polygon class="fil3" points="6237.25,708.31 6199.25,708.31 6199.25,710.31 6179.25,710.31 6179.25,712.31 6173.25,712.31 6173.25,714.31 6169.25,714.31 6169.25,716.31 6167.25,716.31 6167.25,718.31 6165.25,718.31 6165.25,720.31 6163.25,720.31 6163.25,722.31 6155.25,722.31 6155.25,724.31 6145.25,724.31 6145.25,726.31 6141.25,726.31 6141.25,728.31 6139.25,728.31 6139.25,730.31 6137.25,730.31 6137.25,732.31 6135.25,732.31 6135.25,734.31 6133.25,734.31 6133.25,736.31 6123.25,736.31 6123.25,738.31 6117.25,738.31 6117.25,740.31 6113.25,740.31 6113.25,742.31 6111.25,742.31 6111.25,746.31 6109.25,746.31 6109.25,748.31 6107.25,748.31 6107.25,750.31 6103.25,750.31 6103.25,752.31 6099.25,752.31 6099.25,754.31 6095.25,754.31 6095.25,758.31 6093.26,758.31 6093.26,762.31 6089.26,762.31 6089.26,764.31 6083.26,764.31 6083.26,766.31 6081.26,766.31 6081.26,768.31 6077.26,768.31 6077.26,772.31 6075.26,772.31 6075.26,774.31 6073.26,774.31 6073.26,776.31 6069.26,776.31 6069.26,778.31 6067.26,778.31 6067.26,780.31 6065.26,780.31 6065.26,782.31 6063.26,782.31 6063.26,784.31 6061.26,784.31 6061.26,786.31 6059.26,786.31 6059.26,790.31 6055.26,790.31 6055.26,792.31 6053.26,792.31 6053.26,796.31 6051.26,796.31 6051.26,800.31 6049.26,800.31 6049.26,804.31 6045.26,804.31 6045.26,806.31 6041.26,806.31 6041.26,808.31 6039.26,808.31 6039.26,812.31 6037.26,812.31 6037.26,818.31 6033.26,818.31 6033.26,730.31 6031.26,730.31 6031.26,722.31 6029.26,722.31 6029.26,716.31 6027.26,716.31 6027.26,714.31 6025.26,714.31 6025.26,712.31 5849.26,712.31 5849.26,714.31 5845.26,714.31 5845.26,716.31 5841.26,716.31 5841.26,718.31 5839.26,718.31 5839.26,722.31 5837.26,722.31 5837.26,724.31 5835.26,724.31 5835.26,728.31 5833.26,728.31 5833.26,1452.34 5835.26,1452.34 5835.26,1458.34 5837.26,1458.34 5837.26,1460.34 5839.26,1460.34 5839.26,1462.34 5843.26,1462.34 5843.26,1464.34 5847.26,1464.34 5847.26,1466.34 6025.26,1466.34 6025.26,1464.34 6027.26,1464.34 6027.26,1462.34 6029.26,1462.34 6029.26,1460.34 6031.26,1460.34 6031.26,1450.34 6033.26,1450.34 6033.26,1046.32 6035.26,1046.32 6035.26,1038.32 6037.26,1038.32 6037.26,1036.32 6039.26,1036.32 6039.26,1032.32 6041.26,1032.32 6041.26,1026.32 6043.26,1026.32 6043.26,1016.32 6045.26,1016.32 6045.26,1000.32 6047.26,1000.32 6047.26,992.32 6049.26,992.32 6049.26,990.32 6051.26,990.32 6051.26,988.32 6053.26,988.32 6053.26,986.32 6055.26,986.32 6055.26,982.32 6057.26,982.32 6057.26,978.32 6059.26,978.32 6059.26,970.32 6061.26,970.32 6061.26,966.32 6065.26,966.32 6065.26,964.32 6067.26,964.32 6067.26,962.32 6069.26,962.32 6069.26,960.32 6071.26,960.32 6071.26,956.32 6073.26,956.32 6073.26,954.32 6075.26,954.32 6075.26,952.32 6077.26,952.32 6077.26,950.32 6081.26,950.32 6081.26,948.32 6083.26,948.32 6083.26,946.31 6085.26,946.31 6085.26,942.31 6087.26,942.31 6087.26,940.31 6091.26,940.31 6091.26,938.31 6099.25,938.31 6099.25,936.31 6101.25,936.31 6101.25,934.31 6103.25,934.31 6103.25,932.31 6105.25,932.31 6105.25,930.31 6107.25,930.31 6107.25,928.31 6113.25,928.31 6113.25,926.31 6119.25,926.31 6119.25,924.31 6131.25,924.31 6131.25,922.31 6137.25,922.31 6137.25,920.31 6143.25,920.31 6143.25,918.31 6147.25,918.31 6147.25,916.31 6149.25,916.31 6149.25,914.31 6155.25,914.31 6155.25,912.31 6201.25,912.31 6201.25,910.31 6251.25,910.31 6251.25,908.31 6253.25,908.31 6253.25,906.31 6255.25,906.31 6255.25,904.31 6257.25,904.31 6257.25,900.31 6259.25,900.31 6259.25,894.31 6261.25,894.31 6261.25,718.31 6259.25,718.31 6259.25,716.31 6257.25,716.31 6257.25,712.31 6255.25,712.31 6255.25,710.31 6253.25,710.31 6253.25,708.31 6247.25,708.31 6247.25,706.31 6237.25,706.31 "/>
   <polygon class="fil2" points="2339.4,708.31 2301.41,708.31 2301.41,710.31 2279.41,710.31 2279.41,712.31 2273.41,712.31 2273.41,714.31 2271.41,714.31 2271.41,716.31 2267.41,716.31 2267.41,718.31 2265.41,718.31 2265.41,720.31 2263.41,720.31 2263.41,722.31 2257.41,722.31 2257.41,724.31 2247.41,724.31 2247.41,726.31 2241.41,726.31 2241.41,728.31 2239.41,728.31 2239.41,730.31 2237.41,730.31 2237.41,732.31 2235.41,732.31 2235.41,734.31 2233.41,734.31 2233.41,736.31 2225.41,736.31 2225.41,738.31 2219.41,738.31 2219.41,740.31 2217.41,740.31 2217.41,742.31 2213.41,742.31 2213.41,744.31 2211.41,744.31 2211.41,746.31 2209.41,746.31 2209.41,748.31 2207.41,748.31 2207.41,750.31 2203.41,750.31 2203.41,752.31 2199.41,752.31 2199.41,754.31 2195.41,754.31 2195.41,756.31 2193.41,756.31 2193.41,760.31 2191.41,760.31 2191.41,762.31 2189.41,762.31 2189.41,764.31 2185.41,764.31 2185.41,766.31 2181.41,766.31 2181.41,768.31 2179.41,768.31 2179.41,770.31 2177.41,770.31 2177.41,772.31 2175.41,772.31 2175.41,776.31 2171.41,776.31 2171.41,778.31 2167.41,778.31 2167.41,780.31 2165.41,780.31 2165.41,782.31 2163.41,782.31 2163.41,786.31 2161.41,786.31 2161.41,790.31 2159.41,790.31 2159.41,792.31 2155.41,792.31 2155.41,794.31 2153.41,794.31 2153.41,796.31 2151.41,796.31 2151.41,798.31 2149.41,798.31 2149.41,804.31 2147.41,804.31 2147.41,806.31 2139.41,806.31 2139.41,804.31 2137.41,804.31 2137.41,792.31 2135.41,792.31 2135.41,730.31 2133.41,730.31 2133.41,726.31 2131.41,726.31 2131.41,720.31 2129.41,720.31 2129.41,718.31 2127.41,718.31 2127.41,716.31 2125.41,716.31 2125.41,714.31 2123.41,714.31 2123.41,712.31 1949.42,712.31 1949.42,714.31 1945.42,714.31 1945.42,716.31 1943.42,716.31 1943.42,720.31 1941.42,720.31 1941.42,724.31 1939.42,724.31 1939.42,1458.34 1941.42,1458.34 1941.42,1462.34 1943.42,1462.34 1943.42,1464.34 1947.42,1464.34 1947.42,1466.34 2123.41,1466.34 2123.41,1464.34 2127.41,1464.34 2127.41,1462.34 2129.41,1462.34 2129.41,1460.34 2131.41,1460.34 2131.41,1456.34 2133.41,1456.34 2133.41,1448.34 2135.41,1448.34 2135.41,1086.32 2137.41,1086.32 2137.41,1064.32 2139.41,1064.32 2139.41,1046.32 2141.41,1046.32 2141.41,1028.32 2143.41,1028.32 2143.41,1006.32 2145.41,1006.32 2145.41,996.32 2149.41,996.32 2149.41,994.32 2151.41,994.32 2151.41,992.32 2153.41,992.32 2153.41,988.32 2155.41,988.32 2155.41,982.32 2157.41,982.32 2157.41,974.32 2159.41,974.32 2159.41,968.32 2165.41,968.32 2165.41,966.32 2167.41,966.32 2167.41,964.32 2169.41,964.32 2169.41,960.32 2171.41,960.32 2171.41,956.32 2173.41,956.32 2173.41,954.32 2175.41,954.32 2175.41,952.32 2179.41,952.32 2179.41,950.32 2183.41,950.32 2183.41,946.31 2185.41,946.31 2185.41,942.31 2187.41,942.31 2187.41,940.31 2195.41,940.31 2195.41,938.31 2199.41,938.31 2199.41,936.31 2203.41,936.31 2203.41,934.31 2205.41,934.31 2205.41,932.31 2207.41,932.31 2207.41,930.31 2209.41,930.31 2209.41,928.31 2211.41,928.31 2211.41,926.31 2221.41,926.31 2221.41,924.31 2231.41,924.31 2231.41,922.31 2239.41,922.31 2239.41,920.31 2243.41,920.31 2243.41,918.31 2247.41,918.31 2247.41,916.31 2251.41,916.31 2251.41,914.31 2257.41,914.31 2257.41,912.31 2307.41,912.31 2307.41,910.31 2351.4,910.31 2351.4,908.31 2357.4,908.31 2357.4,906.31 2359.4,906.31 2359.4,904.31 2361.4,904.31 2361.4,900.31 2363.4,900.31 2363.4,716.31 2361.4,716.31 2361.4,712.31 2359.4,712.31 2359.4,710.31 2355.4,710.31 2355.4,708.31 2343.4,708.31 2343.4,706.31 2339.4,706.31 "/>
   <polygon class="fil4" points="3313.36,822.31 3289.37,822.31 3289.37,824.31 3281.37,824.31 3281.37,826.31 3279.37,826.31 3279.37,828.31 3277.37,828.31 3277.37,830.31 3275.37,830.31 3275.37,832.31 3265.37,832.31 3265.37,834.31 3251.37,834.31 3251.37,836.31 3245.37,836.31 3245.37,838.31 3241.37,838.31 3241.37,840.31 3239.37,840.31 3239.37,842.31 3237.37,842.31 3237.37,846.31 3231.37,846.31 3231.37,848.31 3225.37,848.31 3225.37,850.31 3221.37,850.31 3221.37,852.31 3219.37,852.31 3219.37,854.31 3217.37,854.31 3217.37,858.31 3215.37,858.31 3215.37,860.31 3209.37,860.31 3209.37,862.31 3207.37,862.31 3207.37,864.31 3205.37,864.31 3205.37,866.31 3203.37,866.31 3203.37,870.31 3201.37,870.31 3201.37,872.31 3199.37,872.31 3199.37,874.31 3195.37,874.31 3195.37,876.31 3193.37,876.31 3193.37,878.31 3191.37,878.31 3191.37,880.31 3189.37,880.31 3189.37,884.31 3187.37,884.31 3187.37,886.31 3185.37,886.31 3185.37,888.31 3181.37,888.31 3181.37,890.31 3179.37,890.31 3179.37,894.31 3177.37,894.31 3177.37,898.31 3175.37,898.31 3175.37,902.31 3173.37,902.31 3173.37,904.31 3169.37,904.31 3169.37,906.31 3167.37,906.31 3167.37,908.31 3165.37,908.31 3165.37,912.31 3163.37,912.31 3163.37,918.31 3161.37,918.31 3161.37,924.31 3157.37,924.31 3157.37,928.31 3155.37,928.31 3155.37,930.31 3153.37,930.31 3153.37,932.31 3151.37,932.31 3151.37,940.31 3149.37,940.31 3149.37,950.32 3147.37,950.32 3147.37,958.32 3145.37,958.32 3145.37,960.32 3143.37,960.32 3143.37,962.32 3141.37,962.32 3141.37,964.32 3139.37,964.32 3139.37,970.32 3137.37,970.32 3137.37,982.32 3135.37,982.32 3135.37,1022.32 3133.37,1022.32 3133.37,1052.32 3131.37,1052.32 3131.37,1068.32 3133.37,1068.32 3133.37,1102.32 3135.37,1102.32 3135.37,1138.33 3137.37,1138.33 3137.37,1152.33 3139.37,1152.33 3139.37,1156.33 3141.37,1156.33 3141.37,1158.33 3143.37,1158.33 3143.37,1160.33 3145.37,1160.33 3145.37,1162.33 3147.37,1162.33 3147.37,1170.33 3149.37,1170.33 3149.37,1182.33 3151.37,1182.33 3151.37,1190.33 3153.37,1190.33 3153.37,1194.33 3155.37,1194.33 3155.37,1196.33 3157.37,1196.33 3157.37,1198.33 3159.37,1198.33 3159.37,1200.33 3161.37,1200.33 3161.37,1204.33 3163.37,1204.33 3163.37,1210.33 3165.37,1210.33 3165.37,1214.33 3167.37,1214.33 3167.37,1216.33 3169.37,1216.33 3169.37,1218.33 3173.37,1218.33 3173.37,1220.33 3175.37,1220.33 3175.37,1226.33 3177.37,1226.33 3177.37,1232.33 3179.37,1232.33 3179.37,1236.33 3181.37,1236.33 3181.37,1238.33 3183.37,1238.33 3183.37,1240.33 3185.37,1240.33 3185.37,1242.33 3189.37,1242.33 3189.37,1244.33 3191.37,1244.33 3191.37,1246.33 3193.37,1246.33 3193.37,1248.33 3195.37,1248.33 3195.37,1252.33 3197.37,1252.33 3197.37,1254.33 3201.37,1254.33 3201.37,1256.33 3203.37,1256.33 3203.37,1258.33 3205.37,1258.33 3205.37,1260.33 3209.37,1260.33 3209.37,1262.33 3211.37,1262.33 3211.37,1264.33 3213.37,1264.33 3213.37,1266.33 3215.37,1266.33 3215.37,1268.33 3217.37,1268.33 3217.37,1270.33 3221.37,1270.33 3221.37,1272.33 3229.37,1272.33 3229.37,1274.33 3233.37,1274.33 3233.37,1276.33 3235.37,1276.33 3235.37,1278.33 3237.37,1278.33 3237.37,1280.33 3239.37,1280.33 3239.37,1282.33 3241.37,1282.33 3241.37,1284.33 3247.37,1284.33 3247.37,1286.33 3261.37,1286.33 3261.37,1288.33 3271.37,1288.33 3271.37,1290.33 3273.37,1290.33 3273.37,1292.33 3275.37,1292.33 3275.37,1294.33 3279.37,1294.33 3279.37,1296.33 3283.37,1296.33 3283.37,1298.33 3295.37,1298.33 3295.37,1300.33 3363.36,1300.33 3363.36,1298.33 3375.36,1298.33 3375.36,1296.33 3381.36,1296.33 3381.36,1294.33 3385.36,1294.33 3385.36,1292.33 3387.36,1292.33 3387.36,1290.33 3389.36,1290.33 3389.36,1288.33 3395.36,1288.33 3395.36,1286.33 3405.36,1286.33 3405.36,1284.33 3409.36,1284.33 3409.36,1282.33 3413.36,1282.33 3413.36,1280.33 3415.36,1280.33 3415.36,1278.33 3417.36,1278.33 3417.36,1276.33 3419.36,1276.33 3419.36,1274.33 3425.36,1274.33 3425.36,1272.33 3431.36,1272.33 3431.36,1270.33 3435.36,1270.33 3435.36,1268.33 3437.36,1268.33 3437.36,1264.33 3439.36,1264.33 3439.36,1262.33 3441.36,1262.33 3441.36,1260.33 3447.36,1260.33 3447.36,1258.33 3451.36,1258.33 3451.36,1256.33 3455.36,1256.33 3455.36,1254.33 3457.36,1254.33 3457.36,1252.33 3459.36,1252.33 3459.36,1248.33 3461.36,1248.33 3461.36,1246.33 3463.36,1246.33 3463.36,1244.33 3465.36,1244.33 3465.36,1242.33 3469.36,1242.33 3469.36,1240.33 3471.36,1240.33 3471.36,1238.33 3473.36,1238.33 3473.36,1234.33 3475.36,1234.33 3475.36,1230.33 3477.36,1230.33 3477.36,1226.33 3479.36,1226.33 3479.36,1222.33 3481.36,1222.33 3481.36,1220.33 3483.36,1220.33 3483.36,1218.33 3487.36,1218.33 3487.36,1214.33 3489.36,1214.33 3489.36,1210.33 3491.36,1210.33 3491.36,1204.33 3493.36,1204.33 3493.36,1202.33 3497.36,1202.33 3497.36,1200.33 3499.36,1200.33 3499.36,1198.33 3501.36,1198.33 3501.36,1194.33 3503.36,1194.33 3503.36,1186.33 3505.36,1186.33 3505.36,1174.33 3507.36,1174.33 3507.36,1170.33 3511.36,1170.33 3511.36,1168.33 3513.35,1168.33 3513.35,1164.33 3515.35,1164.33 3515.35,1158.33 3517.35,1158.33 3517.35,1146.33 3519.35,1146.33 3519.35,1132.33 3521.35,1132.33 3521.35,1128.33 3523.35,1128.33 3523.35,1124.32 3525.35,1124.32 3525.35,1120.32 3527.35,1120.32 3527.35,1110.32 3529.35,1110.32 3529.35,1092.32 3531.35,1092.32 3531.35,1016.32 3529.35,1016.32 3529.35,1002.32 3527.35,1002.32 3527.35,996.32 3525.35,996.32 3525.35,992.32 3523.35,992.32 3523.35,990.32 3521.35,990.32 3521.35,984.32 3519.35,984.32 3519.35,964.32 3517.35,964.32 3517.35,954.32 3515.35,954.32 3515.35,948.32 3513.35,948.32 3513.35,946.31 3511.36,946.31 3511.36,944.31 3507.36,944.31 3507.36,938.31 3505.36,938.31 3505.36,928.31 3503.36,928.31 3503.36,922.31 3501.36,922.31 3501.36,918.31 3499.36,918.31 3499.36,916.31 3495.36,916.31 3495.36,914.31 3493.36,914.31 3493.36,910.31 3491.36,910.31 3491.36,906.31 3489.36,906.31 3489.36,902.31 3487.36,902.31 3487.36,900.31 3485.36,900.31 3485.36,896.31 3483.36,896.31 3483.36,894.31 3479.36,894.31 3479.36,890.31 3477.36,890.31 3477.36,888.31 3475.36,888.31 3475.36,882.31 3473.36,882.31 3473.36,880.31 3471.36,880.31 3471.36,878.31 3467.36,878.31 3467.36,876.31 3463.36,876.31 3463.36,874.31 3461.36,874.31 3461.36,870.31 3459.36,870.31 3459.36,866.31 3455.36,866.31 3455.36,864.31 3451.36,864.31 3451.36,862.31 3449.36,862.31 3449.36,860.31 3445.36,860.31 3445.36,856.31 3443.36,856.31 3443.36,854.31 3441.36,854.31 3441.36,852.31 3437.36,852.31 3437.36,850.31 3433.36,850.31 3433.36,848.31 3425.36,848.31 3425.36,846.31 3421.36,846.31 3421.36,844.31 3419.36,844.31 3419.36,840.31 3417.36,840.31 3417.36,838.31 3413.36,838.31 3413.36,836.31 3407.36,836.31 3407.36,834.31 3393.36,834.31 3393.36,832.31 3381.36,832.31 3381.36,828.31 3379.36,828.31 3379.36,826.31 3375.36,826.31 3375.36,824.31 3369.36,824.31 3369.36,822.31 3345.36,822.31 3345.36,820.31 3313.36,820.31 "/>
   <polygon class="fil2" points="1627.43,714.31 1625.43,714.31 1625.43,716.31 1623.43,716.31 1623.43,718.31 1621.43,718.31 1621.43,722.31 1619.43,722.31 1619.43,728.31 1617.43,728.31 1617.43,730.31 1615.43,730.31 1615.43,1448.34 1617.43,1448.34 1617.43,1454.34 1619.43,1454.34 1619.43,1460.34 1621.43,1460.34 1621.43,1462.34 1623.43,1462.34 1623.43,1464.34 1627.43,1464.34 1627.43,1466.34 1803.43,1466.34 1803.43,1464.34 1807.43,1464.34 1807.43,1462.34 1809.43,1462.34 1809.43,1460.34 1811.43,1460.34 1811.43,1444.34 1813.43,1444.34 1813.43,738.31 1811.43,738.31 1811.43,722.31 1809.43,722.31 1809.43,718.31 1807.43,718.31 1807.43,716.31 1805.43,716.31 1805.43,714.31 1803.43,714.31 1803.43,712.31 1627.43,712.31 "/>
   <polygon class="fil3" points="1709.43,408.29 1699.43,408.29 1699.43,410.29 1693.43,410.29 1693.43,412.29 1691.43,412.29 1691.43,414.29 1685.43,414.29 1685.43,416.3 1673.43,416.3 1673.43,418.3 1663.43,418.3 1663.43,420.3 1657.43,420.3 1657.43,422.3 1655.43,422.3 1655.43,424.3 1653.43,424.3 1653.43,426.3 1651.43,426.3 1651.43,430.3 1647.43,430.3 1647.43,432.3 1641.43,432.3 1641.43,434.3 1637.43,434.3 1637.43,436.3 1635.43,436.3 1635.43,440.3 1633.43,440.3 1633.43,444.3 1627.43,444.3 1627.43,446.3 1625.43,446.3 1625.43,448.3 1623.43,448.3 1623.43,452.3 1621.43,452.3 1621.43,458.3 1619.43,458.3 1619.43,460.3 1617.43,460.3 1617.43,462.3 1613.43,462.3 1613.43,464.3 1611.43,464.3 1611.43,468.3 1609.43,468.3 1609.43,474.3 1607.43,474.3 1607.43,486.3 1605.43,486.3 1605.43,492.3 1603.43,492.3 1603.43,494.3 1601.43,494.3 1601.43,498.3 1599.43,498.3 1599.43,502.3 1597.43,502.3 1597.43,508.3 1595.43,508.3 1595.43,538.3 1597.43,538.3 1597.43,548.3 1599.43,548.3 1599.43,552.3 1601.43,552.3 1601.43,556.3 1603.43,556.3 1603.43,558.3 1605.43,558.3 1605.43,564.3 1607.43,564.3 1607.43,572.3 1609.43,572.3 1609.43,576.3 1611.43,576.3 1611.43,578.3 1613.43,578.3 1613.43,580.3 1615.43,580.3 1615.43,582.3 1617.43,582.3 1617.43,584.3 1619.43,584.3 1619.43,590.3 1621.43,590.3 1621.43,594.3 1623.43,594.3 1623.43,600.3 1625.43,600.3 1625.43,602.3 1627.43,602.3 1627.43,604.3 1631.43,604.3 1631.43,606.3 1635.43,606.3 1635.43,608.3 1637.43,608.3 1637.43,612.3 1639.43,612.3 1639.43,614.3 1641.43,614.3 1641.43,616.3 1643.43,616.3 1643.43,618.3 1649.43,618.3 1649.43,620.3 1653.43,620.3 1653.43,622.3 1659.43,622.3 1659.43,624.3 1661.43,624.3 1661.43,628.3 1663.43,628.3 1663.43,630.3 1667.43,630.3 1667.43,632.3 1673.43,632.3 1673.43,634.3 1703.43,634.3 1703.43,636.3 1715.43,636.3 1715.43,638.3 1717.43,638.3 1717.43,636.3 1731.43,636.3 1731.43,634.3 1757.43,634.3 1757.43,632.3 1765.43,632.3 1765.43,630.3 1769.43,630.3 1769.43,628.3 1771.43,628.3 1771.43,626.3 1773.43,626.3 1773.43,624.3 1775.43,624.3 1775.43,622.3 1779.43,622.3 1779.43,620.3 1783.43,620.3 1783.43,618.3 1789.43,618.3 1789.43,616.3 1791.43,616.3 1791.43,614.3 1793.43,614.3 1793.43,612.3 1795.43,612.3 1795.43,608.3 1797.43,608.3 1797.43,606.3 1801.43,606.3 1801.43,604.3 1805.43,604.3 1805.43,602.3 1807.43,602.3 1807.43,598.3 1809.43,598.3 1809.43,594.3 1811.43,594.3 1811.43,588.3 1813.43,588.3 1813.43,586.3 1815.43,586.3 1815.43,584.3 1817.43,584.3 1817.43,582.3 1819.43,582.3 1819.43,580.3 1821.43,580.3 1821.43,576.3 1823.42,576.3 1823.42,568.3 1825.42,568.3 1825.42,562.3 1827.42,562.3 1827.42,560.3 1829.42,560.3 1829.42,558.3 1831.42,558.3 1831.42,556.3 1833.42,556.3 1833.42,550.3 1835.42,550.3 1835.42,536.3 1837.42,536.3 1837.42,510.3 1835.42,510.3 1835.42,502.3 1833.42,502.3 1833.42,496.3 1831.42,496.3 1831.42,492.3 1829.42,492.3 1829.42,490.3 1827.42,490.3 1827.42,488.3 1825.42,488.3 1825.42,478.3 1823.42,478.3 1823.42,468.3 1821.43,468.3 1821.43,464.3 1819.43,464.3 1819.43,462.3 1817.43,462.3 1817.43,460.3 1813.43,460.3 1813.43,458.3 1811.43,458.3 1811.43,454.3 1809.43,454.3 1809.43,448.3 1807.43,448.3 1807.43,446.3 1805.43,446.3 1805.43,444.3 1801.43,444.3 1801.43,442.3 1799.43,442.3 1799.43,440.3 1797.43,440.3 1797.43,436.3 1795.43,436.3 1795.43,434.3 1791.43,434.3 1791.43,432.3 1785.43,432.3 1785.43,430.3 1781.43,430.3 1781.43,428.3 1779.43,428.3 1779.43,424.3 1777.43,424.3 1777.43,422.3 1775.43,422.3 1775.43,420.3 1769.43,420.3 1769.43,418.3 1759.43,418.3 1759.43,416.3 1747.43,416.3 1747.43,414.29 1743.43,414.29 1743.43,412.29 1739.43,412.29 1739.43,410.29 1733.43,410.29 1733.43,408.29 1723.43,408.29 1723.43,406.29 1709.43,406.29 "/>
  </g>
 </g>
</svg>
